<svg width="272" height="73.3491" preserveAspectRatio="none" version="1.1" viewBox="543.112 406.825 20.9861 5.65926" xmlns="http://www.w3.org/2000/svg"><style>.companyName {fill:#08376B;fill-opacity:1;}.icon1 {fill:#35C0ED;fill-opacity:1;}.icon2 {fill:#9AEBA6;fill-opacity:1;}.icon3 {fill:#2F90B0;fill-opacity:1;}.icon3-str {stroke:#2F90B0;stroke-opacity:1;}.shapeStroke-str {stroke:#08376B;stroke-opacity:1;}.text {fill:#08376B;fill-opacity:1;}</style><g transform="matrix(2.38908 0 0 2.38908 -754.654 -566.437)" stroke-width=".418572"><g fill="#08376b"><g stroke-width=".0532168" aria-label="FairDM"><path d="m546.72 407.811h-0.63684v0.35521h0.5472v0.14885h-0.5472v0.60639h-0.16745v-1.2593h0.80429z"/><path d="m547.553 408.921h-0.15815v-0.10064q-0.0211 0.0144-0.0575 0.0406-0.0355 0.0254-0.0693 0.0406-0.0397 0.0195-0.0913 0.0321-0.0516 0.0135-0.12094 0.0135-0.12771 0-0.21651-0.0846t-0.0888-0.21566q0-0.10741 0.0457-0.17338 0.0465-0.0668 0.13193-0.10487 0.0863-0.0381 0.20721-0.0516 0.12094-0.0135 0.25964-0.0203v-0.0245q0-0.0541-0.0195-0.0896-0.0186-0.0355-0.0541-0.0558-0.0338-0.0195-0.0812-0.0262-0.0474-7e-3 -0.0989-7e-3 -0.0626 0-0.13955 0.0169-0.077 0.0161-0.159 0.0474h-8e-3v-0.16154q0.0465-0.0127 0.13447-0.0279 0.088-0.0152 0.17338-0.0152 0.0998 0 0.17337 0.0169 0.0744 0.0161 0.12855 0.0558 0.0533 0.0389 0.0812 0.10065 0.0279 0.0617 0.0279 0.15308zm-0.15815-0.23257v-0.26303q-0.0727 4e-3 -0.17168 0.0127-0.0981 8e-3 -0.15562 0.0245-0.0685 0.0195-0.11079 0.0609-0.0423 0.0406-0.0423 0.11248 0 0.0812 0.0491 0.12263 0.0491 0.0406 0.1497 0.0406 0.0837 0 0.15308-0.0321 0.0693-0.033 0.12855-0.0786z"/><path d="m548.036 407.818h-0.1793v-0.16492h0.1793zm-0.0101 1.10284h-0.159v-0.94468h0.159z"/><path d="m548.935 408.15h-8e-3q-0.0355-8e-3 -0.0693-0.0118-0.033-4e-3 -0.0787-4e-3 -0.0736 0-0.14209 0.033-0.0685 0.0321-0.13193 0.0837v0.67067h-0.159v-0.94468h0.159v0.13954q0.0947-0.0761 0.16661-0.10741 0.0727-0.0321 0.148-0.0321 0.0414 0 0.06 3e-3 0.0186 2e-3 0.0558 8e-3z"/><path d="m550.166 408.293q0 0.17169-0.0753 0.31123-0.0744 0.13955-0.19875 0.21651-0.0863 0.0533-0.19283 0.077-0.10572 0.0237-0.27909 0.0237h-0.318v-1.2593h0.31462q0.18437 0 0.29262 0.0271 0.1091 0.0262 0.18437 0.0727 0.12855 0.0803 0.20044 0.21397 0.0719 0.13363 0.0719 0.31715zm-0.17507-3e-3q0-0.148-0.0516-0.24949t-0.15392-0.15984q-0.0744-0.0423-0.15816-0.0584-0.0837-0.0169-0.20044-0.0169h-0.1573v0.97175h0.1573q0.12094 0 0.21059-0.0178 0.0905-0.0178 0.16577-0.066 0.0939-0.06 0.14039-0.15815 0.0474-0.0981 0.0474-0.24527z"/><path d="m551.564 408.921h-0.16745v-1.08508l-0.35014 0.73833h-0.0998l-0.3476-0.73833v1.08508h-0.15646v-1.2593h0.22835l0.33575 0.70112 0.32477-0.70112h0.23257z"/></g><g stroke-width=".0183078"><path transform="matrix(.989848 0 0 1.01026 -3.13228e-6 1.54211e-7)" d="m551.652 405.08q0-9e-3 -4e-3 -0.0157-4e-3 -7e-3 -0.0129-0.0103-6e-3 -3e-3 -0.0149-3e-3 -9e-3 -6.5e-4 -0.0198-6.5e-4h-0.0228v0.0657h0.0193q0.0151 0 0.0252-1e-3 0.0102-1e-3 0.017-7e-3 7e-3 -5e-3 0.01-0.0111 3e-3 -6e-3 3e-3 -0.0165zm0.0981 0.16924h-0.0768l-0.0665-0.0894h-0.029v0.0894h-0.0626v-0.24394h0.1055q0.0216 0 0.0372 2e-3t0.0292 0.0106q0.0138 8e-3 0.0218 0.0213 8e-3 0.0129 8e-3 0.0326 0 0.027-0.0126 0.0441-0.0124 0.017-0.0357 0.0283z"/><path transform="matrix(.989848 0 0 1.01026 -3.13228e-6 1.54211e-7)" d="m551.965 405.168h-0.135q1e-3 0.0216 0.0164 0.0331 0.0152 0.0115 0.0447 0.0115 0.0187 0 0.0362-7e-3t0.0277-0.0144h7e-3v0.0473q-0.02 8e-3 -0.0377 0.0116-0.0177 4e-3 -0.0392 4e-3 -0.0554 0-0.0849-0.0249t-0.0295-0.0709q0-0.0455 0.0278-0.0721 0.028-0.0267 0.0767-0.0267 0.0449 0 0.0675 0.0228 0.0226 0.0226 0.0226 0.0652zm-0.0586-0.0346q-4.9e-4 -0.0185-9e-3 -0.0279-9e-3 -9e-3 -0.027-9e-3 -0.017 0-0.028 9e-3t-0.0123 0.0283z"/><path transform="matrix(.989848 0 0 1.01026 -3.13228e-6 1.54211e-7)" d="m552.129 405.201v-0.0383q-0.012 9.8e-4 -0.0259 3e-3 -0.0139 2e-3 -0.0211 4e-3 -9e-3 3e-3 -0.0136 8e-3 -5e-3 5e-3 -5e-3 0.0139 0 6e-3 9.8e-4 9e-3 9.9e-4 4e-3 5e-3 7e-3 4e-3 3e-3 9e-3 5e-3 5e-3 1e-3 0.0164 1e-3 9e-3 0 0.0179-4e-3 9e-3 -4e-3 0.0161-0.01zm0 0.0285q-5e-3 4e-3 -0.0118 9e-3 -7e-3 5e-3 -0.0133 8e-3 -9e-3 4e-3 -0.018 6e-3t-0.0205 2e-3q-0.0262 0-0.0439-0.0162t-0.0177-0.0414q0-0.0202 9e-3 -0.0329 9e-3 -0.0128 0.0256-0.0202 0.0164-7e-3 0.0406-0.0105 0.0242-3e-3 0.0503-5e-3v-9.8e-4q0-0.0152-0.0124-0.021-0.0125-6e-3 -0.0367-6e-3 -0.0146 0-0.0311 5e-3 -0.0166 5e-3 -0.0238 8e-3h-5e-3v-0.0444q9e-3 -2e-3 0.0303-6e-3 0.0211-3e-3 0.0423-3e-3 0.0503 0 0.0726 0.0156 0.0224 0.0154 0.0224 0.0485v0.12517h-0.0585z"/><path transform="matrix(.989848 0 0 1.01026 -3.13228e-6 1.54211e-7)" d="m552.411 405.191q0 0.0285-0.0255 0.046-0.0256 0.0174-0.07 0.0174-0.0246 0-0.0446-5e-3t-0.0321-0.0102v-0.0485h5e-3q4e-3 3e-3 0.0101 7e-3 6e-3 4e-3 0.0166 8e-3 9e-3 4e-3 0.0208 7e-3 0.0116 3e-3 0.0249 3e-3 0.0174 0 0.0257-4e-3 8e-3 -4e-3 8e-3 -0.0115 0-7e-3 -5e-3 -0.01t-0.0187-6e-3q-7e-3 -1e-3 -0.0179-3e-3 -0.0111-2e-3 -0.0203-4e-3 -0.0251-7e-3 -0.0372-0.0203-0.0121-0.0139-0.0121-0.0346 0-0.0265 0.0251-0.0441 0.0252-0.0177 0.0688-0.0177 0.0206 0 0.0395 4e-3 0.019 4e-3 0.0296 9e-3v0.0465h-5e-3q-0.0131-9e-3 -0.03-0.0146-0.0167-6e-3 -0.0339-6e-3 -0.0143 0-0.0241 4e-3 -0.01 4e-3 -0.01 0.0111 0 7e-3 4e-3 0.01t0.0208 7e-3q9e-3 2e-3 0.0193 4e-3 0.0105 2e-3 0.021 4e-3 0.0233 6e-3 0.0344 0.0192 0.0111 0.0129 0.0111 0.0324z"/><path transform="matrix(.989848 0 0 1.01026 -3.13228e-6 1.54211e-7)" d="m552.642 405.168h-0.13499q1e-3 0.0216 0.0164 0.0331 0.0152 0.0115 0.0447 0.0115 0.0187 0 0.0362-7e-3t0.0277-0.0144h7e-3v0.0473q-0.02 8e-3 -0.0377 0.0116-0.0177 4e-3 -0.0391 4e-3 -0.0554 0-0.0849-0.0249t-0.0295-0.0709q0-0.0455 0.0279-0.0721 0.028-0.0267 0.0767-0.0267 0.0449 0 0.0675 0.0228 0.0226 0.0226 0.0226 0.0652zm-0.0587-0.0346q-4.9e-4 -0.0185-9e-3 -0.0279-9e-3 -9e-3 -0.027-9e-3 -0.017 0-0.028 9e-3t-0.0123 0.0283z"/><path transform="matrix(.989848 0 0 1.01026 -3.13228e-6 1.54211e-7)" d="m552.805 405.201v-0.0383q-0.012 9.8e-4 -0.0259 3e-3 -0.0139 2e-3 -0.0211 4e-3 -9e-3 3e-3 -0.0136 8e-3 -5e-3 5e-3 -5e-3 0.0139 0 6e-3 9.9e-4 9e-3 9.8e-4 4e-3 5e-3 7e-3 4e-3 3e-3 9e-3 5e-3 5e-3 1e-3 0.0164 1e-3 9e-3 0 0.0179-4e-3 9e-3 -4e-3 0.0161-0.01zm0 0.0285q-5e-3 4e-3 -0.0118 9e-3 -7e-3 5e-3 -0.0133 8e-3 -9e-3 4e-3 -0.018 6e-3t-0.0205 2e-3q-0.0262 0-0.0439-0.0162t-0.0177-0.0414q0-0.0202 9e-3 -0.0329 9e-3 -0.0128 0.0256-0.0202 0.0164-7e-3 0.0406-0.0105 0.0242-3e-3 0.0503-5e-3v-9.8e-4q0-0.0152-0.0124-0.021-0.0125-6e-3 -0.0367-6e-3 -0.0146 0-0.0311 5e-3 -0.0166 5e-3 -0.0238 8e-3h-5e-3v-0.0444q9e-3 -2e-3 0.0303-6e-3 0.0211-3e-3 0.0423-3e-3 0.0503 0 0.0726 0.0156 0.0224 0.0154 0.0224 0.0485v0.12517h-0.0585z"/><path transform="matrix(.989848 0 0 1.01026 -3.13228e-6 1.54211e-7)" d="m553.061 405.121h-5e-3q-4e-3 -1e-3 -0.0121-2e-3 -8e-3 -6.6e-4 -0.0139-6.6e-4 -0.0126 0-0.0223 2e-3 -0.01 2e-3 -0.0208 6e-3v0.1232h-0.059v-0.18398h0.059v0.027q0.0195-0.0167 0.0339-0.0221 0.0144-6e-3 0.0265-6e-3 3e-3 0 7e-3 1.7e-4 4e-3 1.6e-4 7e-3 4.9e-4z"/><path transform="matrix(.989848 0 0 1.01026 -3.13228e-6 1.54211e-7)" d="m553.201 405.254q-0.0241 0-0.0441-6e-3 -0.0198-6e-3 -0.0346-0.0177-0.0146-0.012-0.0226-0.0301-8e-3 -0.0182-8e-3 -0.0426 0-0.0257 9e-3 -0.0444t0.0241-0.031q0.0149-0.0116 0.0344-0.017 0.0195-5e-3 0.0405-5e-3 0.0188 0 0.0347 4e-3t0.0296 0.0106v0.0503h-8e-3q-3e-3 -3e-3 -8e-3 -7e-3t-0.0118-8e-3q-7e-3 -4e-3 -0.0147-6e-3 -8e-3 -2e-3 -0.0187-2e-3 -0.0236 0-0.0364 0.0151-0.0126 0.0149-0.0126 0.0406 0 0.0265 0.0129 0.0403 0.0131 0.0138 0.037 0.0138 0.0111 0 0.02-2e-3 9e-3 -3e-3 0.0149-6e-3 6e-3 -3e-3 0.01-7e-3t8e-3 -7e-3h8e-3v0.0503q-0.0139 7e-3 -0.0292 0.0103-0.0151 4e-3 -0.0334 4e-3z"/><path transform="matrix(.989848 0 0 1.01026 -3.13228e-6 1.54211e-7)" d="m553.497 405.249h-0.0593v-0.0913q0-0.0111-1e-3 -0.0221-1e-3 -0.0111-4e-3 -0.0164-3e-3 -6e-3 -0.01-9e-3 -6e-3 -3e-3 -0.0175-3e-3 -8e-3 0-0.0164 3e-3 -8e-3 3e-3 -0.0178 8e-3v0.13041h-0.059v-0.25492h0.059v0.0913q0.0157-0.0123 0.0301-0.0188 0.0146-7e-3 0.0323-7e-3 0.0298 0 0.0465 0.0174 0.0169 0.0174 0.0169 0.0519z"/><path transform="matrix(.989848 0 0 1.01026 -3.13228e-6 1.54211e-7)" d="m553.921 405.128q0 0.0341-0.0156 0.0611-0.0156 0.0269-0.0393 0.0413-0.0179 0.0108-0.0392 0.0151-0.0213 4e-3 -0.0505 4e-3h-0.086v-0.24394h0.0885q0.0298 0 0.0514 5e-3t0.0364 0.0141q0.0252 0.0154 0.0396 0.0416 0.0146 0.026 0.0146 0.0614zm-0.065-4.9e-4q0-0.0241-9e-3 -0.0411-9e-3 -0.0172-0.0277-0.0269-0.01-5e-3 -0.0198-6e-3 -0.01-2e-3 -0.0303-2e-3h-0.0159v0.15269h0.0159q0.0224 0 0.0329-2e-3t0.0205-8e-3q0.0172-0.01 0.0252-0.0262 8e-3 -0.0165 8e-3 -0.0408z"/><path transform="matrix(.989848 0 0 1.01026 -3.13228e-6 1.54211e-7)" d="m554.087 405.201v-0.0383q-0.012 9.8e-4 -0.0259 3e-3 -0.0139 2e-3 -0.0211 4e-3 -9e-3 3e-3 -0.0136 8e-3 -5e-3 5e-3 -5e-3 0.0139 0 6e-3 9.8e-4 9e-3 9.9e-4 4e-3 5e-3 7e-3 4e-3 3e-3 9e-3 5e-3 5e-3 1e-3 0.0164 1e-3 9e-3 0 0.0179-4e-3 9e-3 -4e-3 0.0161-0.01zm0 0.0285q-5e-3 4e-3 -0.0118 9e-3 -7e-3 5e-3 -0.0133 8e-3 -9e-3 4e-3 -0.018 6e-3t-0.0205 2e-3q-0.0262 0-0.0439-0.0162t-0.0177-0.0414q0-0.0202 9e-3 -0.0329 9e-3 -0.0128 0.0256-0.0202 0.0164-7e-3 0.0406-0.0105 0.0242-3e-3 0.0503-5e-3v-9.8e-4q0-0.0152-0.0125-0.021-0.0124-6e-3 -0.0367-6e-3 -0.0146 0-0.0311 5e-3t-0.0238 8e-3h-5e-3v-0.0444q9e-3 -2e-3 0.0303-6e-3 0.0211-3e-3 0.0423-3e-3 0.0503 0 0.0726 0.0156 0.0224 0.0154 0.0224 0.0485v0.12517h-0.0585z"/><path transform="matrix(.989848 0 0 1.01026 -3.13228e-6 1.54211e-7)" d="m554.327 405.248q-0.01 2e-3 -0.0202 4e-3 -0.0106 1e-3 -0.026 1e-3 -0.0344 0-0.0513-0.0139-0.0167-0.0139-0.0167-0.0477v-0.086h-0.0243v-0.04h0.0243v-0.0526h0.059v0.0526h0.0552v0.04h-0.0552v0.0652q0 0.01 1.6e-4 0.0169 1.6e-4 7e-3 3e-3 0.0129 2e-3 6e-3 8e-3 9e-3t0.017 3e-3q5e-3 0 0.012-2e-3 8e-3 -2e-3 0.0105-4e-3h5e-3z"/><path transform="matrix(.989848 0 0 1.01026 -3.13228e-6 1.54211e-7)" d="m554.484 405.201v-0.0383q-0.012 9.8e-4 -0.0259 3e-3 -0.0139 2e-3 -0.0211 4e-3 -9e-3 3e-3 -0.0136 8e-3 -5e-3 5e-3 -5e-3 0.0139 0 6e-3 9.8e-4 9e-3 9.8e-4 4e-3 5e-3 7e-3 4e-3 3e-3 9e-3 5e-3 5e-3 1e-3 0.0164 1e-3 9e-3 0 0.0179-4e-3 9e-3 -4e-3 0.016-0.01zm0 0.0285q-5e-3 4e-3 -0.0118 9e-3 -7e-3 5e-3 -0.0133 8e-3 -9e-3 4e-3 -0.018 6e-3t-0.0205 2e-3q-0.0262 0-0.0439-0.0162t-0.0177-0.0414q0-0.0202 9e-3 -0.0329 9e-3 -0.0128 0.0255-0.0202 0.0164-7e-3 0.0406-0.0105 0.0242-3e-3 0.0503-5e-3v-9.8e-4q0-0.0152-0.0125-0.021-0.0124-6e-3 -0.0367-6e-3 -0.0146 0-0.0311 5e-3t-0.0238 8e-3h-5e-3v-0.0444q9e-3 -2e-3 0.0303-6e-3 0.0211-3e-3 0.0423-3e-3 0.0503 0 0.0726 0.0156 0.0224 0.0154 0.0224 0.0485v0.12517h-0.0585z"/><path transform="matrix(.989848 0 0 1.01026 -3.13228e-6 1.54211e-7)" d="m554.991 405.249h-0.0626v-0.16334l-0.0452 0.106h-0.0434l-0.0452-0.106v0.16334h-0.0593v-0.24394h0.0731l0.0549 0.12238 0.0547-0.12238h0.0731z"/><path transform="matrix(.989848 0 0 1.01026 -3.13228e-6 1.54211e-7)" d="m555.172 405.201v-0.0383q-0.012 9.8e-4 -0.0259 3e-3 -0.0139 2e-3 -0.0211 4e-3 -9e-3 3e-3 -0.0136 8e-3 -5e-3 5e-3 -5e-3 0.0139 0 6e-3 9.9e-4 9e-3 9.8e-4 4e-3 5e-3 7e-3 4e-3 3e-3 9e-3 5e-3 5e-3 1e-3 0.0164 1e-3 9e-3 0 0.0179-4e-3 9e-3 -4e-3 0.0161-0.01zm0 0.0285q-5e-3 4e-3 -0.0118 9e-3 -7e-3 5e-3 -0.0133 8e-3 -9e-3 4e-3 -0.018 6e-3t-0.0205 2e-3q-0.0262 0-0.0439-0.0162t-0.0177-0.0414q0-0.0202 9e-3 -0.0329 9e-3 -0.0128 0.0256-0.0202 0.0164-7e-3 0.0406-0.0105 0.0243-3e-3 0.0503-5e-3v-9.8e-4q0-0.0152-0.0124-0.021-0.0125-6e-3 -0.0367-6e-3 -0.0146 0-0.0311 5e-3t-0.0238 8e-3h-5e-3v-0.0444q9e-3 -2e-3 0.0303-6e-3 0.0211-3e-3 0.0423-3e-3 0.0503 0 0.0726 0.0156 0.0224 0.0154 0.0224 0.0485v0.12517h-0.0585z"/><path transform="matrix(.989848 0 0 1.01026 -3.13228e-6 1.54211e-7)" d="m555.479 405.249h-0.0593v-0.0913q0-0.0111-1e-3 -0.0221-1e-3 -0.0111-4e-3 -0.0164-3e-3 -6e-3 -0.01-9e-3 -6e-3 -3e-3 -0.0175-3e-3 -8e-3 0-0.0164 3e-3 -8e-3 3e-3 -0.0179 8e-3v0.13041h-0.059v-0.18398h0.059v0.0203q0.0157-0.0123 0.0301-0.0188 0.0146-7e-3 0.0323-7e-3 0.0298 0 0.0465 0.0174 0.0169 0.0174 0.0169 0.0519z"/><path transform="matrix(.989848 0 0 1.01026 -3.13228e-6 1.54211e-7)" d="m555.655 405.201v-0.0383q-0.012 9.8e-4 -0.0259 3e-3 -0.0139 2e-3 -0.0211 4e-3 -9e-3 3e-3 -0.0136 8e-3 -5e-3 5e-3 -5e-3 0.0139 0 6e-3 9.9e-4 9e-3 9.8e-4 4e-3 5e-3 7e-3 4e-3 3e-3 9e-3 5e-3 5e-3 1e-3 0.0164 1e-3 9e-3 0 0.0179-4e-3 9e-3 -4e-3 0.0161-0.01zm0 0.0285q-5e-3 4e-3 -0.0118 9e-3 -7e-3 5e-3 -0.0133 8e-3 -9e-3 4e-3 -0.018 6e-3t-0.0205 2e-3q-0.0262 0-0.0439-0.0162t-0.0177-0.0414q0-0.0202 9e-3 -0.0329 9e-3 -0.0128 0.0256-0.0202 0.0164-7e-3 0.0406-0.0105 0.0242-3e-3 0.0503-5e-3v-9.8e-4q0-0.0152-0.0125-0.021-0.0125-6e-3 -0.0367-6e-3 -0.0146 0-0.0311 5e-3 -0.0166 5e-3 -0.0238 8e-3h-5e-3v-0.0444q9e-3 -2e-3 0.0303-6e-3 0.0211-3e-3 0.0423-3e-3 0.0503 0 0.0726 0.0156 0.0224 0.0154 0.0224 0.0485v0.12517h-0.0585z"/><path transform="matrix(.989848 0 0 1.01026 -3.13228e-6 1.54211e-7)" d="m555.957 405.228q0 0.0259-7e-3 0.0436t-0.0206 0.0277q-0.0133 0.0102-0.0321 0.0146-0.0187 5e-3 -0.0423 5e-3 -0.0192 0-0.0378-2e-3 -0.0185-2e-3 -0.0321-6e-3v-0.046h7e-3q0.0108 4e-3 0.0264 8e-3t0.0279 4e-3q0.0164 0 0.0265-3e-3 0.0103-3e-3 0.0157-9e-3 5e-3 -5e-3 7e-3 -0.0134 2e-3 -8e-3 2e-3 -0.0197v-3e-3q-0.0106 9e-3 -0.0236 0.0138-0.0129 5e-3 -0.0288 5e-3 -0.0387 0-0.0596-0.0233-0.021-0.0233-0.021-0.0708 0-0.0228 6e-3 -0.0393 6e-3 -0.0166 0.018-0.0288 0.0108-0.0115 0.0265-0.0179 0.0159-6e-3 0.0324-6e-3 0.0149 0 0.027 4e-3 0.0123 3e-3 0.0223 0.01l2e-3 -8e-3h0.0572zm-0.059-0.0369v-0.0834q-5e-3 -2e-3 -0.0124-3e-3 -7e-3 -1e-3 -0.0133-1e-3 -0.0233 0-0.0349 0.0134-0.0116 0.0133-0.0116 0.0372 0 0.0265 0.01 0.037t0.0295 0.0105q9e-3 0 0.0174-3e-3 9e-3 -3e-3 0.0156-7e-3z"/><path transform="matrix(.989848 0 0 1.01026 -3.13228e-6 1.54211e-7)" d="m556.204 405.168h-0.135q1e-3 0.0216 0.0164 0.0331 0.0152 0.0115 0.0447 0.0115 0.0187 0 0.0362-7e-3t0.0277-0.0144h7e-3v0.0473q-0.02 8e-3 -0.0377 0.0116-0.0177 4e-3 -0.0392 4e-3 -0.0554 0-0.0849-0.0249t-0.0295-0.0709q0-0.0455 0.0279-0.0721 0.028-0.0267 0.0767-0.0267 0.0449 0 0.0675 0.0228 0.0226 0.0226 0.0226 0.0652zm-0.0587-0.0346q-4.9e-4 -0.0185-9e-3 -0.0279-9e-3 -9e-3 -0.027-9e-3 -0.017 0-0.028 9e-3t-0.0123 0.0283z"/><path transform="matrix(.989848 0 0 1.01026 -3.13228e-6 1.54211e-7)" d="m556.436 405.119v0.13041h-0.0593v-0.0919q0-0.0134-6.6e-4 -0.0228-6.5e-4 -0.01-4e-3 -0.0154-3e-3 -6e-3 -9e-3 -9e-3t-0.0167-3e-3q-9e-3 0-0.0169 4e-3 -8e-3 3e-3 -0.0147 7e-3v0.13041h-0.059v-0.18398h0.059v0.0203q0.0152-0.012 0.0292-0.0187 0.0139-7e-3 0.0308-7e-3 0.0182 0 0.0321 8e-3t0.0218 0.0238q0.0177-0.0149 0.0344-0.0234 0.0167-9e-3 0.0328-9e-3 0.0298 0 0.0452 0.0179 0.0156 0.0179 0.0156 0.0514v0.11976h-0.0593v-0.0919q0-0.0136-6.5e-4 -0.0229-5e-4 -9e-3 -3e-3 -0.0152-3e-3 -6e-3 -9e-3 -9e-3t-0.017-3e-3q-7e-3 0-0.0144 3e-3 -7e-3 2e-3 -0.0172 8e-3z"/><path transform="matrix(.989848 0 0 1.01026 -3.13228e-6 1.54211e-7)" d="m556.802 405.168h-0.135q1e-3 0.0216 0.0164 0.0331 0.0152 0.0115 0.0447 0.0115 0.0187 0 0.0362-7e-3t0.0277-0.0144h7e-3v0.0473q-0.02 8e-3 -0.0377 0.0116-0.0177 4e-3 -0.0392 4e-3 -0.0554 0-0.0849-0.0249t-0.0295-0.0709q0-0.0455 0.0279-0.0721 0.028-0.0267 0.0767-0.0267 0.0449 0 0.0675 0.0228 0.0226 0.0226 0.0226 0.0652zm-0.0587-0.0346q-4.9e-4 -0.0185-9e-3 -0.0279-9e-3 -9e-3 -0.027-9e-3 -0.017 0-0.028 9e-3t-0.0123 0.0283z"/><path transform="matrix(.989848 0 0 1.01026 -3.13228e-6 1.54211e-7)" d="m557.039 405.249h-0.0593v-0.0913q0-0.0111-1e-3 -0.0221-1e-3 -0.0111-4e-3 -0.0164-3e-3 -6e-3 -0.01-9e-3 -6e-3 -3e-3 -0.0175-3e-3 -8e-3 0-0.0164 3e-3 -8e-3 3e-3 -0.0179 8e-3v0.13041h-0.059v-0.18398h0.059v0.0203q0.0157-0.0123 0.0301-0.0188 0.0146-7e-3 0.0323-7e-3 0.0298 0 0.0465 0.0174 0.0169 0.0174 0.0169 0.0519z"/><path transform="matrix(.989848 0 0 1.01026 -3.13228e-6 1.54211e-7)" d="m557.221 405.248q-0.01 2e-3 -0.0201 4e-3 -0.0107 1e-3 -0.0261 1e-3 -0.0344 0-0.0513-0.0139-0.0167-0.0139-0.0167-0.0477v-0.086h-0.0242v-0.04h0.0242v-0.0526h0.059v0.0526h0.0552v0.04h-0.0552v0.0652q0 0.01 1.7e-4 0.0169 1.6e-4 7e-3 3e-3 0.0129 2e-3 6e-3 8e-3 9e-3t0.017 3e-3q5e-3 0 0.012-2e-3 8e-3 -2e-3 0.0105-4e-3h5e-3z"/></g></g><g transform="matrix(.914058 0 0 .914058 47.0555 35.1417)" stroke-width=".457926"><path d="m544.391 409.198c-8.6e-4 6e-5 -8.6e-4 6e-5 -2e-3 1e-4v-2.8e-4c-2.9e-4 1e-4 -2.9e-4 1e-4 -5.7e-4 2e-4 -2.2e-4 2.8e-4 -2.9e-4 5.7e-4 -5.7e-4 1e-3 5.7e-4 -2.7e-4 1e-3 -5.7e-4 3e-3 -1e-3z" fill="#35c0ed" stroke-width=".0113599"/><g fill="#b7bec8"><g stroke-width=".0113209"><path d="m544.703 409.114c-0.0649 0.0352-0.13446 0.063-0.20757 0.0825-0.031 0.0346-0.0597 0.0684-0.0768 0.0928h0.12816z"/><path d="m545.139 409.117c0-0.0471-0.0378-0.0853-0.0844-0.0853-0.024 0-0.0456 0.0101-0.061 0.0264h-5e-5l-2e-3 2e-3c-0.0141 0.01-0.0226 0.02-0.0226 0.02l-0.13938 0.14163-0.0974 0.0972-0.79246 5.7e-4c-0.11332 0-0.0579-0.0389-0.0579-0.0389h0.40109c9e-3 0 0.0171-2e-3 0.0242-6e-3 0.0386-0.0139 0.0663-0.0511 0.0663-0.0949 0-0.0557-0.0448-0.0997-0.0998-0.0997-5e-3 0-0.01-5.7e-4 -0.0147 5e-5h-0.44037c-0.36939 0-0.44326 0.25325-0.44326 0.25325l-0.26386 0.39053h0.64317c0.0479-0.14326 0.16951-0.15654 0.16951-0.15654h0.6649c0.12929 0 0.2111-0.0651 0.2111-0.0651l0.0268-0.0278 0.28645-0.29595-1.5e-4 -1.9e-4c7e-3 -6e-3 0.0121-0.0139 0.0164-0.0222 8e-3 -0.0134 0.01-0.0248 9e-3 -0.0345 1.2e-4 -1e-3 2.4e-4 -3e-3 2.4e-4 -5e-3z"/><path d="m544.715 409.288 0.1818-0.18667-1e-4 -1e-4c9e-3 -9e-3 0.0148-0.0213 0.0148-0.0351 2e-5 -0.027-0.0216-0.0489-0.0482-0.0489-0.0138 0-0.0261 6e-3 -0.0349 0.015l-5e-5 -4e-5s-0.19783 0.18694-0.24576 0.25582z"/><path d="m544.385 409.201c8.6e-4 -5e-5 8.6e-4 -5e-5 8.6e-4 5e-5 3e-3 -8.5e-4 3e-3 -8.5e-4 5e-3 -2e-3 -8.6e-4 1e-4 -8.6e-4 1e-4 -2e-3 1e-4v-2.9e-4c-3e-3 8.6e-4 -3e-3 8.6e-4 -5e-3 1e-3 -5.7e-4 1.2e-4 -1e-3 1.7e-4 -2e-3 2.9e-4 -3e-5 7e-5 -5e-5 1.2e-4 -8e-5 1.9e-4 2.7e-4 0 5.7e-4 5e-5 1e-3 5e-5 -5.8e-4 2e-4 -8.6e-4 2.5e-4 -1e-3 2.9e-4 -5e-5 7e-5 -7e-5 1.7e-4 -1.2e-4 2.5e-4 5.7e-4 -5e-5 8.5e-4 -8e-5 1e-3 -1.5e-4z"/><path d="m543.705 407.779 4e-3 -2e-3c1.7e-4 -2e-3 1.7e-4 -2e-3 8.6e-4 -4e-3 -3e-3 2e-3 -3e-3 2e-3 -7e-3 4e-3 1e-3 1e-4 1e-3 1e-4 3e-3 2.2e-4 -8.5e-4 1e-3 -8.5e-4 1e-3 -8.5e-4 2e-3z"/><path d="m544.352 407.417c-8.6e-4 2.8e-4 -8.6e-4 5.7e-4 -8.6e-4 8.5e-4 8.6e-4 -5.7e-4 8.6e-4 -5.7e-4 8.6e-4 -8.5e-4z"/><path d="m544.383 409.2c8.6e-4 0 8.6e-4 0 8.6e-4 1.4e-4 3e-3 -5.7e-4 3e-3 -5.7e-4 5e-3 -1e-3 -3e-3 2.9e-4 -4e-3 2.9e-4 -6e-3 5.7e-4 -5e-5 1.8e-4 -1e-4 2.9e-4 -1.5e-4 5.7e-4 1.2e-4 -4e-5 1.7e-4 -4e-5 2.8e-4 -1e-4z"/><path d="m544.414 407.497c-2e-3 -2e-3 -2e-3 -2e-3 -5e-3 -3e-3 -8.6e-4 -2.9e-4 -8.6e-4 -2.9e-4 -2e-3 -8.6e-4 1e-3 1e-3 1e-3 1e-3 4e-3 3e-3s4e-3 3e-3 6e-3 4e-3c1.2e-4 -5.7e-4 1.5e-4 -5.7e-4 -5.7e-4 -1e-3 8.5e-4 -2.9e-4 8.5e-4 -2.9e-4 1e-3 -8.6e-4 -8.6e-4 3e-5 -8.6e-4 3e-5 -2e-3 -1.5e-4z"/><path d="m544.587 407.403c5.7e-4 2.8e-4 8.5e-4 2.9e-4 1e-3 5.8e-4 -5.7e-4 -1.5e-4 -8.6e-4 -2.9e-4 -1e-3 -5.8e-4z"/><path d="m544.589 407.404c0 5e-5 0 5e-5 -5e-5 1e-4 8.6e-4 2.9e-4 1e-3 5.7e-4 2e-3 5.7e-4 -5.7e-4 -1.9e-4 -1e-3 -2.8e-4 -2e-3 -5.7e-4z"/><path d="m544.478 407.369c-1e-3 -2.9e-4 -3e-3 -5.7e-4 -4e-3 -8.6e-4 5.7e-4 1.7e-4 1e-3 2.9e-4 2e-3 5.7e-4 8.6e-4 1.5e-4 8.6e-4 1.5e-4 2e-3 2.9e-4z"/></g><g transform="matrix(.024765 0 0 .0247348 542.909 407.298)" stroke-width=".457926"><path d="m59.577 77.048c0.747261-0.212961-0.496893 0.09417 0 0z"/><path d="m32.09 19.508c0.527059-0.280741-0.157375-0.255818 0 0z"/><path d="m58.264 4.891c-0.01233 0.013-0.01233 0.013 0 0z"/><path d="m59.493 76.996c0.477075-0.0078 0.06321-0.106415 0 0z"/><path d="m60.75 8.116c-0.72446-0.420124 0.356448 0.24843 0 0z"/><path d="m67.766 4.311c0.017 0.00633 0.017 0.00633 0 0z"/><path d="m89.438 53.882c0.665223-1.5207 1.44025-5.46343-1.10082-3.04619-3.43925 1.41766-3.3808-4.68252-3.01238-6.88511 0.730163-2.56997 2.3208-6.16152 3.67565-7.78313 1.37551-0.353316 2.87429-1.04177 2.61394 1.47825 1.16576 2.75977 0.168268-3.71407-0.134468-4.75543-1.25189-3.89933 1.36317 5.79762-0.159546 0.701636-1.52292-4.81553-1.13643 4.52647-3.5421 1.23421-0.250393-1.86982-0.787099-3.93474 1.3834-3.49293-0.696866-2.26381-1.0868-2.2785 0.07032-3.62929 0.71531-0.588218-0.739203-3.98233 0.286536-1.17123 1.25739 2.4347-1.05329-3.85474-0.929536-2.05877-0.524241-1.33498-0.750753-1.73062-0.885-2.415-1.11487-2.58019-3.22841-5.36608-5.2298-7.64008-0.710801-0.977044-4.85474-4.68564-2.74132-2.61439-1.04513-0.870681 1.15269 1.31284-0.169234 0.409199-1.96391-1.22374 1.11402 1.33679 0.981345 1.72527-0.277218-0.09923-2.3804-2.1539-0.876-0.624-1.45576-0.202254 2.7122 1.70306-0.716171 1.16904-0.636967-0.162066-1.73515 0.766583-2.67668 0.64311-0.50964 0.823447-0.770519 1.40238-1.06431 2.46853-0.211116 1.51331-0.924219-0.495938-1.50152-0.152325-1.07714-0.326571-1.64141-2.59995-1.4275-2.71724 0.955279-0.602387-1.51137-0.194557 0.0082-0.895112-1.63871-0.343078 0.733069-0.635315-0.869-0.866 0.759035-0.250166-0.656328-0.729406 1.11338-0.348839-1.84918-0.89863-0.483051-0.07124-0.280382-0.659161-0.150656-0.0545 0.919191-0.936293-0.998931-1.72537 2.5431 1.04509-0.434676-0.898426-0.188802-0.890285 0.29895-1.09865-1.16539-3.06838-3.04559-3.2904-1.85789-0.636861-0.733071-0.839651-0.04301-0.640012-2.41904-0.910245-0.589743-0.730898 1.02733-0.42593-1.69344-0.716643 1.71702 0.402642-0.840885-0.470863-1.99187-0.370839-2.38436-0.475363-2.63836-0.467045 1.54642 0.984737-3.65517-0.352408-1.03704 0.788206-1.08769-0.137882-4.75265-0.92519-2.41772-0.974297 0.42129-0.403584 2.15351 0.739092 0.965-0.09-1.84382-0.630829 2.30662 0.233184 0.523508-0.31768 0.293659-0.398321 4.44699 0.929154 1.01949-0.11232-1.34072-0.401635 1.25796 0.259498-1.14631-0.327136 1.58443 0.349294-2.0599-0.670091-0.278851 0.106538 0.467942 0.783301-4.08365-0.300706-1.11584 0.0036-2.78845-0.783662 2.11883-0.206337-1.48163-0.775404-16.0949-2.98687-33.4237 5.95566-40.4068 20.7489-6.80425 13.7319-4.28761 31.5156 6.44157 42.5535 2.16515 2.30889 4.61706 4.3493 7.2849 6.05302 7.34791-0.347891 14.7325-0.255566 22.0722-0.08421 3.64437 2.19742 3.16506-4.06212 2.27614-5.87499-2.92694-1.01071-4.52398-4.16827-5.83729-6.5868 1.2353-1.00473-0.509345-2.88815 1.85835-3.7158 1.20167-1.39646-0.104818-5.1174-1.7774-2.89658-2.64474-1.06349-3.84766-3.77806-6.83487-4.50436-2.43898-0.897197-7.40298-1.19074-7.17719-5.27741-1.74148-1.1709-2.5391-6.08152-3.83181-5.63178-0.181715 1.49708 2.78306 5.23875 1.49112 5.19941-2.12896-2.23426-1.41339-5.90737-4.00013-8.11817-0.847669-2.86681-0.71619-6.21733 1.228-8.69721-0.271785-1.82641 2.19696-1.66995 0.384358-3.57139-1.48498-0.434107 1.07411-1.95731-0.423521-1.57845-0.0054-1.07784 0.799812-3.18666 0.05079-2.10088-0.161993-0.181037 0.79894-4.39039-0.160695-2.59138-0.731774-0.590792-0.355518-1.23006-2.30054-1.81783 0.645995-1.16414-4.06763 3.05281-1.25546 0.161526 1.88053-1.69112-2.27079 1.58856-2.53165 2.27698-1.2752 1.24216-5.00853 4.44818-1.84735 1.38632 1.42329-1.22129 2.14507-2.36612 0.790223-1.70623 0.398615-0.944317 0.766572-2.21907 2.82429-3.56322 1.0201-0.744751 1.74782-1.51754 0.153741-0.663555 1.60652-1.65981 2.36338-1.38311 3.83156-3.22718 1.96626-0.984674 3.85132-2.7054 4.49752-1.94024 2.80583 0.370349 3.40014 0.481073 5.69067-0.30657-1.41492 0.530559-3.02501 1.1119-0.729832 0.394542 2.31976-0.826961 1.49098-0.00522 4.10983 0.535458 1.84152-0.00935-1.00102 1.61222 1.89023 0.97848 0.670525 1.84901 0.892198-0.064716 2.32661-0.427846-2.51502 0.380058 0.523904-0.591815 1.0161 0.930137 2.13428 0.124405 2.63685-0.451402 2.48858 0.7145 1.22006-0.871344 2.13358-1.43682 1.3042-2.51642 2.8607-2.25676 0.03683 2.76268 2.32373 1.50393-0.962744 3.56795 2.86478-2.33318 2.81179 0.872692-0.402397 0.341954-1.2312 1.90373-1.90443 1.00549-0.212367 0.568475-2.74904 0.862164-2.9113 0.440274 3.59569 1.40592-3.12384 1.44361-1.40562 1.5489-0.04369 0.875165-2.57864 1.36463-3.12726 3.71358 1.06327 0.754116-0.06763 2.02359 2.17716 1.73881 1.13684 1.99431 4.10048 0.997849 2.67233 3.92746 1.88705 2.96569 0.859942-1.70484 2.76693-2.27923 1.68016-0.697874 3e-3 -3.03837 1.12685-4.07232-0.507251-3.0097 5.12579 0.205352 3.21194 0.939339 0.08263 2.23106 2.13368 1.33523 2.98354 0.497389 0.5554 1.5438 0.553637 3.68282 1.76877 4.17741 1.93393 0.319791-2.50656 1.67838 0.485982 0.627668 2.79396 1.60701-2.08876 3.38738-3.89394 2.33213-1.38097-0.121219-5.12194 3.85883-2.25864 1.24188 1.69994-0.556172 2.67952-0.0421 1.81252 0.732911 0.225654 1.96278 3.21111 1.6207 0.206069 2.49565-2.6081 1.02698 1.95915-1.8815-1.03814-0.688802-1.94127 0.07664-2.36916 2.12952-3.456 2.665-1.972-0.445514-2.16289 3.55935-2.876 2.037-0.597282-1.00094 0.703673 3.18627-1.43801 3.2506-3.62413 0.752494-0.835081 4.59557-2.50291 5.92583-0.327142-2.65936-2.11625-4.35455-4.81308-3.25344 0.199174 1.23814-4.61358-0.856627-4.53396 2.12951-1.86635 2.5433 1.15334 8.16349 3.49167 4.35777 2.31036-2.29595 2.33339 0.767986 1.23313 1.6423-0.706863 2.5673 4.96374 0.102925 2.5692 3.44013-0.207141 2.40051 3.68293 2.06474 4.5232 1.58628 1.98988-3.16818 3.03216-0.02064 2.7097-0.454624 1.12606-2.40101 3.01436 1.11824 5.22203-0.362486 1.08957 2.96189 5.84881 1.62698 6.66503 4.84712-1.73115 2.18095-0.453669 0.514989 0.612121 1.24544-2.46188 2.17766 1.71042-1.65181 1.91788 0.736557 2.96784-1.24684 5.94086 1.89819 2.61 4.083-1.04224 2.70446-2.53838 5.13132-5.51125 6.32819-0.262249 1.53013-2.25468 2.98132-1.72846 2.2745-0.202135 2.44678-4.21067 0.924623-2.55632 2.46658-2.42289 1.37234-3.27166 1.63374-4.17582 2.92202 0.422982 0.408956-0.522419 1.16022-1.62282 1.68211 13.1697-1.53596 24.9939-11.0208 29.8367-23.3054zm0.723-3.302c0.171492-0.482175-0.132754 0.419248 0 0zm1.012-18.647 0.0627 0.266754zm0.073 0.293 0.03199 0.108838zm0.048 0.183 0.02285 0.06783zm0.227 2.857c0.555081 0.17795 0.03983 1.13747 0 0zm-0.516-1.663c0.513153 1.49042-0.363497 0.95656 0 0zm-0.165-0.878c0.178308-0.320047-8.05e-4 1.804 0 0zm-1.733-7.281 0.02188 0.03197zm0.795 1.393 0.04049 0.111077zm-0.293-0.214-0.02965-0.06905zm0.157 0.224-0.113029-0.200689zm-0.241-0.678c0.211213 0.191842 0.239295 1.03756 0 0zm-0.08 0.072 0.185221 0.366067zm-1.343-2.859 0.0034 0.03482zm-0.136-0.352 0.04235 0.0915zm-0.22-0.436 0.01571 0.07124zm-0.125-0.488-0.03924-0.06352zm-0.08-0.426 0.05713 0.09611zm0.096 0.206c-0.150931 0.04438 0.06911-0.231106 0 0zm0.032 0.027-0.03276-0.06981zm-0.046-0.15 0.01332 0.03688zm-0.048-0.102-0.02303-0.02797zm-0.013 0.392 0.0058 0.03592zm-0.564 0.884 0.03033 0.100678zm-0.207 0.433c0.298363-0.147548 3.31132 5.52236 1.02784 4.20922 0.504215-1.06659-0.828626-2.7038-1.02784-4.20922zm0.792 2.738c0.05276-0.299316 0.124317 0.297145 0 0zm-0.376-1.211-0.0702-0.163015zm-0.13-0.218 0.03356 0.209874zm-0.163-0.482c0.111307 0.211614-0.182892-0.0813 0 0zm-0.071-0.045-0.02649-0.07015zm0.087 0.356c0.298154 0.316693-0.194319 0.02511 0 0zm0.05 0.055-0.0017-0.123444zm-0.371-1.104 0.146713 0.269763zm-0.213-0.419c0.402042-0.329929-0.04096 0.692539 0 0zm0.083 0.446 0.0389 0.18473zm-0.067-0.169 0.06634 0.07817zm-0.139 1.691c1.66186-0.940899 0.644876 3.66532 0.105911 0.527293l-0.0087-0.151453zm-7.209-13.9-0.0566-0.05049zm0.081 0.082 0.08807 0.06358zm0.169 0.149-0.05537-0.05066zm-0.05-0.055 0.05737 0.04545zm0.74 1.034-0.273539-0.240283zm-0.15-0.279-0.05689-0.08481zm0.309 0.277-0.04406-0.05623zm-0.722 0.117-0.0076-0.04167zm0.099 2e-3c-0.660577-0.728006 1.03922 0.729074 0 0zm0.673 0.693c-1.33774-0.981929-0.148049-0.394705 0 0zm0.068-0.826c-0.962894-0.551788 0.186204-0.232272 0 0zm-0.446 1.108-0.06894-0.07521zm-0.153 0.211 0.08661 0.05954zm0.203 0.052c-0.892653 0.01939-0.421732-0.896592 0 0zm-7.39 2.13c0.134157 0.117868-0.18142 0.05278 0 0zm-0.251-1.147-0.126703 0.06162zm-0.115-0.05c0.237038 0.04068-0.346302 0.147394 0 0zm0.176-3.515 0.04071 0.145451zm-0.088-0.502c0.0246 0.195381-0.243467-0.24316 0 0zm-0.216-0.238c0.323924 0.04004 0.02653 0.297131 0 0zm-0.209-0.324c0.449953 0.114272-0.245667 0.262451 0 0zm-0.108-0.22c0.421563-0.00237-0.228464 0.207882 0 0zm-0.138 0.166c0.379453 0.27954-0.385441 0.115337 0 0zm-3.166-5.364 0.12648 0.0581628zm-5.441-1.231c1.14964 0.043529-0.23204 0.12723 0 0zm-1.334-0.759 0.03371 0.014503zm-7.876 49.423c0.234058 0.0064-0.150339 0.261653 0 0zm-1.667 0.531c0.247398 0.252518-0.230413 0.202759 0 0zm-16.92-13.959c-0.586369-0.687895 0.319809-0.174618 0 0zm0.531 0.217c-0.413092-0.08082 0.328222-0.421856 0 0zm-3.085-3.842c0.431554 0.118968-0.443272 0.07792 0 0zm-0.275 9e-3c0.35773 0.13385-0.181573 0.195072 0 0zm1.995-11.031c-0.137282 0.425097 0.0264-0.659638 0 0zm-0.06-0.407c0.256236-0.06016-0.190671 0.173643 0 0zm-0.06 0.15c0.151593-0.109307-0.07129 0.181825 0 0zm-0.613-7.788c0.238293-0.214779-0.09486 0.242781 0 0zm0.505 7.734c0.06014-0.170335 0.110521 0.251702 0 0zm-4e-3 -0.266 0.01402 0.08417zm-0.063-0.596c-0.277889 0.256945-0.115513-0.7537 0 0zm-0.134-0.426c-0.175613 1e-3 0.207073-0.162939 0 0zm-0.011-0.185-0.09056-0.0044zm-0.101 0.09c0.222769 0.102255-0.276863 0.174129 0 0zm-0.085-0.179-0.04989 0.05851zm-0.273-0.233c0.283904-0.06509-0.252633 0.140946 0 0zm-0.067 0.159c0.282202-0.05114-0.270088 0.09132 0 0zm-0.17 0c2.13559 2.09744-0.729289 1.59244-0.484-0.223 0.217206-0.21457 0.270683 0.251644 0.484 0.223zm-0.108-2.096-0.01359-0.125798zm5e-3 0.475c0.166864 0.02538-0.18079 0.106331 0 0zm-0.031-0.341-0.03348 0.253099zm0.045 1.004c-0.07132 0.651057-0.07498-0.23472 0 0zm0.303-0.412c0.721994-0.612285-0.300697 0.492388 0 0zm-0.094 0.028c-0.05838 0.163501-0.07024-0.159044 0 0zm-0.088 0.188c-0.332066 0.31014 0.07794-0.351925 0 0zm-0.036-0.223 0.0024 0.07425zm-0.018-0.287c-0.276007-0.104391 0.333043-0.175119 0 0zm0.252-0.953c0.341165 0.06878-0.5646 0.365618 0 0zm-0.172 0.438c0.353854 0.363017-0.34405 0.243464 0 0zm-0.056-0.133-0.02449 0.09855zm-0.045-0.244c-0.10977 0.633142-0.232121-0.695168 0 0zm-0.072-0.73c-0.08017-0.222756 0.321156-0.04807 0 0zm-5e-3 -0.344c0.144032-0.246717 0.08177 0.189033 0 0zm0.192-0.539c0.685571-0.736132-0.192966 0.785881 0 0zm-0.067 0.279-0.123022 0.174579zm-0.07-0.158c0.20472 0.146157-0.200377 0.196833 0 0zm-0.039-0.705c0.246555-0.507171 0.259678 0.227357 0 0zm0.072 0.12c0.335648-0.510244 0.02809 0.290231 0 0zm0.067 0.162c-0.265945-0.142542 0.442173-0.174334 0 0zm0.242-0.278-0.09793-0.257707zm-0.036-0.404c0.08614 0.569232-0.563093 0.017 0 0zm-0.123-0.181c-0.262582 1.1046-0.562039-0.180729 0 0zm-0.095-0.716c0.857223-0.616182-1.05595 1.72696 0 0zm-2.513-1.938c0.265317 0.117958-0.32171 0.242117 0 0zm-0.241-0.21c0.190577-0.266174 0.0327 0.215524 0 0zm-0.141 0.364c0.533959-0.552004-0.400034 0.476923 0 0zm-0.26 0.235c0.177594 0.09077-0.414998 0.174122 0 0zm-0.055 0.195c0.966756-1.18516 0.409738-0.105238 0 0zm-0.812-0.376c0.284641-0.04657-0.527367 0.374791 0 0zm-0.959 0.866 0.04699-0.0021zm-1.172 1.868-0.0556 0.0236zm0.941-1.302c0.259169 0.01384-0.288536 0.190848 0 0zm-0.373 0.385c0.840927-0.538705-0.06168 0.376194 0 0zm-0.069 0.08c0.178695 0.107444-0.161928 0.145935 0 0zm-0.972 1.187c0.474619-1.12894 1.76032-1.3071 0 0zm-0.048 0.142c0.159737-0.04224-0.192551 0.168459 0 0zm-0.74 0.147-0.04531 0.05637zm-1.436 1.594 0.03571-0.05926zm0.133-0.172 6.08e-4 -0.04196zm0.057-0.181c0.103318 0.164308-0.353897 0.147689 0 0zm-0.163-0.026-0.02263 0.06456zm-0.127 0.089c0.201351-0.331504-0.04012 0.248583 0 0zm0.027 0.152c0.731664-1.03585-0.254519 0.486605 0 0zm-0.477 0.208c0.170206-0.213888-0.100549 0.211673 0 0zm-0.186 0.052c-0.823054 1.04078-0.09336-0.248353 0 0zm2.405-4.039-0.402719 0.313621zm1.569-2.286c-0.372978 0.702969-0.471748-0.104785 0 0zm0.347 0.189c-0.412128 0.04212 0.884725-0.739982 0 0zm0.26-0.27c-0.0225-0.248793 0.659129-0.375869 0 0zm0.725-0.647c0.260712-0.161868-0.199538 0.247009 0 0zm-0.045-0.495 0.04823-0.05381zm2.79-1.877c0.166905-0.00367-0.246043 0.114629 0 0zm17.872-1.806-0.04481 0.049619zm7.406-0.351-0.04348-0.052814zm0.184 0.458c-0.205608-0.085599 0.163689-0.142174 0 0zm1.414 2.567c0.777749 0.377591 0.240735 0.647639 0 0zm-0.325-6e-3c0.36078 0.29191-0.406209 0.641156 0 0zm-1.411 10.552c-1.2218 0.117916-0.243794-0.844616 0 0zm1.732-7.78c-1.31213 0.975004-0.79052-0.68974 0 0zm0.098-0.767c-0.1379-0.867846-2.80806 1.02384-1.37381-1.10299 0.181354-2.28786 3.62404 2.50015 1.37381 1.10299zm0.945 1.219c-0.764201 1.66908-0.397605-0.999645 0 0zm1.041-0.506c-1.31257-0.395159 0.622335-0.549299 0 0zm7.243-1.813c0.316657 0.0134-0.248745 0.194643 0 0zm-0.448-0.437c0.16604 0.247421-0.311602 0.04336 0 0zm-0.604-6.161 0.164212 0.076764zm-0.394-0.104 0.274927 0.131462zm-0.22-0.617 0.09584 0.048731zm-1.354 3.498c0.163116 0.117294-0.171218 0.087699 0 0zm-0.138 0.095c0.413756 0.136726-0.311654 0.121911 0 0zm-0.652-2.996c0.396148 0.245564-0.89572 0.050127 0 0zm-0.431 1.409c1.01123 1.82063-2.63647-1.13619 0 0zm-0.786 0.542c-0.201445 0.073038-0.0108-0.267968 0 0zm-0.441-0.187c0.225875 0.033273-0.106237 0.221276 0 0zm0.953-1.921 0.05461 0.035324zm-2.49-1.209c0.593306-0.265178 0.238163 0.487518 0 0zm-0.086 0.06c0.256686 0.060969-0.150547 0.074815 0 0zm-0.07 0.179c0.67305 0.200457-0.302527 0.229073 0 0zm-0.126 0.084c-1.58968 0.514904 2.79068 0.663814 2.85 1.581-1.26155-0.128962-3.54159-0.207014-3.96038-1.19738 0.353-0.510364-1.30069-1.25941 0.401384-0.555617 0.212281 0.169706 0.524013-0.047412 0.709 0.172zm-1.879 0.677c-2.05818-0.230151 0.62255-0.972593 0 0zm-0.649-0.602c-0.06684 0.253328-0.320549-0.179562 0 0zm-0.105-0.054 0.07084-0.00701zm0.179 0.037c0.498949 0.00596-0.248612 0.14705 0 0zm-0.028-0.075 0.1464-0.0144856zm0.762 0.014c0.01787 0.350534-0.313468-0.085952 0 0zm-0.079-0.571-0.103334-4e-3zm-0.054 0.17-0.107195 0.011685zm1.601-0.082c-2.97494-0.292744 0.554689-0.239628 0 0zm0.053-0.308 0.0497 0.030482zm-0.35-0.657c0.295745-0.130712 0.973725 0.381194 0 0zm-0.677 0.494c0.773667-0.70854 1.48207 0.832465 0 0zm-1.785-0.444c0.878363-0.5426 2.44258 0.755891 0.09073 0.076481zm0.337 0.383c-0.512205-0.351686 0.808909 0.14811 0 0zm0.036 0.403c-0.04121 0.159998-0.231145-0.227509 0 0zm-0.088-0.621 0.151387-0.03347zm-0.644 0.562c1.27336-0.00316-0.364518 0.034363 0 0zm-0.155 0.12c1.25232-0.257211 1.29663 0.912415-0.398 0.542 1.50143-0.343696-1.37436 0.05523 0.398-0.542zm-0.365 5e-3 -0.481747 0.00574zm-0.011-0.397 0.162445-0.00512zm-0.578 0.463 0.482194 0.041349zm-4e-3 0.105 0.489366-0.00677zm0.084 1.112c1.04717-0.109375 0.893312 0.224325 0 0zm0.266-0.907 0.07083-8.659e-4zm0.215 0.018 0.193964-0.00306zm-0.049-0.968c0.537907-0.563565 0.167927 0.548973 0 0zm-0.058 0.387-0.273156 0.0310294zm-1.369-0.948c1.56948-0.14737 1.38443 0.43289 0 0zm-0.602 0.163c2.03736-0.30506 0.140824 0.646688 0 0zm1.033 1.384c-0.694948 0.389547-0.224458-0.433972 0 0zm-1.369-1.423c0.32705-0.26452 0.351205 0.245308 0 0zm-0.181 1.042c1.1526-1.18273 0.126276 0.296101 1.32504 0.033882-0.634659 0.614834-5.40106 0.340042-2.31861 0.092977-3.02219 0.211034-0.803433-1.12203 0.993573-0.126859zm-0.691 1.306c1.16326-1.57325 0.88161 1.54033 0 0zm-0.22-0.248-0.195165-0.014824zm-2.095-1.27c0.245602-0.471094 1.60766-0.082234 0 0zm2.633-0.501c-0.0704 0.252644-0.580469-0.221173 0 0zm-3.19 0.093c1.14398-0.339106 4.6553-0.549329 1.568 0.073 0.889776-0.621112-1.99434 0.584574-1.568-0.073zm0.205 0.181-0.102235 0.041325zm-0.414-0.039-0.069961 0.0112425zm-6e-3 -0.061c0.265346 0.016003-0.258085 0.021784 0 0zm-3.412 2.605c-2.28327-0.39876 3.0589-2.72073 3.523-1.27-1.10852 0.533747-2.46288 0.53264-3.523 1.27zm0.671 1.845-0.0013-0.024608zm0.728 0.826c-0.423537 0.13871 0.196129-0.164268 0 0zm0.259-0.378c-0.211035 0.029593 0.111327-0.13163 0 0zm0.884 0.4c-0.0024 0.196886-0.3036-0.098191 0 0zm3.626-0.221c-0.508858 0.163155 0.282059-0.51096 0 0zm-0.119-0.554c0.347915-0.118813-0.08537 0.314773 0 0zm0.382-0.255c-1.79858-0.157358-0.4299 1.32044-2.66411 0.108978-2.55909 1.87528-5.32787-1.70355-1.25459-0.785427-1.03452-0.566622-2.81825-0.576411-0.449299-0.941552-2.87422-0.430386 3.21676-1.6122 1.87788-0.447902 1.80222-0.757286 0.300973 1.80059 1.99422-0.440833 1.3005 0.447103-0.964392 1.7185 0.495895 2.50674zm1.83 1.089c-2.90461 0.720424-0.64885-2.08611 0 0zm-0.18-0.492c0.02673-0.426222 0.213478 0.261784 0 0zm0.259-0.094c0.523236 0.240588-0.481346 0.236197 0 0zm1.316-1.891c-2.10222 1.21762-2.19339-0.873456-1.05874-0.910902 2.4227-0.570076 0.129083 0.513993 1.18803 0.741313zm0.094-0.377c-0.274508-0.214696 0.437484-0.070784 0 0zm0.069 0.023-0.172395 0.061725zm-0.023-0.195 0.06733-0.014458zm0.558 2.984c-0.136357-0.177075 0.226046-0.074968 0 0zm0.67-2.414c-3.35449 0.679716 2.714-1.96071 0.558-0.111l-0.271987 0.152378zm0.398 3.513c-0.4539 0.95848-0.144212-0.731082 0 0zm0.786-1.302c-0.845626 0.00115-0.0549-0.427753 0 0zm1.014 0.35c-0.290435-0.125187 0.218421-0.069851 0 0zm0.186 0.043c-0.103135-0.121429 0.233451 0.022238 0 0zm0.252 0.044c-0.436495-0.130892 0.235883-0.046151 0 0zm0.171 0.278c0.153066-0.148375 0.223283 0.239516 0 0zm0.56 4.59c-0.469684 0.250179-0.341282-0.786891 0 0zm0.819 0.78c-0.66199-0.376803 0.644597 0.168028 0 0zm1.771 0.321c-0.827526-0.43222 0.323825-0.208654 0 0zm2.273 1.383c-0.790292-0.245951 0.400395-0.476659 0 0zm-0.1-0.47c0.262985-0.271528 0.211062 0.76284 0 0zm0.454-0.368-0.171006 0.0088zm0.028-1.03c0.215468-0.295978 0.125211 0.444296 0 0zm0.199 0.311c-0.0401 0.529203-0.06726-0.46975 0 0zm1.112-1.329c-0.308513-0.05751 0.132182-0.179681 0 0zm0.527-0.562c-1.52562 1.5853-1.44828-0.618569-2.78066-0.269453 0.283367 0.641922 1.75228 3.93563-0.400337 1.71345-0.585999 0.08447 1.54458 2.32483-0.870478 0.691375-0.955717-1.91627-2.14603-1.63454-3.29735-2.29695 1.4254 0.113113 1.90317-0.42839 2.68108-0.782308 1.47987 1.11046 1.15111-0.373748 0.17166-0.310639 0.903651-1.06456-1.72484-2.22303-1.82387-2.84481-1.57601 0.59072-4.06046-0.815056-3.47248-1.37745-0.06177-1.61812 3.84751-1.51102 1.56953-0.344166-0.301802 1.90364 0.421143-1.16534 1.67075-0.584607 0.602878 1.3944 0.770093 1.09169 2.34162 1.42835-1.10537 0.671794 1.77002 0.583058 0.669287 1.16946 0.334207 0.279939 2.09611 0.344769 0.558249 0.773743 0.912696-0.240152 1.30191 0.995318 0.598215 0.605621-0.07613 1.00426 1.55057 1.63741 2.38478 2.42838zm-1.8 1.23c0.0058 0.160898-0.13108-0.108851 0 0zm-0.096-0.277c-0.164436 0.286502-0.147663-0.158151 0 0zm-3.892-3.434c1.74294 0.481394-1.77349 1.03099 0 0zm-0.049-0.661c0.312908-0.565908 0.359267 0.54085 0 0zm-0.283-0.296c-0.452758-0.066741 0.550531-0.183784 0 0zm-0.058 0.096c-0.81577 0.722873-0.693216-0.113562 0 0zm-0.64-0.335c-0.693417-0.117696 0.639232-0.040887 0 0zm1.968 1.515c0.64528 0.709887-0.964663-0.277474 0 0zm-0.03-0.217c0.163349-0.069032-0.01326 0.201543 0 0zm-0.259-7e-3c-0.576423-0.554882 0.439564-0.22651 0 0zm2.062-1.457c-0.330506 0.270326-0.377291-0.350299 0 0zm1.241 1.251-0.09823-0.00633zm-0.144-0.077c-0.102735 0.201607-0.324067-0.213216 0 0zm0.278 1.086-0.08758 0.01095zm-7.998 19.929c0.884464-0.469925 1.70716 0.116845 0 0zm-4.222 12.759 0.511932 0.417452zm-0.907-1.84-0.04268 0.07363zm-0.11 0.117-0.07142 0.05551zm2.178 4.707c-2.35658 0.25619-0.375419-1.08808 0 0zm0.939-1.437c-1.84651 0.269093-4.1968-2.34314-5.69074-1.41247 1.44-1.63635 5.1156 0.71586 5.69074 1.41247zm3.788 1.014c-1.68839 0.41892-4.24369 0.358583-2.71253-0.490656-0.282482-1.13213 2.37847-0.0599 2.71253 0.490656zm-2.932-0.278c0.284446-0.299886 0.344463 0.634706 0 0zm4.364 0.527c-1.37479 0.632141-0.597709-0.997624 0 0zm3.743-19.276c-1.67895 0.135427-0.296042-0.81006 0 0zm0.248-2.042c-2.725-1.13587 1.28988-0.33142 0 0zm1.122 2.434c-1.46164 0.896338-0.119858-1.66488-0.296838-0.282567zm3.507-19.674 0.323245 0.137971zm-0.436 48.228c0.315455-0.165014-0.161706 0.310965 0 0zm-0.445 0.717c-0.30845 0.160373 0.155635-0.198668 0 0zm-0.041-0.118c-0.511858 0.432326 0.560779-0.544493 0 0zm0.235-0.211c-0.173241-0.144896 0.214236-0.08144 0 0zm0.066-0.16c-0.0094-0.369548 0.206893-2e-3 0 0zm0.171 0.115c-0.366712-0.275339 0.637006-0.01361 0 0zm0.4 0.086c-0.528422 0.258715 0.105881-0.386286 0 0zm0.108-29.513c-1.21018-0.226562-1.3666-0.35705-3.06701-1.09243 1.14672-1.63346 2.13183-2.69294 1.69301-1.28457 1.03792 1.2877 1.11724 1.19731 1.374 2.377zm0.597-17.581c0.253757 0.053644-0.382681 0.024587 0 0zm-0.071-0.164 0.05177-0.020129zm0.084-0.302c0.221205 0.08564-0.170224 0.050441 0 0zm9e-3 0.134c0.358097 0.114498-0.425739 0.158737 0 0zm-0.265-0.55c-0.362251-0.047556 0.06588-0.173855 0 0zm0.189 0.395-0.101228-0.032439zm-0.083 0.666 0.130351 0.042381zm0.523 3.423 0.08154 0.04732zm0.05 0.099-0.0985-0.0075zm-0.1-0.199-0.08018-0.02141zm0.035-0.478c-0.270474 0.06464 0.08823-0.205329 0 0zm0.232-0.376c-0.275989-0.104054 0.305817-0.02703 0 0zm0.056-0.089c-0.324982-0.06318 0.23526-0.108115 0 0zm0.227 0.011-0.08683-0.03233zm-0.072-0.071c-0.461863-0.133478 0.399659-0.01231 0 0zm0.215 0.094c-0.298635 0.0048 0.179614-0.112952 0 0zm-0.99-1.537 0.116197 0.123742zm0.106 0.689c-0.01162-1.37791 1.45653 1.03753 0 0zm0.082 1.87c-0.07396-0.188243 0.284055 0.03433 0 0zm0.195 0.635c-0.257559-0.07048 0.197034-0.124082 0 0zm0.06 0.247c-0.137195-0.125998 0.169479-0.03974 0 0zm0.752 1.911 0.0464-0.05004zm0.562 1.353 0.09301-0.02833zm0.149 0.051-0.01978-0.04929zm0.322 0.525c-0.412452-0.101756 0.130668-0.214517 0 0zm0.446-0.02c-0.213186 0.02143 0.08567-0.180932 0 0zm0.244-7e-3 -0.08755-0.0054zm0.343 0.588c-0.514468 0.220213 0.461818-0.486413 0 0zm0.429 0.235c-0.101181-0.352808 0.235327 0.209393 0 0zm0.194 0.18c-0.35483 0.08613 0.06079-0.291161 0 0zm0.065-0.15c-0.37588-0.03025 0.08068-0.182046 0 0zm0.308-0.491c-0.155161-0.14247 0.182648-0.02271 0 0zm0.288-1.158c-0.623613-0.203963 0.159236-0.147004 0 0zm0.282-0.397-0.189162-0.17317zm0.268-0.672c-0.418517-0.456131 0.03346-0.373628 0 0zm-16.086 61.335 0.06395 0.05415zm-0.401 0.126-0.486914 0.04613zm0.196 0.035 0.04056-0.0151zm-2e-3 -0.015 0.07456-0.0098zm0.266-0.016 0.114382-0.01291zm0.223-0.044-0.07298 0.01072zm0.788-0.117c-1.43741 0.305074 0.76142-0.203362 0 0zm0.191-8e-3 -0.04457 2.33e-4zm0.585-0.162c-2.30692 0.39337-1.99055 0.358018-1.549 0.15-0.646347-0.123489 1.38627-0.127322 1.549-0.15zm0.483-0.097 0.0099-0.0027zm14.683-61.461c-0.402905-0.156698-0.02387-0.294925 0 0zm0.171 0.061c-0.268374-0.2152 0.166701-0.05042 0 0zm6.462 3.005c-1.98571 0.846235-2.07825-1.32812-2.5294-1.67104 0.203857 0.237583 2.11103 0.366076 2.5294 1.67104z"/><path d="m67.837 4.338c-0.03045 0.047708 0.206888 0.025108 0 0z"/><path d="m63.357 2.933c-0.36472-0.100203-0.08315-0.00642 0 0z"/></g></g></g></g></svg>
