<svg width="300" height="108.2265" preserveAspectRatio="none" version="1.1" viewBox="543.112 406.8246 23.14656 8.350236" xmlns="http://www.w3.org/2000/svg"><style>.companyName {fill:#08376B;fill-opacity:1;}.icon1 {fill:#35C0ED;fill-opacity:1;}.icon2 {fill:#9AEBA6;fill-opacity:1;}.icon3 {fill:#2F90B0;fill-opacity:1;}.icon3-str {stroke:#2F90B0;stroke-opacity:1;}.shapeStroke-str {stroke:#08376B;stroke-opacity:1;}.text {fill:#08376B;fill-opacity:1;}</style><g transform="translate(.0002011714 -.03163665)"><g transform="matrix(2.449677 0 0 2.449678 -787.3368 -589.8104)"><g fill="#08376b" stroke-width=".0519003" aria-label="FairDM"><path d="m547.2612 407.74h-0.69672v0.3886h0.59864v0.16285h-0.59864v0.6634h-0.1832v-1.3777h0.87992z"/><path d="m548.1728 408.9548h-0.17302v-0.1101c-0.0154 0.0105-0.0364 0.0253-0.0629 0.0444-0.0259 0.0185-0.0512 0.0333-0.0759 0.0444-0.029 0.0142-0.0623 0.0259-0.0999 0.0352-0.0376 0.01-0.0817 0.0148-0.13231 0.0148-0.0931 0-0.17209-0.0308-0.23686-0.0925-0.0648-0.0617-0.0972-0.14031-0.0972-0.23594 0-0.0783 0.0167-0.14157 0.05-0.18968 0.0339-0.0487 0.082-0.087 0.14434-0.11473 0.0629-0.0277 0.1385-0.0465 0.22669-0.0564 0.0882-0.01 0.18289-0.0173 0.28405-0.0222v-0.0268c0-0.0395-7e-3 -0.0722-0.0213-0.0981-0.0136-0.0259-0.0333-0.0463-0.0592-0.0611-0.0247-0.0142-0.0543-0.0238-0.0888-0.0287-0.0345-5e-3 -0.0706-7e-3 -0.10826-7e-3 -0.0457 0-0.0965 6e-3 -0.15266 0.0185-0.0561 0.0117-0.11412 0.029-0.17395 0.0518h-9e-3v-0.17672c0.0339-9e-3 0.083-0.0194 0.14711-0.0305 0.0641-0.0111 0.12736-0.0167 0.18968-0.0167 0.0728 0 0.13601 6e-3 0.18967 0.0185 0.0543 0.0117 0.10115 0.0321 0.14064 0.0611 0.0389 0.0284 0.0685 0.0651 0.0888 0.11011 0.0203 0.045 0.0305 0.10082 0.0305 0.16747zm-0.17302-0.25444v-0.28776c-0.0531 3e-3 -0.11568 8e-3 -0.18783 0.0139-0.0716 6e-3 -0.1283 0.0149-0.17024 0.0268-0.05 0.0142-0.0904 0.0364-0.12121 0.0666-0.0309 0.0296-0.0463 0.0706-0.0463 0.12306 0 0.0592 0.0179 0.10392 0.0537 0.13416 0.0358 0.0296 0.0904 0.0444 0.16377 0.0444 0.0611 0 0.11689-0.0117 0.16747-0.0352 0.0506-0.0241 0.0975-0.0528 0.14064-0.0861z"/><path d="m548.7005 407.7483h-0.19616v-0.18042h0.19616zm-0.0111 1.20653h-0.17394v-1.03351h0.17394z"/><path d="m549.6843 408.111h-9e-3q-0.0389-9e-3 -0.0759-0.0129-0.0361-5e-3 -0.0861-5e-3 -0.0805 0-0.15544 0.0361-0.0749 0.0352-0.14434 0.0916v0.73372h-0.17395v-1.03351h0.17395v0.15267q0.10363-0.0833 0.18227-0.11751 0.0796-0.0352 0.16192-0.0352 0.0453 0 0.0657 3e-3 0.0204 2e-3 0.0611 8e-3z"/><path d="m551.0318 408.2673q0 0.18783-0.0823 0.34049-0.0814 0.15267-0.21744 0.23687-0.0944 0.0583-0.21096 0.0842-0.11565 0.0259-0.30533 0.0259h-0.3479v-1.3777h0.3442q0.2017 0 0.32014 0.0296 0.11935 0.0287 0.2017 0.0796 0.14064 0.0879 0.21929 0.23409 0.0786 0.14619 0.0786 0.34697zm-0.19152-3e-3q0-0.16192-0.0565-0.27295-0.0564-0.11103-0.16839-0.17487-0.0814-0.0463-0.17302-0.0638-0.0916-0.0185-0.21929-0.0185h-0.1721v1.06312h0.1721q0.13231 0 0.23039-0.0194 0.099-0.0194 0.18135-0.0722 0.1027-0.0657 0.15359-0.17302 0.0518-0.10733 0.0518-0.26833z"/><path d="m552.5606 408.9548h-0.1832v-1.1871l-0.38305 0.80775h-0.10918l-0.38028-0.80775v1.1871h-0.17117v-1.3777h0.24982l0.36732 0.76704 0.3553-0.76704h0.25444z"/></g><g transform="scale(.9898478 1.010256)" fill="#08376b" stroke-width=".017855" aria-label="Reasearch Data Management"><path d="m552.1348 405.1424q0-0.01-4e-3 -0.0172-4e-3 -7e-3 -0.0142-0.0113-7e-3 -3e-3 -0.0163-3e-3 -9e-3 -7.2e-4 -0.0217-7.2e-4h-0.0249v0.0719h0.0212q0.0165 0 0.0276-2e-3t0.0186-7e-3q7e-3 -6e-3 0.0104-0.0122 3e-3 -7e-3 3e-3 -0.0181zm0.10736 0.18514h-0.0841l-0.0728-0.0979h-0.0317v0.0979h-0.0685v-0.26687h0.11543q0.0237 0 0.0407 3e-3t0.0319 0.0116q0.015 9e-3 0.0238 0.0233 9e-3 0.0142 9e-3 0.0357 0 0.0296-0.0138 0.0482-0.0136 0.0186-0.0391 0.031z"/><path d="m552.4781 405.2388h-0.14769q1e-3 0.0236 0.0179 0.0362 0.0167 0.0126 0.0489 0.0126 0.0204 0 0.0396-7e-3t0.0303-0.0158h7e-3v0.0518q-0.0219 9e-3 -0.0412 0.0127-0.0194 4e-3 -0.0428 4e-3 -0.0606 0-0.0928-0.0272-0.0323-0.0272-0.0323-0.0776 0-0.0498 0.0305-0.0789 0.0306-0.0292 0.0839-0.0292 0.0491 0 0.0738 0.0249 0.0247 0.0247 0.0247 0.0713zm-0.0642-0.0378q-5.4e-4 -0.0203-0.01-0.0305-0.01-0.0102-0.0296-0.0102-0.0186 0-0.0307 0.01-0.012 0.01-0.0134 0.031z"/><path d="m552.6567 405.275v-0.0419q-0.0131 1e-3 -0.0283 3e-3t-0.0231 4e-3q-0.01 3e-3 -0.0149 9e-3 -5e-3 6e-3 -5e-3 0.0152 0 6e-3 1e-3 0.0102 1e-3 4e-3 5e-3 8e-3t0.01 5e-3q6e-3 2e-3 0.0179 2e-3 0.01 0 0.0195-4e-3 0.01-4e-3 0.0176-0.0104zm0 0.0312q-5e-3 4e-3 -0.0129 0.01-8e-3 6e-3 -0.0145 9e-3 -0.01 4e-3 -0.0197 6e-3 -0.0102 2e-3 -0.0224 2e-3 -0.0287 0-0.048-0.0177-0.0194-0.0178-0.0194-0.0454 0-0.022 0.01-0.036t0.028-0.0221q0.0179-8e-3 0.0444-0.0115 0.0265-3e-3 0.055-5e-3v-1e-3q0-0.0167-0.0136-0.0229-0.0136-6e-3 -0.0401-6e-3 -0.0159 0-0.0341 6e-3 -0.0181 6e-3 -0.026 9e-3h-6e-3v-0.0486q0.0102-3e-3 0.0332-6e-3 0.0231-4e-3 0.0462-4e-3 0.055 0 0.0794 0.017 0.0245 0.0168 0.0245 0.053v0.13693h-0.064z"/><path d="m552.9661 405.2637q0 0.0312-0.028 0.0504-0.028 0.019-0.0765 0.019-0.0269 0-0.0488-5e-3t-0.0351-0.0111v-0.053h6e-3q5e-3 3e-3 0.0111 8e-3 6e-3 4e-3 0.0181 9e-3 0.01 4e-3 0.0228 7e-3 0.0127 3e-3 0.0272 3e-3 0.019 0 0.0281-4e-3 9e-3 -4e-3 9e-3 -0.0125 0-7e-3 -5e-3 -0.0106-5e-3 -3e-3 -0.0204-6e-3 -7e-3 -2e-3 -0.0195-3e-3 -0.0122-2e-3 -0.0222-5e-3 -0.0274-7e-3 -0.0407-0.0222t-0.0133-0.0378q0-0.029 0.0274-0.0482 0.0276-0.0194 0.0753-0.0194 0.0226 0 0.0432 5e-3 0.0208 4e-3 0.0324 0.01v0.0509h-6e-3q-0.0143-0.01-0.0328-0.016-0.0183-6e-3 -0.0371-6e-3 -0.0156 0-0.0263 4e-3 -0.0106 4e-3 -0.0106 0.0122 0 7e-3 5e-3 0.0109 5e-3 4e-3 0.0228 8e-3 0.01 2e-3 0.0212 4e-3 0.0115 2e-3 0.0229 5e-3 0.0254 7e-3 0.0376 0.021 0.0122 0.0142 0.0122 0.0355z"/><path d="m553.2183 405.2388h-0.14768q1e-3 0.0236 0.0179 0.0362 0.0167 0.0126 0.0489 0.0126 0.0204 0 0.0396-7e-3t0.0303-0.0158h7e-3v0.0518q-0.0219 9e-3 -0.0412 0.0127-0.0193 4e-3 -0.0428 4e-3 -0.0606 0-0.0928-0.0272-0.0323-0.0272-0.0323-0.0776 0-0.0498 0.0305-0.0789 0.0307-0.0292 0.0839-0.0292 0.0491 0 0.0738 0.0249 0.0247 0.0247 0.0247 0.0713zm-0.0642-0.0378q-5.4e-4 -0.0203-0.01-0.0305-0.01-0.0102-0.0296-0.0102-0.0186 0-0.0307 0.01-0.012 0.01-0.0134 0.031z"/><path d="m553.3968 405.275v-0.0419q-0.0131 1e-3 -0.0283 3e-3t-0.0231 4e-3q-0.01 3e-3 -0.0149 9e-3 -5e-3 6e-3 -5e-3 0.0152 0 6e-3 1e-3 0.0102 1e-3 4e-3 5e-3 8e-3t0.01 5e-3q6e-3 2e-3 0.0179 2e-3 0.01 0 0.0195-4e-3 0.01-4e-3 0.0176-0.0104zm0 0.0312q-5e-3 4e-3 -0.0129 0.01-8e-3 6e-3 -0.0145 9e-3 -0.01 4e-3 -0.0197 6e-3 -0.0102 2e-3 -0.0224 2e-3 -0.0287 0-0.048-0.0177-0.0194-0.0178-0.0194-0.0454 0-0.022 0.01-0.036t0.028-0.0221q0.0179-8e-3 0.0444-0.0115 0.0265-3e-3 0.055-5e-3v-1e-3q0-0.0167-0.0136-0.0229-0.0136-6e-3 -0.0402-6e-3 -0.0159 0-0.034 6e-3t-0.026 9e-3h-6e-3v-0.0486q0.0102-3e-3 0.0331-6e-3 0.0231-4e-3 0.0462-4e-3 0.055 0 0.0794 0.017 0.0246 0.0168 0.0246 0.053v0.13693h-0.064z"/><path d="m553.6772 405.1877h-6e-3q-4e-3 -1e-3 -0.0133-2e-3 -9e-3 -7.1e-4 -0.0152-7.1e-4 -0.0138 0-0.0244 2e-3t-0.0228 6e-3v0.13478h-0.0645v-0.20127h0.0645v0.0296q0.0213-0.0183 0.0371-0.0242 0.0158-6e-3 0.029-6e-3 3e-3 0 8e-3 1.8e-4 4e-3 1.8e-4 8e-3 5.4e-4z"/><path d="m553.8298 405.3329q-0.0263 0-0.0482-6e-3 -0.0217-6e-3 -0.0378-0.0194-0.0159-0.0131-0.0247-0.033-9e-3 -0.0199-9e-3 -0.0466 0-0.0281 9e-3 -0.0486 0.01-0.0204 0.0263-0.0339 0.0163-0.0127 0.0376-0.0186 0.0213-6e-3 0.0443-6e-3 0.0206 0 0.038 4e-3t0.0324 0.0117v0.055h-9e-3q-4e-3 -3e-3 -9e-3 -8e-3 -5e-3 -4e-3 -0.0129-8e-3 -7e-3 -4e-3 -0.0161-6e-3 -9e-3 -3e-3 -0.0204-3e-3 -0.0258 0-0.0398 0.0165-0.0138 0.0163-0.0138 0.0445 0 0.029 0.0142 0.0441 0.0143 0.0151 0.0405 0.0151 0.0122 0 0.0219-3e-3 0.01-3e-3 0.0163-7e-3 6e-3 -4e-3 0.0108-8e-3 5e-3 -4e-3 9e-3 -8e-3h9e-3v0.055q-0.0152 7e-3 -0.0319 0.0113-0.0165 4e-3 -0.0366 4e-3z"/><path d="m554.1542 405.3275h-0.0649v-0.0998q0-0.0122-1e-3 -0.0242-1e-3 -0.0122-4e-3 -0.0179-4e-3 -7e-3 -0.0106-0.01-7e-3 -3e-3 -0.0192-3e-3 -9e-3 0-0.0179 3e-3 -9e-3 3e-3 -0.0195 9e-3v0.14266h-0.0645v-0.27888h0.0645v0.0998q0.0172-0.0134 0.033-0.0206 0.016-7e-3 0.0353-7e-3 0.0326 0 0.0509 0.019 0.0185 0.019 0.0185 0.0568z"/><path d="m554.6171 405.1944q0 0.0373-0.017 0.0668-0.017 0.0294-0.043 0.0452-0.0195 0.0118-0.0428 0.0165-0.0233 5e-3 -0.0552 5e-3h-0.0941v-0.26687h0.0968q0.0326 0 0.0563 6e-3 0.0237 5e-3 0.0398 0.0154 0.0276 0.0168 0.0434 0.0455 0.016 0.0285 0.016 0.0672zm-0.0712-5.4e-4q0-0.0263-0.01-0.045-9e-3 -0.0188-0.0303-0.0294-0.0106-5e-3 -0.0217-7e-3 -0.0109-2e-3 -0.0332-2e-3h-0.0174v0.16704h0.0174q0.0246 0 0.036-2e-3 0.0115-2e-3 0.0224-8e-3 0.0188-0.0108 0.0276-0.0287 9e-3 -0.0181 9e-3 -0.0446z"/><path d="m554.7991 405.275v-0.0419q-0.0131 1e-3 -0.0283 3e-3t-0.0231 4e-3q-0.01 3e-3 -0.0149 9e-3 -5e-3 6e-3 -5e-3 0.0152 0 6e-3 1e-3 0.0102 1e-3 4e-3 5e-3 8e-3t0.01 5e-3q6e-3 2e-3 0.0179 2e-3 0.01 0 0.0195-4e-3 0.01-4e-3 0.0176-0.0104zm0 0.0312q-5e-3 4e-3 -0.0129 0.01-8e-3 6e-3 -0.0145 9e-3 -0.01 4e-3 -0.0197 6e-3 -0.0102 2e-3 -0.0224 2e-3 -0.0287 0-0.048-0.0177-0.0194-0.0178-0.0194-0.0454 0-0.022 0.01-0.036t0.028-0.0221q0.0179-8e-3 0.0445-0.0115 0.0265-3e-3 0.055-5e-3v-1e-3q0-0.0167-0.0136-0.0229-0.0136-6e-3 -0.0401-6e-3 -0.016 0-0.0341 6e-3t-0.026 9e-3h-6e-3v-0.0486q0.0102-3e-3 0.0332-6e-3 0.0231-4e-3 0.0462-4e-3 0.055 0 0.0794 0.017 0.0246 0.0168 0.0246 0.053v0.13693h-0.064z"/><path d="m555.0622 405.3257q-0.0104 3e-3 -0.0221 4e-3 -0.0116 2e-3 -0.0285 2e-3 -0.0376 0-0.0561-0.0152-0.0183-0.0152-0.0183-0.0521v-0.0941h-0.0265v-0.0437h0.0265v-0.0575h0.0645v0.0575h0.0604v0.0437h-0.0604v0.0713q0 0.0106 1.8e-4 0.0185 1.7e-4 8e-3 3e-3 0.0141 3e-3 6e-3 9e-3 0.01t0.0186 4e-3q5e-3 0 0.0131-2e-3 8e-3 -2e-3 0.0115-4e-3h5e-3z"/><path d="m555.2338 405.275v-0.0419q-0.0131 1e-3 -0.0283 3e-3t-0.0231 4e-3q-0.01 3e-3 -0.0149 9e-3 -5e-3 6e-3 -5e-3 0.0152 0 6e-3 1e-3 0.0102 1e-3 4e-3 5e-3 8e-3t0.01 5e-3q6e-3 2e-3 0.0179 2e-3 0.01 0 0.0195-4e-3 0.01-4e-3 0.0176-0.0104zm0 0.0312q-5e-3 4e-3 -0.0129 0.01-8e-3 6e-3 -0.0145 9e-3 -0.01 4e-3 -0.0197 6e-3 -0.0102 2e-3 -0.0224 2e-3 -0.0287 0-0.048-0.0177-0.0194-0.0178-0.0194-0.0454 0-0.022 0.01-0.036t0.028-0.0221q0.0179-8e-3 0.0444-0.0115 0.0265-3e-3 0.055-5e-3v-1e-3q0-0.0167-0.0136-0.0229-0.0136-6e-3 -0.0401-6e-3 -0.0159 0-0.0341 6e-3 -0.0181 6e-3 -0.026 9e-3h-6e-3v-0.0486q0.0102-3e-3 0.0332-6e-3 0.0231-4e-3 0.0462-4e-3 0.055 0 0.0794 0.017 0.0245 0.0168 0.0245 0.053v0.13693h-0.064z"/><path d="m555.7882 405.3275h-0.0685v-0.17869l-0.0495 0.11596h-0.0475l-0.0495-0.11596v0.17869h-0.0649v-0.26687h0.0799l0.06 0.13389 0.0599-0.13389h0.0799z"/><path d="m555.9858 405.275v-0.0419q-0.0131 1e-3 -0.0283 3e-3t-0.0231 4e-3q-0.01 3e-3 -0.0149 9e-3 -5e-3 6e-3 -5e-3 0.0152 0 6e-3 1e-3 0.0102 1e-3 4e-3 5e-3 8e-3t0.01 5e-3q6e-3 2e-3 0.0179 2e-3 0.01 0 0.0195-4e-3 0.01-4e-3 0.0176-0.0104zm0 0.0312q-5e-3 4e-3 -0.0129 0.01-8e-3 6e-3 -0.0145 9e-3 -0.01 4e-3 -0.0197 6e-3 -0.0102 2e-3 -0.0224 2e-3 -0.0287 0-0.048-0.0177-0.0194-0.0178-0.0194-0.0454 0-0.022 0.01-0.036t0.028-0.0221q0.0179-8e-3 0.0444-0.0115 0.0265-3e-3 0.055-5e-3v-1e-3q0-0.0167-0.0136-0.0229-0.0136-6e-3 -0.0401-6e-3 -0.0159 0-0.034 6e-3t-0.026 9e-3h-6e-3v-0.0486q0.0102-3e-3 0.0332-6e-3 0.0231-4e-3 0.0462-4e-3 0.055 0 0.0794 0.017 0.0246 0.0168 0.0246 0.053v0.13693h-0.064z"/><path d="m556.3225 405.3275h-0.0649v-0.0998q0-0.0122-1e-3 -0.0242-1e-3 -0.0122-4e-3 -0.0179-4e-3 -7e-3 -0.0106-0.01-7e-3 -3e-3 -0.0192-3e-3 -9e-3 0-0.0179 3e-3 -9e-3 3e-3 -0.0195 9e-3v0.14266h-0.0645v-0.20127h0.0645v0.0222q0.0172-0.0134 0.033-0.0206 0.016-7e-3 0.0353-7e-3 0.0326 0 0.0509 0.019 0.0185 0.019 0.0185 0.0568z"/><path d="m556.5148 405.275v-0.0419q-0.0131 1e-3 -0.0283 3e-3t-0.0231 4e-3q-0.01 3e-3 -0.0149 9e-3 -5e-3 6e-3 -5e-3 0.0152 0 6e-3 1e-3 0.0102 1e-3 4e-3 5e-3 8e-3t0.01 5e-3q6e-3 2e-3 0.0179 2e-3 0.01 0 0.0195-4e-3 0.01-4e-3 0.0176-0.0104zm0 0.0312q-5e-3 4e-3 -0.0129 0.01-8e-3 6e-3 -0.0145 9e-3 -0.01 4e-3 -0.0197 6e-3 -0.0102 2e-3 -0.0224 2e-3 -0.0287 0-0.048-0.0177-0.0194-0.0178-0.0194-0.0454 0-0.022 0.01-0.036t0.028-0.0221q0.0179-8e-3 0.0444-0.0115 0.0265-3e-3 0.055-5e-3v-1e-3q0-0.0167-0.0136-0.0229-0.0136-6e-3 -0.0401-6e-3 -0.016 0-0.0341 6e-3t-0.026 9e-3h-6e-3v-0.0486q0.0102-3e-3 0.0332-6e-3 0.0231-4e-3 0.0462-4e-3 0.055 0 0.0794 0.017 0.0245 0.0168 0.0245 0.053v0.13693h-0.064z"/><path d="m556.845 405.3044q0 0.0283-8e-3 0.0477t-0.0226 0.0303q-0.0145 0.0111-0.0351 0.0159-0.0204 5e-3 -0.0462 5e-3 -0.021 0-0.0414-3e-3 -0.0203-3e-3 -0.0351-6e-3v-0.0504h8e-3q0.0118 5e-3 0.0289 8e-3 0.017 4e-3 0.0305 4e-3 0.0179 0 0.029-3e-3 0.0113-3e-3 0.0172-9e-3 6e-3 -6e-3 8e-3 -0.0147 3e-3 -9e-3 3e-3 -0.0215v-4e-3q-0.0117 9e-3 -0.0258 0.0151-0.0142 6e-3 -0.0315 6e-3 -0.0423 0-0.0652-0.0255-0.0229-0.0254-0.0229-0.0774 0-0.0249 7e-3 -0.043t0.0197-0.0315q0.0118-0.0125 0.029-0.0195 0.0174-7e-3 0.0355-7e-3 0.0163 0 0.0296 4e-3 0.0134 4e-3 0.0244 0.0106l2e-3 -9e-3h0.0625zm-0.0645-0.0403v-0.0912q-6e-3 -2e-3 -0.0136-4e-3 -8e-3 -1e-3 -0.0145-1e-3 -0.0254 0-0.0382 0.0147-0.0127 0.0145-0.0127 0.0407 0 0.029 0.0108 0.0405 0.0109 0.0115 0.0323 0.0115 0.01 0 0.019-3e-3t0.017-8e-3z"/><path d="m557.1153 405.2388h-0.14768q1e-3 0.0236 0.0179 0.0362 0.0167 0.0126 0.0489 0.0126 0.0204 0 0.0396-7e-3t0.0303-0.0158h7e-3v0.0518q-0.0219 9e-3 -0.0412 0.0127-0.0194 4e-3 -0.0428 4e-3 -0.0606 0-0.0928-0.0272-0.0323-0.0272-0.0323-0.0776 0-0.0498 0.0305-0.0789 0.0307-0.0292 0.0839-0.0292 0.0491 0 0.0738 0.0249 0.0247 0.0247 0.0247 0.0713zm-0.0642-0.0378q-5.4e-4 -0.0203-0.01-0.0305-0.01-0.0102-0.0296-0.0102-0.0186 0-0.0307 0.01-0.012 0.01-0.0134 0.031z"/><path d="m557.3688 405.1848v0.14266h-0.0649v-0.10054q0-0.0147-7.2e-4 -0.0249-7.1e-4 -0.0104-4e-3 -0.0168-3e-3 -6e-3 -0.01-9e-3 -6e-3 -3e-3 -0.0183-3e-3 -0.01 0-0.0185 4e-3 -9e-3 4e-3 -0.0161 8e-3v0.14266h-0.0645v-0.20127h0.0645v0.0222q0.0167-0.0131 0.0319-0.0204 0.0152-7e-3 0.0337-7e-3 0.0199 0 0.0351 9e-3t0.0238 0.026q0.0193-0.0163 0.0376-0.0256 0.0183-9e-3 0.0358-9e-3 0.0326 0 0.0495 0.0195 0.017 0.0195 0.017 0.0563v0.13101h-0.0649v-0.10054q0-0.0149-7.1e-4 -0.0251-5.4e-4 -0.0102-4e-3 -0.0167-3e-3 -6e-3 -0.01-9e-3t-0.0186-3e-3q-8e-3 0-0.0158 3e-3 -8e-3 3e-3 -0.0188 9e-3z"/><path d="m557.7698 405.2388h-0.14769q1e-3 0.0236 0.0179 0.0362 0.0167 0.0126 0.0489 0.0126 0.0204 0 0.0396-7e-3t0.0303-0.0158h7e-3v0.0518q-0.0219 9e-3 -0.0412 0.0127-0.0194 4e-3 -0.0428 4e-3 -0.0606 0-0.0928-0.0272-0.0323-0.0272-0.0323-0.0776 0-0.0498 0.0305-0.0789 0.0306-0.0292 0.0839-0.0292 0.0491 0 0.0739 0.0249 0.0247 0.0247 0.0247 0.0713zm-0.0642-0.0378q-5.4e-4 -0.0203-0.01-0.0305-0.01-0.0102-0.0296-0.0102-0.0186 0-0.0306 0.01t-0.0135 0.031z"/><path d="m558.0287 405.3275h-0.0649v-0.0998q0-0.0122-1e-3 -0.0242-1e-3 -0.0122-4e-3 -0.0179-4e-3 -7e-3 -0.0106-0.01-7e-3 -3e-3 -0.0192-3e-3 -9e-3 0-0.0179 3e-3 -9e-3 3e-3 -0.0195 9e-3v0.14266h-0.0645v-0.20127h0.0645v0.0222q0.0172-0.0134 0.033-0.0206 0.0159-7e-3 0.0353-7e-3 0.0326 0 0.0509 0.019 0.0185 0.019 0.0185 0.0568z"/><path d="m558.2278 405.3257q-0.0104 3e-3 -0.0221 4e-3 -0.0117 2e-3 -0.0285 2e-3 -0.0376 0-0.0561-0.0152-0.0183-0.0152-0.0183-0.0521v-0.0941h-0.0265v-0.0437h0.0265v-0.0575h0.0645v0.0575h0.0604v0.0437h-0.0604v0.0713q0 0.0106 1.8e-4 0.0185 1.8e-4 8e-3 3e-3 0.0141 3e-3 6e-3 9e-3 0.01t0.0186 4e-3q5e-3 0 0.0131-2e-3 8e-3 -2e-3 0.0115-4e-3h5e-3z"/></g><rect class="companyName shapeStroke-str" x="545.6912" y="406.8562" width=".06790515" height="3.408707" rx="0px" ry="0px" stroke-width="0"/><g transform="translate(0 .03163813)" stroke-width=".408217"><path d="m544.391 409.1981c-8.6e-4 6e-5 -8.6e-4 6e-5 -2e-3 1e-4v-2.8e-4c-2.9e-4 1e-4 -2.9e-4 1e-4 -5.7e-4 2e-4 -2.2e-4 2.8e-4 -2.9e-4 5.7e-4 -5.7e-4 1e-3 5.7e-4 -2.7e-4 1e-3 -5.7e-4 3e-3 -1e-3z" fill="#35c0ed" stroke-width=".0101267"/><g fill="#b7bec8"><g stroke-width=".0100919"><path d="m544.7027 409.1142c-0.0649 0.0352-0.13446 0.063-0.20757 0.0825-0.031 0.0346-0.0597 0.0684-0.0768 0.0928h0.12816z"/><path d="m545.1394 409.1168c0-0.0471-0.0378-0.0853-0.0844-0.0853-0.024 0-0.0456 0.0101-0.061 0.0264h-5e-5l-2e-3 2e-3c-0.0141 0.01-0.0226 0.02-0.0226 0.02l-0.13938 0.14163-0.0974 0.0972-0.79246 5.7e-4c-0.11332 0-0.0579-0.0389-0.0579-0.0389h0.40109c9e-3 0 0.0171-2e-3 0.0242-6e-3 0.0386-0.0139 0.0663-0.0511 0.0663-0.0949 0-0.0557-0.0448-0.0997-0.0998-0.0997-5e-3 0-0.01-5.7e-4 -0.0147 5e-5h-0.44037c-0.36939 0-0.44326 0.25325-0.44326 0.25325l-0.26386 0.39053h0.64317c0.0479-0.14326 0.16951-0.15654 0.16951-0.15654h0.6649c0.12929 0 0.2111-0.0651 0.2111-0.0651l0.0268-0.0278 0.28645-0.29595-1.5e-4 -1.9e-4c7e-3 -6e-3 0.0121-0.0139 0.0164-0.0222 8e-3 -0.0134 0.01-0.0248 9e-3 -0.0345 1.2e-4 -1e-3 2.4e-4 -3e-3 2.4e-4 -5e-3z"/><path d="m544.7149 409.2884 0.1818-0.18667-1e-4 -1e-4c9e-3 -9e-3 0.0148-0.0213 0.0148-0.0351 2e-5 -0.027-0.0216-0.0489-0.0482-0.0489-0.0138 0-0.0261 6e-3 -0.0349 0.015l-5e-5 -4e-5s-0.19783 0.18694-0.24576 0.25582z"/><path d="m544.3846 409.2013c8.6e-4 -5e-5 8.6e-4 -5e-5 8.6e-4 5e-5 3e-3 -8.5e-4 3e-3 -8.5e-4 5e-3 -2e-3 -8.6e-4 1e-4 -8.6e-4 1e-4 -2e-3 1e-4v-2.9e-4c-3e-3 8.6e-4 -3e-3 8.6e-4 -5e-3 1e-3 -5.7e-4 1.2e-4 -1e-3 1.7e-4 -2e-3 2.9e-4 -3e-5 7e-5 -5e-5 1.2e-4 -8e-5 1.9e-4 2.7e-4 0 5.7e-4 5e-5 1e-3 5e-5 -5.8e-4 2e-4 -8.6e-4 2.5e-4 -1e-3 2.9e-4 -5e-5 7e-5 -7e-5 1.7e-4 -1.2e-4 2.5e-4 5.7e-4 -5e-5 8.5e-4 -8e-5 1e-3 -1.5e-4z"/><path d="m543.7051 407.7788 4e-3 -2e-3c1.7e-4 -2e-3 1.7e-4 -2e-3 8.6e-4 -4e-3 -3e-3 2e-3 -3e-3 2e-3 -7e-3 4e-3 1e-3 1e-4 1e-3 1e-4 3e-3 2.2e-4 -8.5e-4 1e-3 -8.5e-4 1e-3 -8.5e-4 2e-3z"/><path d="m544.3522 407.4174c-8.6e-4 2.8e-4 -8.6e-4 5.7e-4 -8.6e-4 8.5e-4 8.6e-4 -5.7e-4 8.6e-4 -5.7e-4 8.6e-4 -8.5e-4z"/><path d="m544.3825 409.2c8.6e-4 0 8.6e-4 0 8.6e-4 1.4e-4 3e-3 -5.7e-4 3e-3 -5.7e-4 5e-3 -1e-3 -3e-3 2.9e-4 -4e-3 2.9e-4 -6e-3 5.7e-4 -5e-5 1.8e-4 -1e-4 2.9e-4 -1.5e-4 5.7e-4 1.2e-4 -4e-5 1.7e-4 -4e-5 2.8e-4 -1e-4z"/><path d="m544.4136 407.4972c-2e-3 -2e-3 -2e-3 -2e-3 -5e-3 -3e-3 -8.6e-4 -2.9e-4 -8.6e-4 -2.9e-4 -2e-3 -8.6e-4 1e-3 1e-3 1e-3 1e-3 4e-3 3e-3s4e-3 3e-3 6e-3 4e-3c1.2e-4 -5.7e-4 1.5e-4 -5.7e-4 -5.7e-4 -1e-3 8.5e-4 -2.9e-4 8.5e-4 -2.9e-4 1e-3 -8.6e-4 -8.6e-4 3e-5 -8.6e-4 3e-5 -2e-3 -1.5e-4z"/><path d="m544.5871 407.4031c5.7e-4 2.8e-4 8.5e-4 2.9e-4 1e-3 5.8e-4 -5.7e-4 -1.5e-4 -8.6e-4 -2.9e-4 -1e-3 -5.8e-4z"/><path d="m544.5888 407.4038c0 5e-5 0 5e-5 -5e-5 1e-4 8.6e-4 2.9e-4 1e-3 5.7e-4 2e-3 5.7e-4 -5.7e-4 -1.9e-4 -1e-3 -2.8e-4 -2e-3 -5.7e-4z"/><path d="m544.4781 407.369c-1e-3 -2.9e-4 -3e-3 -5.7e-4 -4e-3 -8.6e-4 5.7e-4 1.7e-4 1e-3 2.9e-4 2e-3 5.7e-4 8.6e-4 1.5e-4 8.6e-4 1.5e-4 2e-3 2.9e-4z"/></g><g transform="matrix(.02476497 0 0 .02473479 542.9093 407.2983)" stroke-width=".408217"><path d="m59.577 77.048c0.747261-0.212961-0.496893 0.09417 0 0z"/><path d="m32.09 19.508c0.527059-0.280741-0.157375-0.255818 0 0z"/><path d="m58.264 4.891c-0.01233 0.013-0.01233 0.013 0 0z"/><path d="m59.493 76.996c0.477075-0.0078 0.06321-0.106415 0 0z"/><path d="m60.75 8.116c-0.72446-0.4201239 0.356448 0.24843 0 0z"/><path d="m67.766 4.311c0.017 0.00633 0.017 0.00633 0 0z"/><path d="m89.438 53.882c0.665223-1.520702 1.440246-5.463432-1.100822-3.046191-3.439247 1.417662-3.380799-4.682518-3.012377-6.885112 0.730163-2.569969 2.320802-6.16152 3.675654-7.783129 1.375514-0.353316 2.874289-1.041772 2.613943 1.47825 1.165756 2.759772 0.168268-3.714072-0.134468-4.755434-1.251892-3.899331 1.363173 5.797625-0.159546 0.701636-1.522924-4.815528-1.136433 4.526466-3.542103 1.234208-0.250393-1.869821-0.787099-3.934736 1.383401-3.492934-0.696866-2.26381-1.086802-2.278497 0.070318-3.629294 0.71531-0.588218-0.739203-3.982327 0.286536-1.171229 1.257387 2.434702-1.053286-3.854738-0.929536-2.058771-0.524241-1.334976-0.750753-1.730624-0.885-2.415-1.114866-2.580191-3.228406-5.366084-5.229795-7.640079-0.710801-0.977044-4.854736-4.685635-2.741316-2.614394-1.04513-0.870681 1.152686 1.312841-0.169234 0.409199-1.963911-1.22374 1.114023 1.33679 0.981345 1.725274-0.277218-0.09923-2.380402-2.153901-0.876-0.624-1.455757-0.202254 2.712198 1.703058-0.716171 1.169036-0.636967-0.162066-1.735154 0.766583-2.67668 0.64311-0.50964 0.823447-0.770519 1.402383-1.064306 2.468526-0.211116 1.513308-0.924219-0.495938-1.501525-0.152325-1.077143-0.326571-1.64141-2.599951-1.427501-2.717235 0.955279-0.602387-1.511367-0.194557 0.008183-0.895112-1.638712-0.343078 0.733069-0.635315-0.869-0.866 0.759035-0.250166-0.656328-0.729406 1.113382-0.348839-1.849185-0.89863-0.483051-0.071236-0.280382-0.659161-0.150656-0.054501 0.919191-0.936293-0.998931-1.725373 2.543097 1.04509-0.434676-0.8984257-0.188802-0.8902847 0.29895-1.098654-1.165391-3.068383-3.045588-3.2904-1.857892-0.6368612-0.733071-0.839651-0.043005-0.6400118-2.419035-0.9102447-0.589743-0.7308984 1.027326-0.4259302-1.693438-0.7166432 1.717021 0.4026419-0.840885-0.4708627-1.991873-0.3708391-2.38436-0.4753626-2.638355-0.4670454 1.546417 0.9847369-3.655167-0.3524078-1.037042 0.7882055-1.087692-0.137882-4.752648-0.9251903-2.417718-0.9742974 0.42129-0.4035843 2.15351 0.7390919 0.965-0.09-1.843823-0.6308294 2.306616 0.2331844 0.523508-0.3176798 0.293659-0.398321 4.446986 0.9291543 1.019492-0.1123202-1.340719-0.4016348 1.257958 0.2594981-1.146309-0.3271363 1.58443 0.3492943-2.059903-0.6700906-0.278851 0.1065377 0.467942 0.7833014-4.083653-0.3007058-1.11584 0.0035986-2.788451-0.7836618 2.118832-0.2063373-1.48163-0.7754038-16.09488-2.986866-33.42369 5.955656-40.40684 20.74893-6.80425 13.73192-4.287606 31.51563 6.441572 42.55345 2.165148 2.308889 4.617056 4.349298 7.284895 6.053024 7.34791-0.347891 14.73245-0.255566 22.07215-0.08421 3.64437 2.197419 3.165056-4.06212 2.276136-5.874986-2.926943-1.010714-4.523978-4.168273-5.837286-6.586804 1.2353-1.004732-0.509345-2.888149 1.858354-3.715804 1.201671-1.396465-0.104818-5.1174-1.777404-2.896584-2.644745-1.063488-3.847657-3.778065-6.834874-4.504358-2.438985-0.897197-7.402979-1.190738-7.177189-5.277407-1.741485-1.170903-2.539104-6.081518-3.831809-5.631782-0.181715 1.497085 2.783055 5.238753 1.491119 5.199413-2.128961-2.234255-1.413393-5.907367-4.00013-8.118168-0.847669-2.86681-0.71619-6.217334 1.228001-8.697213-0.271785-1.826406 2.196958-1.669948 0.384358-3.571391-1.484985-0.434107 1.074114-1.957313-0.423521-1.578446-0.0054-1.077844 0.799812-3.186658 0.05079-2.100878-0.161993-0.181037 0.79894-4.390392-0.160695-2.591382-0.731774-0.590792-0.355518-1.230059-2.300538-1.81783 0.645995-1.164138-4.067632 3.052811-1.255455 0.161526 1.880526-1.691125-2.270794 1.588565-2.531653 2.276981-1.275198 1.242162-5.00853 4.448181-1.847354 1.386323 1.423294-1.221286 2.145073-2.366124 0.790223-1.70623 0.398615-0.944317 0.766572-2.219071 2.824291-3.563221 1.020101-0.744751 1.747821-1.517543 0.153741-0.663555 1.606515-1.659807 2.36338-1.383113 3.831561-3.227184 1.966265-0.9846737 3.851317-2.705396 4.497515-1.94024 2.805826 0.3703492 3.400144 0.4810732 5.690669-0.3065705-1.414922 0.5305593-3.02501 1.111897-0.729832 0.3945416 2.319757-0.826961 1.490975-0.00522 4.109832 0.5354584 1.841516-0.00935-1.001021 1.612218 1.890234 0.9784804 0.670525 1.849011 0.892198-0.064716 2.326606-0.4278457-2.515025 0.3800576 0.523904-0.5918148 1.016097 0.9301371 2.134281 0.1244052 2.636854-0.4514024 2.48858 0.7144997 1.22006-0.871344 2.133585-1.436823 1.304195-2.516423 2.860697-2.256756 0.03683 2.762685 2.323731 1.503925-0.962744 3.567954 2.864784-2.33318 2.811786 0.8726923-0.402397 0.3419542-1.231198 1.90373-1.904432 1.005488-0.212367 0.568475-2.749043 0.862164-2.9113 0.440274 3.595693 1.405922-3.123843 1.443612-1.405621 1.548901-0.04369 0.875165-2.578642 1.364627-3.127257 3.713577 1.063274 0.754116-0.06763 2.02359 2.177158 1.73881 1.136841 1.994313 4.100477 0.997849 2.672333 3.92746 1.887054 2.965687 0.859942-1.704841 2.766933-2.279232 1.680164-0.697874 3e-3 -3.038367 1.126848-4.072325-0.507251-3.009696 5.125789 0.205352 3.211942 0.939339 0.08263 2.23106 2.133678 1.335233 2.983539 0.497389 0.5554 1.543797 0.553637 3.682825 1.768769 4.177412 1.933926 0.319791-2.506564 1.67838 0.485982 0.627668 2.793957 1.607007-2.088759 3.387379-3.89394 2.33213-1.380972-0.121219-5.121942 3.85883-2.258636 1.241884 1.699938-0.556172 2.679521-0.0421 1.812519 0.732911 0.225654 1.96278 3.211109 1.620701 0.206069 2.49565-2.608095 1.026979 1.959146-1.881502-1.038135-0.688802-1.941268 0.07664-2.369161 2.129524-3.456 2.665-1.972003-0.445514-2.162886 3.559346-2.876 2.037-0.597282-1.00094 0.703673 3.186268-1.43801 3.250602-3.62413 0.752494-0.835081 4.595571-2.502913 5.925834-0.327142-2.659358-2.116248-4.354549-4.813077-3.253436 0.199174 1.23814-4.613579-0.856627-4.533958 2.12951-1.866354 2.543299 1.153339 8.163489 3.491672 4.357767 2.310363-2.295947 2.33339 0.767986 1.233129 1.642304-0.706863 2.567301 4.963739 0.102925 2.569199 3.44013-0.207141 2.400509 3.682933 2.06474 4.523198 1.586281 1.989877-3.168178 3.032158-0.02064 2.709699-0.454624 1.126057-2.401013 3.014357 1.118242 5.222028-0.362486 1.089568 2.961888 5.84881 1.626985 6.665033 4.847118-1.731153 2.180953-0.453669 0.514989 0.612121 1.245443-2.461885 2.177655 1.71042-1.651806 1.917879 0.736557 2.967845-1.246843 5.940855 1.898189 2.61 4.083-1.042235 2.704464-2.538379 5.131322-5.511247 6.328189-0.262249 1.530132-2.254678 2.981318-1.728465 2.274502-0.202135 2.446781-4.210673 0.924623-2.556315 2.466583-2.422889 1.372339-3.271657 1.63374-4.175823 2.922015 0.422982 0.408956-0.522419 1.16022-1.622818 1.682107 13.16967-1.535955 24.99393-11.02076 29.83667-23.3054zm0.723-3.302c0.171492-0.482175-0.132754 0.419248 0 0zm1.012-18.647 0.0627 0.266754zm0.073 0.293 0.03199 0.108838zm0.048 0.183 0.02285 0.06783zm0.227 2.857c0.555081 0.17795 0.03983 1.137472 0 0zm-0.516-1.663c0.513153 1.490416-0.363497 0.95656 0 0zm-0.165-0.878c0.178308-0.320047-8.05e-4 1.804004 0 0zm-1.733-7.281 0.02188 0.03197zm0.795 1.393 0.04049 0.111077zm-0.293-0.214-0.02965-0.06905zm0.157 0.224-0.113029-0.200689zm-0.241-0.678c0.211213 0.191842 0.239295 1.037556 0 0zm-0.08 0.072 0.185221 0.366067zm-1.343-2.859 0.0034 0.03482zm-0.136-0.352 0.04235 0.0915zm-0.22-0.436 0.01571 0.07124zm-0.125-0.488-0.03924-0.06352zm-0.08-0.426 0.05713 0.09611zm0.096 0.206c-0.150931 0.04438 0.06911-0.231106 0 0zm0.032 0.027-0.03276-0.06981zm-0.046-0.15 0.01332 0.03688zm-0.048-0.102-0.02303-0.02797zm-0.013 0.392 0.0058 0.03592zm-0.564 0.884 0.03033 0.100678zm-0.207 0.433c0.298363-0.147548 3.311316 5.522363 1.027841 4.20922 0.504215-1.066587-0.828626-2.703801-1.027841-4.20922zm0.792 2.738c0.05276-0.299316 0.124317 0.297145 0 0zm-0.376-1.211-0.0702-0.163015zm-0.13-0.218 0.03356 0.209874zm-0.163-0.482c0.111307 0.211614-0.182892-0.0813 0 0zm-0.071-0.045-0.02649-0.07015zm0.087 0.356c0.298154 0.316693-0.194319 0.02511 0 0zm0.05 0.055-0.0017-0.123444zm-0.371-1.104 0.146713 0.269763zm-0.213-0.419c0.402042-0.329929-0.04096 0.692539 0 0zm0.083 0.446 0.0389 0.18473zm-0.067-0.169 0.06634 0.07817zm-0.139 1.691c1.661861-0.940899 0.644876 3.665323 0.105911 0.527293l-0.0087-0.151453zm-7.209-13.9-0.0566-0.05049zm0.081 0.082 0.08807 0.06358zm0.169 0.149-0.05537-0.05066zm-0.05-0.055 0.05737 0.04545zm0.74 1.034-0.273539-0.240283zm-0.15-0.279-0.05689-0.08481zm0.309 0.277-0.04406-0.05623zm-0.722 0.117-0.0076-0.04167zm0.099 2e-3c-0.660577-0.728006 1.03922 0.729074 0 0zm0.673 0.693c-1.337741-0.981929-0.148049-0.394705 0 0zm0.068-0.826c-0.962894-0.551788 0.186204-0.232272 0 0zm-0.446 1.108-0.06894-0.07521zm-0.153 0.211 0.08661 0.05954zm0.203 0.052c-0.892653 0.01939-0.421732-0.896592 0 0zm-7.39 2.13c0.134157 0.117868-0.18142 0.05278 0 0zm-0.251-1.147-0.126703 0.06162zm-0.115-0.05c0.237038 0.04068-0.346302 0.147394 0 0zm0.176-3.515 0.04071 0.145451zm-0.088-0.502c0.0246 0.195381-0.243467-0.24316 0 0zm-0.216-0.238c0.323924 0.04004 0.02653 0.297131 0 0zm-0.209-0.324c0.449953 0.114272-0.245667 0.262451 0 0zm-0.108-0.22c0.421563-0.00237-0.228464 0.207882 0 0zm-0.138 0.166c0.379453 0.27954-0.385441 0.115337 0 0zm-3.166-5.364 0.12648 0.0581628zm-5.441-1.231c1.149637 0.043529-0.23204 0.1272299 0 0zm-1.334-0.759 0.03371 0.014503zm-7.876 49.423c0.234058 0.0064-0.150339 0.261653 0 0zm-1.667 0.531c0.247398 0.252518-0.230413 0.202759 0 0zm-16.92-13.959c-0.586369-0.687895 0.319809-0.174618 0 0zm0.531 0.217c-0.413092-0.08082 0.328222-0.421856 0 0zm-3.085-3.842c0.431554 0.118968-0.443272 0.07792 0 0zm-0.275 9e-3c0.35773 0.13385-0.181573 0.195072 0 0zm1.995-11.031c-0.137282 0.425097 0.0264-0.659638 0 0zm-0.06-0.407c0.256236-0.06016-0.190671 0.173643 0 0zm-0.06 0.15c0.151593-0.109307-0.07129 0.181825 0 0zm-0.613-7.788c0.238293-0.214779-0.09486 0.242781 0 0zm0.505 7.734c0.06014-0.170335 0.110521 0.251702 0 0zm-4e-3 -0.266 0.01402 0.08417zm-0.063-0.596c-0.277889 0.256945-0.115513-0.7537 0 0zm-0.134-0.426c-0.175613 1e-3 0.207073-0.162939 0 0zm-0.011-0.185-0.09056-0.0044zm-0.101 0.09c0.222769 0.102255-0.276863 0.174129 0 0zm-0.085-0.179-0.04989 0.05851zm-0.273-0.233c0.283904-0.06509-0.252633 0.140946 0 0zm-0.067 0.159c0.282202-0.05114-0.270088 0.09132 0 0zm-0.17 0c2.135591 2.097435-0.729289 1.592437-0.484-0.223 0.217206-0.21457 0.270683 0.251644 0.484 0.223zm-0.108-2.096-0.01359-0.125798zm5e-3 0.475c0.166864 0.02538-0.18079 0.106331 0 0zm-0.031-0.341-0.03348 0.253099zm0.045 1.004c-0.07132 0.651057-0.07498-0.23472 0 0zm0.303-0.412c0.721994-0.612285-0.300697 0.492388 0 0zm-0.094 0.028c-0.05838 0.163501-0.07024-0.159044 0 0zm-0.088 0.188c-0.332066 0.31014 0.07794-0.351925 0 0zm-0.036-0.223 0.0024 0.07425zm-0.018-0.287c-0.276007-0.104391 0.333043-0.175119 0 0zm0.252-0.953c0.341165 0.06878-0.5646 0.365618 0 0zm-0.172 0.438c0.353854 0.363017-0.34405 0.243464 0 0zm-0.056-0.133-0.02449 0.09855zm-0.045-0.244c-0.10977 0.633142-0.232121-0.695168 0 0zm-0.072-0.73c-0.08017-0.222756 0.321156-0.04807 0 0zm-5e-3 -0.344c0.144032-0.246717 0.08177 0.189033 0 0zm0.192-0.539c0.685571-0.736132-0.192966 0.785881 0 0zm-0.067 0.279-0.123022 0.174579zm-0.07-0.158c0.20472 0.146157-0.200377 0.196833 0 0zm-0.039-0.705c0.246555-0.507171 0.259678 0.227357 0 0zm0.072 0.12c0.335648-0.510244 0.02809 0.290231 0 0zm0.067 0.162c-0.265945-0.142542 0.442173-0.174334 0 0zm0.242-0.278-0.09793-0.257707zm-0.036-0.404c0.08614 0.569232-0.563093 0.017 0 0zm-0.123-0.181c-0.262582 1.104601-0.562039-0.180729 0 0zm-0.095-0.716c0.857223-0.616182-1.055949 1.726964 0 0zm-2.513-1.938c0.265317 0.117958-0.32171 0.242117 0 0zm-0.241-0.21c0.190577-0.266174 0.0327 0.215524 0 0zm-0.141 0.364c0.533959-0.552004-0.400034 0.476923 0 0zm-0.26 0.235c0.177594 0.09077-0.414998 0.174122 0 0zm-0.055 0.195c0.966756-1.185159 0.409738-0.105238 0 0zm-0.812-0.376c0.284641-0.04657-0.527367 0.374791 0 0zm-0.959 0.866 0.04699-0.0021zm-1.172 1.868-0.0556 0.0236zm0.941-1.302c0.259169 0.01384-0.288536 0.190848 0 0zm-0.373 0.385c0.840927-0.538705-0.06168 0.376194 0 0zm-0.069 0.08c0.178695 0.107444-0.161928 0.145935 0 0zm-0.972 1.187c0.474619-1.128938 1.760315-1.307103 0 0zm-0.048 0.142c0.159737-0.04224-0.192551 0.168459 0 0zm-0.74 0.147-0.04531 0.05637zm-1.436 1.594 0.03571-0.05926zm0.133-0.172 6.08e-4 -0.04196zm0.057-0.181c0.103318 0.164308-0.353897 0.147689 0 0zm-0.163-0.026-0.02263 0.06456zm-0.127 0.089c0.201351-0.331504-0.04012 0.248583 0 0zm0.027 0.152c0.731664-1.035853-0.254519 0.486605 0 0zm-0.477 0.208c0.170206-0.213888-0.100549 0.211673 0 0zm-0.186 0.052c-0.823054 1.040778-0.09336-0.248353 0 0zm2.405-4.039-0.402719 0.313621zm1.569-2.286c-0.372978 0.702969-0.471748-0.104785 0 0zm0.347 0.189c-0.412128 0.04212 0.884725-0.739982 0 0zm0.26-0.27c-0.0225-0.248793 0.659129-0.375869 0 0zm0.725-0.647c0.260712-0.161868-0.199538 0.247009 0 0zm-0.045-0.495 0.04823-0.05381zm2.79-1.877c0.166905-0.00367-0.246043 0.114629 0 0zm17.872-1.806-0.04481 0.049619zm7.406-0.351-0.04348-0.052814zm0.184 0.458c-0.205608-0.085599 0.163689-0.1421745 0 0zm1.414 2.567c0.777749 0.377591 0.240735 0.647639 0 0zm-0.325-6e-3c0.36078 0.29191-0.406209 0.641156 0 0zm-1.411 10.552c-1.221805 0.117916-0.243794-0.844616 0 0zm1.732-7.78c-1.312128 0.975004-0.79052-0.68974 0 0zm0.098-0.767c-0.1379-0.867846-2.808063 1.02384-1.373809-1.10299 0.181354-2.287858 3.624042 2.50015 1.373809 1.10299zm0.945 1.219c-0.764201 1.669084-0.397605-0.999645 0 0zm1.041-0.506c-1.31257-0.395159 0.622335-0.549299 0 0zm7.243-1.813c0.316657 0.0134-0.248745 0.194643 0 0zm-0.448-0.437c0.16604 0.247421-0.311602 0.04336 0 0zm-0.604-6.161 0.164212 0.076764zm-0.394-0.104 0.274927 0.1314615zm-0.22-0.617 0.09584 0.048731zm-1.354 3.498c0.163116 0.1172942-0.171218 0.087699 0 0zm-0.138 0.095c0.413756 0.1367264-0.311654 0.1219109 0 0zm-0.652-2.996c0.396148 0.2455637-0.89572 0.050127 0 0zm-0.431 1.409c1.011227 1.820626-2.636469-1.136189 0 0zm-0.786 0.542c-0.201445 0.073038-0.0108-0.2679681 0 0zm-0.441-0.187c0.225875 0.033273-0.106237 0.2212755 0 0zm0.953-1.921 0.05461 0.035324zm-2.49-1.209c0.593306-0.265178 0.238163 0.4875181 0 0zm-0.086 0.06c0.256686 0.060969-0.150547 0.074815 0 0zm-0.07 0.179c0.67305 0.2004571-0.302527 0.2290733 0 0zm-0.126 0.084c-1.589675 0.5149043 2.790683 0.6638139 2.85 1.581-1.261547-0.1289618-3.541592-0.2070135-3.960384-1.197383 0.353-0.510364-1.300686-1.259411 0.401384-0.5556174 0.212281 0.1697061 0.524013-0.047412 0.709 0.172zm-1.879 0.677c-2.058181-0.2301513 0.62255-0.9725932 0 0zm-0.649-0.602c-0.06684 0.2533282-0.320549-0.1795623 0 0zm-0.105-0.054 0.07084-0.00701zm0.179 0.037c0.498949 0.00596-0.248612 0.1470503 0 0zm-0.028-0.075 0.1464-0.0144856zm0.762 0.014c0.01787 0.3505338-0.313468-0.085952 0 0zm-0.079-0.571-0.103334-4e-3zm-0.054 0.17-0.107195 0.011685zm1.601-0.082c-2.974942-0.2927444 0.554689-0.2396276 0 0zm0.053-0.308 0.0497 0.030482zm-0.35-0.657c0.295745-0.1307121 0.973725 0.3811941 0 0zm-0.677 0.494c0.773667-0.7085405 1.48207 0.8324648 0 0zm-1.785-0.444c0.878363-0.5425997 2.442575 0.7558911 0.09073 0.076481zm0.337 0.383c-0.512205-0.3516857 0.808909 0.14811 0 0zm0.036 0.403c-0.04121 0.1599982-0.231145-0.2275087 0 0zm-0.088-0.621 0.151387-0.03347zm-0.644 0.562c1.273356-0.00316-0.364518 0.034363 0 0zm-0.155 0.12c1.252319-0.257211 1.296631 0.9124152-0.398 0.542 1.50143-0.3436955-1.374365 0.05523 0.398-0.542zm-0.365 5e-3 -0.481747 0.00574zm-0.011-0.397 0.162445-0.00512zm-0.578 0.463 0.482194 0.041349zm-4e-3 0.105 0.489366-0.00677zm0.084 1.112c1.047171-0.1093748 0.893312 0.2243248 0 0zm0.266-0.907 0.07083-8.659e-4zm0.215 0.018 0.193964-0.00306zm-0.049-0.968c0.537907-0.5635654 0.167927 0.5489734 0 0zm-0.058 0.387-0.273156 0.0310294zm-1.369-0.948c1.569481-0.1473702 1.384427 0.4328898 0 0zm-0.602 0.163c2.037365-0.3050596 0.140824 0.6466875 0 0zm1.033 1.384c-0.694948 0.3895473-0.224458-0.433972 0 0zm-1.369-1.423c0.32705-0.2645204 0.351205 0.2453084 0 0zm-0.181 1.042c1.152595-1.182728 0.126276 0.2961009 1.325038 0.033882-0.634659 0.6148342-5.401055 0.3400417-2.318611 0.092977-3.022192 0.2110335-0.803433-1.122027 0.993573-0.126859zm-0.691 1.306c1.163255-1.573251 0.88161 1.540331 0 0zm-0.22-0.248-0.195165-0.014824zm-2.095-1.27c0.245602-0.4710938 1.607664-0.082234 0 0zm2.633-0.501c-0.0704 0.2526441-0.580469-0.2211726 0 0zm-3.19 0.093c1.143975-0.3391058 4.655304-0.5493294 1.568 0.073 0.889776-0.6211121-1.994339 0.5845743-1.568-0.073zm0.205 0.181-0.102235 0.041325zm-0.414-0.039-0.069961 0.0112425zm-6e-3 -0.061c0.265346 0.016003-0.258085 0.021784 0 0zm-3.412 2.605c-2.283266-0.3987605 3.058905-2.720731 3.523-1.27-1.108522 0.5337466-2.462881 0.5326395-3.523 1.27zm0.671 1.845-0.0013-0.024608zm0.728 0.826c-0.423537 0.1387102 0.196129-0.1642679 0 0zm0.259-0.378c-0.211035 0.029593 0.111327-0.1316296 0 0zm0.884 0.4c-0.0024 0.1968864-0.3036-0.098191 0 0zm3.626-0.221c-0.508858 0.1631551 0.282059-0.5109601 0 0zm-0.119-0.554c0.347915-0.1188127-0.08537 0.3147729 0 0zm0.382-0.255c-1.798578-0.1573582-0.4299 1.320435-2.664109 0.1089784-2.559091 1.875276-5.327873-1.703555-1.254592-0.7854268-1.03452-0.5666218-2.818249-0.5764108-0.449299-0.9415516-2.874219-0.4303865 3.216758-1.612202 1.877883-0.4479019 1.802221-0.7572859 0.300973 1.800588 1.994222-0.4408334 1.300499 0.4471032-0.964392 1.718504 0.495895 2.506735zm1.83 1.089c-2.904612 0.7204235-0.64885-2.086109 0 0zm-0.18-0.492c0.02673-0.4262217 0.213478 0.2617844 0 0zm0.259-0.094c0.523236 0.2405881-0.481346 0.2361969 0 0zm1.316-1.891c-2.102219 1.21762-2.193387-0.8734555-1.058735-0.9109024 2.422696-0.570076 0.129083 0.5139931 1.188034 0.7413134zm0.094-0.377c-0.274508-0.2146959 0.437484-0.070784 0 0zm0.069 0.023-0.172395 0.061725zm-0.023-0.195 0.06733-0.014458zm0.558 2.984c-0.136357-0.177075 0.226046-0.074968 0 0zm0.67-2.414c-3.354486 0.679716 2.714001-1.960713 0.558-0.111l-0.271987 0.1523781zm0.398 3.513c-0.4539 0.95848-0.144212-0.7310818 0 0zm0.786-1.302c-0.845626 0.00115-0.0549-0.4277531 0 0zm1.014 0.35c-0.290435-0.1251869 0.218421-0.069851 0 0zm0.186 0.043c-0.103135-0.1214286 0.233451 0.022238 0 0zm0.252 0.044c-0.436495-0.130892 0.235883-0.046151 0 0zm0.171 0.278c0.153066-0.1483748 0.223283 0.2395163 0 0zm0.56 4.59c-0.469684 0.250179-0.341282-0.786891 0 0zm0.819 0.78c-0.66199-0.376803 0.644597 0.168028 0 0zm1.771 0.321c-0.827526-0.43222 0.323825-0.208654 0 0zm2.273 1.383c-0.790292-0.245951 0.400395-0.476659 0 0zm-0.1-0.47c0.262985-0.271528 0.211062 0.76284 0 0zm0.454-0.368-0.171006 0.0088zm0.028-1.03c0.215468-0.295978 0.125211 0.444296 0 0zm0.199 0.311c-0.0401 0.529203-0.06726-0.46975 0 0zm1.112-1.329c-0.308513-0.05751 0.132182-0.179681 0 0zm0.527-0.562c-1.525618 1.5853-1.448284-0.618569-2.780663-0.269453 0.283367 0.641922 1.752277 3.935634-0.400337 1.713453-0.585999 0.08447 1.544584 2.324828-0.870478 0.691375-0.955717-1.916268-2.146034-1.634535-3.29735-2.29695 1.425395 0.113113 1.903169-0.42839 2.68108-0.782308 1.479873 1.110457 1.151108-0.373748 0.17166-0.310639 0.903651-1.06456-1.724838-2.22303-1.82387-2.844815-1.576009 0.5907203-4.060464-0.8150555-3.47248-1.377447-0.06177-1.618115 3.84751-1.511024 1.569533-0.3441658-0.301802 1.903642 0.421143-1.16534 1.670752-0.5846069 0.602878 1.3944 0.770093 1.091694 2.341617 1.428349-1.105372 0.6717945 1.770021 0.5830578 0.669287 1.169464 0.334207 0.2799391 2.096112 0.3447691 0.558249 0.773743 0.912696-0.2401523 1.301907 0.995318 0.598215 0.6056214-0.076131 1.00426 1.550569 1.63741 2.384785 2.428379zm-1.8 1.23c0.0058 0.160898-0.13108-0.108851 0 0zm-0.096-0.277c-0.164436 0.286502-0.147663-0.158151 0 0zm-3.892-3.434c1.74294 0.481394-1.77349 1.030991 0 0zm-0.049-0.661c0.312908-0.5659077 0.359267 0.5408498 0 0zm-0.283-0.296c-0.452758-0.066741 0.550531-0.1837838 0 0zm-0.058 0.096c-0.81577 0.7228733-0.693216-0.1135619 0 0zm-0.64-0.335c-0.693417-0.117696 0.639232-0.040887 0 0zm1.968 1.515c0.64528 0.709887-0.964663-0.2774742 0 0zm-0.03-0.217c0.163349-0.069032-0.01326 0.201543 0 0zm-0.259-7e-3c-0.576423-0.5548821 0.439564-0.2265105 0 0zm2.062-1.457c-0.330506 0.2703262-0.377291-0.3502993 0 0zm1.241 1.251-0.09823-0.00633zm-0.144-0.077c-0.102735 0.2016073-0.324067-0.2132156 0 0zm0.278 1.086-0.08758 0.01095zm-7.998 19.929c0.884464-0.469925 1.707159 0.116845 0 0zm-4.222 12.759 0.511932 0.417452zm-0.907-1.84-0.04268 0.07363zm-0.11 0.117-0.07142 0.05551zm2.178 4.707c-2.356579 0.25619-0.375419-1.08808 0 0zm0.939-1.437c-1.846507 0.269093-4.196796-2.343141-5.690737-1.412471 1.440002-1.636354 5.115595 0.71586 5.690737 1.412471zm3.788 1.014c-1.68839 0.41892-4.243694 0.358583-2.712532-0.490656-0.282482-1.132129 2.378474-0.0599 2.712532 0.490656zm-2.932-0.278c0.284446-0.299886 0.344463 0.634706 0 0zm4.364 0.527c-1.374788 0.632141-0.597709-0.997624 0 0zm3.743-19.276c-1.678946 0.135427-0.296042-0.81006 0 0zm0.248-2.042c-2.724995-1.135869 1.28988-0.33142 0 0zm1.122 2.434c-1.461638 0.896338-0.119858-1.664879-0.296838-0.282567zm3.507-19.674 0.323245 0.1379712zm-0.436 48.228c0.315455-0.165014-0.161706 0.310965 0 0zm-0.445 0.717c-0.30845 0.160373 0.155635-0.198668 0 0zm-0.041-0.118c-0.511858 0.432326 0.560779-0.544493 0 0zm0.235-0.211c-0.173241-0.144896 0.214236-0.08144 0 0zm0.066-0.16c-0.0094-0.369548 0.206893-2e-3 0 0zm0.171 0.115c-0.366712-0.275339 0.637006-0.01361 0 0zm0.4 0.086c-0.528422 0.258715 0.105881-0.386286 0 0zm0.108-29.513c-1.210182-0.226562-1.366596-0.35705-3.067014-1.092426 1.146721-1.633465 2.131827-2.692939 1.693014-1.284574 1.03792 1.287698 1.117244 1.197311 1.374 2.377zm0.597-17.581c0.253757 0.053644-0.382681 0.024587 0 0zm-0.071-0.164 0.05177-0.020129zm0.084-0.302c0.221205 0.08564-0.170224 0.050441 0 0zm9e-3 0.134c0.358097 0.1144977-0.425739 0.1587371 0 0zm-0.265-0.55c-0.362251-0.047556 0.06588-0.1738548 0 0zm0.189 0.395-0.101228-0.032439zm-0.083 0.666 0.130351 0.042381zm0.523 3.423 0.08154 0.04732zm0.05 0.099-0.0985-0.0075zm-0.1-0.199-0.08018-0.02141zm0.035-0.478c-0.270474 0.06464 0.08823-0.205329 0 0zm0.232-0.376c-0.275989-0.104054 0.305817-0.02703 0 0zm0.056-0.089c-0.324982-0.06318 0.23526-0.108115 0 0zm0.227 0.011-0.08683-0.03233zm-0.072-0.071c-0.461863-0.133478 0.399659-0.01231 0 0zm0.215 0.094c-0.298635 0.0048 0.179614-0.112952 0 0zm-0.99-1.537 0.116197 0.123742zm0.106 0.689c-0.01162-1.377908 1.456534 1.037532 0 0zm0.082 1.87c-0.07396-0.188243 0.284055 0.03433 0 0zm0.195 0.635c-0.257559-0.07048 0.197034-0.124082 0 0zm0.06 0.247c-0.137195-0.125998 0.169479-0.03974 0 0zm0.752 1.911 0.0464-0.05004zm0.562 1.353 0.09301-0.02833zm0.149 0.051-0.01978-0.04929zm0.322 0.525c-0.412452-0.101756 0.130668-0.214517 0 0zm0.446-0.02c-0.213186 0.02143 0.08567-0.180932 0 0zm0.244-7e-3 -0.08755-0.0054zm0.343 0.588c-0.514468 0.220213 0.461818-0.486413 0 0zm0.429 0.235c-0.101181-0.352808 0.235327 0.209393 0 0zm0.194 0.18c-0.35483 0.08613 0.06079-0.291161 0 0zm0.065-0.15c-0.37588-0.03025 0.08068-0.182046 0 0zm0.308-0.491c-0.155161-0.14247 0.182648-0.02271 0 0zm0.288-1.158c-0.623613-0.203963 0.159236-0.147004 0 0zm0.282-0.397-0.189162-0.17317zm0.268-0.672c-0.418517-0.456131 0.03346-0.373628 0 0zm-16.086 61.335 0.06395 0.05415zm-0.401 0.126-0.486914 0.04613zm0.196 0.035 0.04056-0.0151zm-2e-3 -0.015 0.07456-0.0098zm0.266-0.016 0.114382-0.01291zm0.223-0.044-0.07298 0.01072zm0.788-0.117c-1.437406 0.305074 0.76142-0.203362 0 0zm0.191-8e-3 -0.04457 2.33e-4zm0.585-0.162c-2.306918 0.39337-1.990554 0.358018-1.549 0.15-0.646347-0.123489 1.386269-0.127322 1.549-0.15zm0.483-0.097 0.0099-0.0027zm14.683-61.461c-0.402905-0.156698-0.02387-0.294925 0 0zm0.171 0.061c-0.268374-0.2152 0.166701-0.05042 0 0zm6.462 3.005c-1.985712 0.846235-2.078248-1.328116-2.529404-1.671037 0.203857 0.237583 2.111028 0.366076 2.529404 1.671037z"/><path d="m67.837 4.338c-0.03045 0.047708 0.206888 0.025108 0 0z"/><path d="m63.357 2.933c-0.36472-0.1002032-0.08315-0.00642 0 0z"/></g></g></g></g></g></svg>
