<?xml version="1.0" encoding="UTF-8"?>
<svg width="40.32mm" height="35.385mm" preserveAspectRatio="none" version="1.1" viewBox="543.11 406.82 11.758 10.318" xmlns="http://www.w3.org/2000/svg"><style>.companyName {fill:#08376B;fill-opacity:1;}.icon1 {fill:#35C0ED;fill-opacity:1;}.icon2 {fill:#9AEBA6;fill-opacity:1;}.icon3 {fill:#2F90B0;fill-opacity:1;}.icon3-str {stroke:#2F90B0;stroke-opacity:1;}.shapeStroke-str {stroke:#08376B;stroke-opacity:1;}.text {fill:#08376B;fill-opacity:1;}</style><g transform="matrix(.086556 0 0 .086556 544.29 406.67)" fill="#b7bec8"><path d="m72.443 73.527c-2.627 1.424-5.439 2.549-8.396 3.336-1.254 1.4-2.416 2.768-3.107 3.752h5.184z"/><path d="m90.107 73.631c0-1.904-1.53-3.449-3.416-3.449-0.971 0-1.844 0.41-2.467 1.066h-2e-3l-0.078 0.078c-0.569 0.391-0.916 0.809-0.916 0.809l-5.638 5.729-3.938 3.932-32.055 0.024c-4.584 0-2.34-1.574-2.34-1.574h16.224c0.369 0 0.691-0.09 0.979-0.242 1.562-0.564 2.681-2.066 2.681-3.838 0-2.254-1.811-4.033-4.039-4.033-0.201 0-0.396-0.027-0.594 2e-3h-17.813c-14.942 0-17.93 10.244-17.93 10.244l-10.673 15.797h26.016c1.936-5.795 6.857-6.332 6.857-6.332h26.895c5.23 0 8.539-2.633 8.539-2.633l1.084-1.123 11.587-11.971-6e-3 -8e-3c0.268-0.26 0.49-0.564 0.662-0.9 0.312-0.541 0.402-1.004 0.371-1.395 5e-3 -0.06 0.01-0.121 0.01-0.183z"/><path d="m72.936 80.57 7.354-7.551-4e-3 -4e-3c0.366-0.359 0.597-0.861 0.597-1.418 1e-3 -1.094-0.874-1.979-1.951-1.979-0.557 0-1.057 0.23-1.41 0.607l-2e-3 -2e-3s-8.002 7.562-9.941 10.348z"/><path d="m59.577 77.048c0.74726-0.21296-0.49689 0.09417 0 0z"/><path d="m32.09 19.508c0.52706-0.28074-0.15738-0.25582 0 0z"/><path d="m58.264 4.891c-0.01233 0.013-0.01233 0.013 0 0z"/><path d="m59.493 76.996c0.47708-0.0078 0.06321-0.10642 0 0z"/><path d="m60.75 8.116c-0.72446-0.42012 0.35645 0.24843 0 0z"/><path d="m67.766 4.311c0.017 0.00633 0.017 0.00633 0 0z"/><path d="m89.438 53.882c0.66522-1.5207 1.4402-5.4634-1.1008-3.0462-3.4392 1.4177-3.3808-4.6825-3.0124-6.8851 0.73016-2.57 2.3208-6.1615 3.6757-7.7831 1.3755-0.35332 2.8743-1.0418 2.6139 1.4782 1.1658 2.7598 0.16827-3.7141-0.13447-4.7554-1.2519-3.8993 1.3632 5.7976-0.15955 0.70164-1.5229-4.8155-1.1364 4.5265-3.5421 1.2342-0.25039-1.8698-0.7871-3.9347 1.3834-3.4929-0.69687-2.2638-1.0868-2.2785 0.070318-3.6293 0.71531-0.58822-0.7392-3.9823 0.28654-1.1712 1.2574 2.4347-1.0533-3.8547-0.92954-2.0588-0.52424-1.335-0.75075-1.7306-0.885-2.415-1.1149-2.5802-3.2284-5.3661-5.2298-7.6401-0.7108-0.97704-4.8547-4.6856-2.7413-2.6144-1.0451-0.87068 1.1527 1.3128-0.16923 0.4092-1.9639-1.2237 1.114 1.3368 0.98134 1.7253-0.27722-0.09923-2.3804-2.1539-0.876-0.624-1.4558-0.20225 2.7122 1.7031-0.71617 1.169-0.63697-0.16207-1.7352 0.76658-2.6767 0.64311-0.50964 0.82345-0.77052 1.4024-1.0643 2.4685-0.21112 1.5133-0.92422-0.49594-1.5015-0.15232-1.0771-0.32657-1.6414-2.6-1.4275-2.7172 0.95528-0.60239-1.5114-0.19456 0.008183-0.89511-1.6387-0.34308 0.73307-0.63532-0.869-0.866 0.75904-0.25017-0.65633-0.72941 1.1134-0.34884-1.8492-0.89863-0.48305-0.071236-0.28038-0.65916-0.15066-0.054501 0.91919-0.93629-0.99893-1.7254 2.5431 1.0451-0.43468-0.89843-0.1888-0.89028 0.29895-1.0987-1.1654-3.0684-3.0456-3.2904-1.8579-0.63686-0.73307-0.83965-0.043005-0.64001-2.419-0.91024-0.58974-0.7309 1.0273-0.42593-1.6934-0.71664 1.717 0.40264-0.84088-0.47086-1.9919-0.37084-2.3844-0.47536-2.6384-0.46705 1.5464 0.98474-3.6552-0.35241-1.037 0.78821-1.0877-0.13788-4.7526-0.92519-2.4177-0.9743 0.42129-0.40358 2.1535 0.73909 0.965-0.09-1.8438-0.63083 2.3066 0.23318 0.52351-0.31768 0.29366-0.39832 4.447 0.92915 1.0195-0.11232-1.3407-0.40163 1.258 0.2595-1.1463-0.32714 1.5844 0.34929-2.0599-0.67009-0.27885 0.10654 0.46794 0.7833-4.0837-0.30071-1.1158 0.0035986-2.7885-0.78366 2.1188-0.20634-1.4816-0.7754-16.095-2.9869-33.424 5.9557-40.407 20.749-6.8042 13.732-4.2876 31.516 6.4416 42.553 2.1651 2.3089 4.6171 4.3493 7.2849 6.053 7.3479-0.34789 14.732-0.25557 22.072-0.08421 3.6444 2.1974 3.1651-4.0621 2.2761-5.875-2.9269-1.0107-4.524-4.1683-5.8373-6.5868 1.2353-1.0047-0.50934-2.8881 1.8584-3.7158 1.2017-1.3965-0.10482-5.1174-1.7774-2.8966-2.6447-1.0635-3.8477-3.7781-6.8349-4.5044-2.439-0.8972-7.403-1.1907-7.1772-5.2774-1.7415-1.1709-2.5391-6.0815-3.8318-5.6318-0.18172 1.4971 2.7831 5.2388 1.4911 5.1994-2.129-2.2343-1.4134-5.9074-4.0001-8.1182-0.84767-2.8668-0.71619-6.2173 1.228-8.6972-0.27178-1.8264 2.197-1.6699 0.38436-3.5714-1.485-0.43411 1.0741-1.9573-0.42352-1.5784-0.0054-1.0778 0.79981-3.1867 0.05079-2.1009-0.16199-0.18104 0.79894-4.3904-0.1607-2.5914-0.73177-0.59079-0.35552-1.2301-2.3005-1.8178 0.646-1.1641-4.0676 3.0528-1.2555 0.16153 1.8805-1.6911-2.2708 1.5886-2.5317 2.277-1.2752 1.2422-5.0085 4.4482-1.8474 1.3863 1.4233-1.2213 2.1451-2.3661 0.79022-1.7062 0.39862-0.94432 0.76657-2.2191 2.8243-3.5632 1.0201-0.74475 1.7478-1.5175 0.15374-0.66356 1.6065-1.6598 2.3634-1.3831 3.8316-3.2272 1.9663-0.98467 3.8513-2.7054 4.4975-1.9402 2.8058 0.37035 3.4001 0.48107 5.6907-0.30657-1.4149 0.53056-3.025 1.1119-0.72983 0.39454 2.3198-0.82696 1.491-0.00522 4.1098 0.53546 1.8415-0.00935-1.001 1.6122 1.8902 0.97848 0.67052 1.849 0.8922-0.064716 2.3266-0.42785-2.515 0.38006 0.5239-0.59181 1.0161 0.93014 2.1343 0.12441 2.6369-0.4514 2.4886 0.7145 1.2201-0.87134 2.1336-1.4368 1.3042-2.5164 2.8607-2.2568 0.03683 2.7627 2.3237 1.5039-0.96274 3.568 2.8648-2.3332 2.8118 0.87269-0.4024 0.34195-1.2312 1.9037-1.9044 1.0055-0.21237 0.56848-2.749 0.86216-2.9113 0.44027 3.5957 1.4059-3.1238 1.4436-1.4056 1.5489-0.04369 0.87516-2.5786 1.3646-3.1273 3.7136 1.0633 0.75412-0.06763 2.0236 2.1772 1.7388 1.1368 1.9943 4.1005 0.99785 2.6723 3.9275 1.8871 2.9657 0.85994-1.7048 2.7669-2.2792 1.6802-0.69787 3e-3 -3.0384 1.1268-4.0723-0.50725-3.0097 5.1258 0.20535 3.2119 0.93934 0.08263 2.2311 2.1337 1.3352 2.9835 0.49739 0.5554 1.5438 0.55364 3.6828 1.7688 4.1774 1.9339 0.31979-2.5066 1.6784 0.48598 0.62767 2.794 1.607-2.0888 3.3874-3.8939 2.3321-1.381-0.12122-5.1219 3.8588-2.2586 1.2419 1.6999-0.55617 2.6795-0.0421 1.8125 0.73291 0.22565 1.9628 3.2111 1.6207 0.20607 2.4956-2.6081 1.027 1.9591-1.8815-1.0381-0.6888-1.9413 0.07664-2.3692 2.1295-3.456 2.665-1.972-0.44551-2.1629 3.5593-2.876 2.037-0.59728-1.0009 0.70367 3.1863-1.438 3.2506-3.6241 0.75249-0.83508 4.5956-2.5029 5.9258-0.32714-2.6594-2.1162-4.3545-4.8131-3.2534 0.19917 1.2381-4.6136-0.85663-4.534 2.1295-1.8664 2.5433 1.1533 8.1635 3.4917 4.3578 2.3104-2.2959 2.3334 0.76799 1.2331 1.6423-0.70686 2.5673 4.9637 0.10292 2.5692 3.4401-0.20714 2.4005 3.6829 2.0647 4.5232 1.5863 1.9899-3.1682 3.0322-0.02064 2.7097-0.45462 1.1261-2.401 3.0144 1.1182 5.222-0.36249 1.0896 2.9619 5.8488 1.627 6.665 4.8471-1.7312 2.181-0.45367 0.51499 0.61212 1.2454-2.4619 2.1777 1.7104-1.6518 1.9179 0.73656 2.9678-1.2468 5.9409 1.8982 2.61 4.083-1.0422 2.7045-2.5384 5.1313-5.5112 6.3282-0.26225 1.5301-2.2547 2.9813-1.7285 2.2745-0.20214 2.4468-4.2107 0.92462-2.5563 2.4666-2.4229 1.3723-3.2717 1.6337-4.1758 2.922 0.42298 0.40896-0.52242 1.1602-1.6228 1.6821 13.17-1.536 24.994-11.021 29.837-23.305zm0.723-3.302c0.17149-0.48218-0.13275 0.41925 0 0zm1.012-18.647 0.0627 0.26675zm0.073 0.293 0.03199 0.10884zm0.048 0.183 0.02285 0.06783zm0.227 2.857c0.55508 0.17795 0.03983 1.1375 0 0zm-0.516-1.663c0.51315 1.4904-0.3635 0.95656 0 0zm-0.165-0.878c0.17831-0.32005-8.05e-4 1.804 0 0zm-1.733-7.281 0.02188 0.03197zm0.795 1.393 0.04049 0.11108zm-0.293-0.214-0.02965-0.06905zm0.157 0.224-0.11303-0.20069zm-0.241-0.678c0.21121 0.19184 0.2393 1.0376 0 0zm-0.08 0.072 0.18522 0.36607zm-1.343-2.859 0.0034 0.03482zm-0.136-0.352 0.04235 0.0915zm-0.22-0.436 0.01571 0.07124zm-0.125-0.488-0.03924-0.06352zm-0.08-0.426 0.05713 0.09611zm0.096 0.206c-0.15093 0.04438 0.06911-0.23111 0 0zm0.032 0.027-0.03276-0.06981zm-0.046-0.15 0.01332 0.03688zm-0.048-0.102-0.02303-0.02797zm-0.013 0.392 0.0058 0.03592zm-0.564 0.884 0.03033 0.10068zm-0.207 0.433c0.29836-0.14755 3.3113 5.5224 1.0278 4.2092 0.50422-1.0666-0.82863-2.7038-1.0278-4.2092zm0.792 2.738c0.05276-0.29932 0.12432 0.29714 0 0zm-0.376-1.211-0.0702-0.16302zm-0.13-0.218 0.03356 0.20987zm-0.163-0.482c0.11131 0.21161-0.18289-0.0813 0 0zm-0.071-0.045-0.02649-0.07015zm0.087 0.356c0.29815 0.31669-0.19432 0.02511 0 0zm0.05 0.055-0.0017-0.12344zm-0.371-1.104 0.14671 0.26976zm-0.213-0.419c0.40204-0.32993-0.04096 0.69254 0 0zm0.083 0.446 0.0389 0.18473zm-0.067-0.169 0.06634 0.07817zm-0.139 1.691c1.6619-0.9409 0.64488 3.6653 0.10591 0.52729l-0.0087-0.15145zm-7.209-13.9-0.0566-0.05049zm0.081 0.082 0.08807 0.06358zm0.169 0.149-0.05537-0.05066zm-0.05-0.055 0.05737 0.04545zm0.74 1.034-0.27354-0.24028zm-0.15-0.279-0.05689-0.08481zm0.309 0.277-0.04406-0.05623zm-0.722 0.117-0.0076-0.04167zm0.099 2e-3c-0.66058-0.72801 1.0392 0.72907 0 0zm0.673 0.693c-1.3377-0.98193-0.14805-0.3947 0 0zm0.068-0.826c-0.96289-0.55179 0.1862-0.23227 0 0zm-0.446 1.108-0.06894-0.07521zm-0.153 0.211 0.08661 0.05954zm0.203 0.052c-0.89265 0.01939-0.42173-0.89659 0 0zm-7.39 2.13c0.13416 0.11787-0.18142 0.05278 0 0zm-0.251-1.147-0.1267 0.06162zm-0.115-0.05c0.23704 0.04068-0.3463 0.14739 0 0zm0.176-3.515 0.04071 0.14545zm-0.088-0.502c0.0246 0.19538-0.24347-0.24316 0 0zm-0.216-0.238c0.32392 0.04004 0.02653 0.29713 0 0zm-0.209-0.324c0.44995 0.11427-0.24567 0.26245 0 0zm-0.108-0.22c0.42156-0.00237-0.22846 0.20788 0 0zm-0.138 0.166c0.37945 0.27954-0.38544 0.11534 0 0zm-3.166-5.364 0.12648 0.058163zm-5.441-1.231c1.1496 0.043529-0.23204 0.12723 0 0zm-1.334-0.759 0.03371 0.014503zm-7.876 49.423c0.23406 0.0064-0.15034 0.26165 0 0zm-1.667 0.531c0.2474 0.25252-0.23041 0.20276 0 0zm-16.92-13.959c-0.58637-0.6879 0.31981-0.17462 0 0zm0.531 0.217c-0.41309-0.08082 0.32822-0.42186 0 0zm-3.085-3.842c0.43155 0.11897-0.44327 0.07792 0 0zm-0.275 9e-3c0.35773 0.13385-0.18157 0.19507 0 0zm1.995-11.031c-0.13728 0.4251 0.0264-0.65964 0 0zm-0.06-0.407c0.25624-0.06016-0.19067 0.17364 0 0zm-0.06 0.15c0.15159-0.10931-0.07129 0.18182 0 0zm-0.613-7.788c0.23829-0.21478-0.09486 0.24278 0 0zm0.505 7.734c0.06014-0.17034 0.11052 0.2517 0 0zm-4e-3 -0.266 0.01402 0.08417zm-0.063-0.596c-0.27789 0.25694-0.11551-0.7537 0 0zm-0.134-0.426c-0.17561 1e-3 0.20707-0.16294 0 0zm-0.011-0.185-0.09056-0.0044zm-0.101 0.09c0.22277 0.10226-0.27686 0.17413 0 0zm-0.085-0.179-0.04989 0.05851zm-0.273-0.233c0.2839-0.06509-0.25263 0.14095 0 0zm-0.067 0.159c0.2822-0.05114-0.27009 0.09132 0 0zm-0.17 0c2.1356 2.0974-0.72929 1.5924-0.484-0.223 0.21721-0.21457 0.27068 0.25164 0.484 0.223zm-0.108-2.096-0.01359-0.1258zm5e-3 0.475c0.16686 0.02538-0.18079 0.10633 0 0zm-0.031-0.341-0.03348 0.2531zm0.045 1.004c-0.07132 0.65106-0.07498-0.23472 0 0zm0.303-0.412c0.72199-0.61228-0.3007 0.49239 0 0zm-0.094 0.028c-0.05838 0.1635-0.07024-0.15904 0 0zm-0.088 0.188c-0.33207 0.31014 0.07794-0.35192 0 0zm-0.036-0.223 0.0024 0.07425zm-0.018-0.287c-0.27601-0.10439 0.33304-0.17512 0 0zm0.252-0.953c0.34116 0.06878-0.5646 0.36562 0 0zm-0.172 0.438c0.35385 0.36302-0.34405 0.24346 0 0zm-0.056-0.133-0.02449 0.09855zm-0.045-0.244c-0.10977 0.63314-0.23212-0.69517 0 0zm-0.072-0.73c-0.08017-0.22276 0.32116-0.04807 0 0zm-5e-3 -0.344c0.14403-0.24672 0.08177 0.18903 0 0zm0.192-0.539c0.68557-0.73613-0.19297 0.78588 0 0zm-0.067 0.279-0.12302 0.17458zm-0.07-0.158c0.20472 0.14616-0.20038 0.19683 0 0zm-0.039-0.705c0.24656-0.50717 0.25968 0.22736 0 0zm0.072 0.12c0.33565-0.51024 0.02809 0.29023 0 0zm0.067 0.162c-0.26594-0.14254 0.44217-0.17433 0 0zm0.242-0.278-0.09793-0.25771zm-0.036-0.404c0.08614 0.56923-0.56309 0.017 0 0zm-0.123-0.181c-0.26258 1.1046-0.56204-0.18073 0 0zm-0.095-0.716c0.85722-0.61618-1.0559 1.727 0 0zm-2.513-1.938c0.26532 0.11796-0.32171 0.24212 0 0zm-0.241-0.21c0.19058-0.26617 0.0327 0.21552 0 0zm-0.141 0.364c0.53396-0.552-0.40003 0.47692 0 0zm-0.26 0.235c0.17759 0.09077-0.415 0.17412 0 0zm-0.055 0.195c0.96676-1.1852 0.40974-0.10524 0 0zm-0.812-0.376c0.28464-0.04657-0.52737 0.37479 0 0zm-0.959 0.866 0.04699-0.0021zm-1.172 1.868-0.0556 0.0236zm0.941-1.302c0.25917 0.01384-0.28854 0.19085 0 0zm-0.373 0.385c0.84093-0.5387-0.06168 0.37619 0 0zm-0.069 0.08c0.1787 0.10744-0.16193 0.14594 0 0zm-0.972 1.187c0.47462-1.1289 1.7603-1.3071 0 0zm-0.048 0.142c0.15974-0.04224-0.19255 0.16846 0 0zm-0.74 0.147-0.04531 0.05637zm-1.436 1.594 0.03571-0.05926zm0.133-0.172 6.08e-4 -0.04196zm0.057-0.181c0.10332 0.16431-0.3539 0.14769 0 0zm-0.163-0.026-0.02263 0.06456zm-0.127 0.089c0.20135-0.3315-0.04012 0.24858 0 0zm0.027 0.152c0.73166-1.0359-0.25452 0.4866 0 0zm-0.477 0.208c0.17021-0.21389-0.10055 0.21167 0 0zm-0.186 0.052c-0.82305 1.0408-0.09336-0.24835 0 0zm2.405-4.039-0.40272 0.31362zm1.569-2.286c-0.37298 0.70297-0.47175-0.10478 0 0zm0.347 0.189c-0.41213 0.04212 0.88472-0.73998 0 0zm0.26-0.27c-0.0225-0.24879 0.65913-0.37587 0 0zm0.725-0.647c0.26071-0.16187-0.19954 0.24701 0 0zm-0.045-0.495 0.04823-0.05381zm2.79-1.877c0.1669-0.00367-0.24604 0.11463 0 0zm17.872-1.806-0.04481 0.049619zm7.406-0.351-0.04348-0.052814zm0.184 0.458c-0.20561-0.085599 0.16369-0.14217 0 0zm1.414 2.567c0.77775 0.37759 0.24074 0.64764 0 0zm-0.325-6e-3c0.36078 0.29191-0.40621 0.64116 0 0zm-1.411 10.552c-1.2218 0.11792-0.24379-0.84462 0 0zm1.732-7.78c-1.3121 0.975-0.79052-0.68974 0 0zm0.098-0.767c-0.1379-0.86785-2.8081 1.0238-1.3738-1.103 0.18135-2.2879 3.624 2.5002 1.3738 1.103zm0.945 1.219c-0.7642 1.6691-0.3976-0.99964 0 0zm1.041-0.506c-1.3126-0.39516 0.62234-0.5493 0 0zm7.243-1.813c0.31666 0.0134-0.24874 0.19464 0 0zm-0.448-0.437c0.16604 0.24742-0.3116 0.04336 0 0zm-0.604-6.161 0.16421 0.076764zm-0.394-0.104 0.27493 0.13146zm-0.22-0.617 0.09584 0.048731zm-1.354 3.498c0.16312 0.11729-0.17122 0.087699 0 0zm-0.138 0.095c0.41376 0.13673-0.31165 0.12191 0 0zm-0.652-2.996c0.39615 0.24556-0.89572 0.050127 0 0zm-0.431 1.409c1.0112 1.8206-2.6365-1.1362 0 0zm-0.786 0.542c-0.20144 0.073038-0.0108-0.26797 0 0zm-0.441-0.187c0.22588 0.033273-0.10624 0.22128 0 0zm0.953-1.921 0.05461 0.035324zm-2.49-1.209c0.59331-0.26518 0.23816 0.48752 0 0zm-0.086 0.06c0.25669 0.060969-0.15055 0.074815 0 0zm-0.07 0.179c0.67305 0.20046-0.30253 0.22907 0 0zm-0.126 0.084c-1.5897 0.5149 2.7907 0.66381 2.85 1.581-1.2615-0.12896-3.5416-0.20701-3.9604-1.1974 0.353-0.51036-1.3007-1.2594 0.40138-0.55562 0.21228 0.16971 0.52401-0.047412 0.709 0.172zm-1.879 0.677c-2.0582-0.23015 0.62255-0.97259 0 0zm-0.649-0.602c-0.06684 0.25333-0.32055-0.17956 0 0zm-0.105-0.054 0.07084-0.00701zm0.179 0.037c0.49895 0.00596-0.24861 0.14705 0 0zm-0.028-0.075 0.1464-0.014486zm0.762 0.014c0.01787 0.35053-0.31347-0.085952 0 0zm-0.079-0.571-0.10333-4e-3zm-0.054 0.17-0.1072 0.011685zm1.601-0.082c-2.9749-0.29274 0.55469-0.23963 0 0zm0.053-0.308 0.0497 0.030482zm-0.35-0.657c0.29574-0.13071 0.97372 0.38119 0 0zm-0.677 0.494c0.77367-0.70854 1.4821 0.83246 0 0zm-1.785-0.444c0.87836-0.5426 2.4426 0.75589 0.09073 0.076481zm0.337 0.383c-0.5122-0.35169 0.80891 0.14811 0 0zm0.036 0.403c-0.04121 0.16-0.23114-0.22751 0 0zm-0.088-0.621 0.15139-0.03347zm-0.644 0.562c1.2734-0.00316-0.36452 0.034363 0 0zm-0.155 0.12c1.2523-0.25721 1.2966 0.91242-0.398 0.542 1.5014-0.3437-1.3744 0.05523 0.398-0.542zm-0.365 5e-3 -0.48175 0.00574zm-0.011-0.397 0.16244-0.00512zm-0.578 0.463 0.48219 0.041349zm-4e-3 0.105 0.48937-0.00677zm0.084 1.112c1.0472-0.10937 0.89331 0.22432 0 0zm0.266-0.907 0.07083-8.659e-4zm0.215 0.018 0.19396-0.00306zm-0.049-0.968c0.53791-0.56357 0.16793 0.54897 0 0zm-0.058 0.387-0.27316 0.031029zm-1.369-0.948c1.5695-0.14737 1.3844 0.43289 0 0zm-0.602 0.163c2.0374-0.30506 0.14082 0.64669 0 0zm1.033 1.384c-0.69495 0.38955-0.22446-0.43397 0 0zm-1.369-1.423c0.32705-0.26452 0.3512 0.24531 0 0zm-0.181 1.042c1.1526-1.1827 0.12628 0.2961 1.325 0.033882-0.63466 0.61483-5.4011 0.34004-2.3186 0.092977-3.0222 0.21103-0.80343-1.122 0.99357-0.12686zm-0.691 1.306c1.1633-1.5733 0.88161 1.5403 0 0zm-0.22-0.248-0.19516-0.014824zm-2.095-1.27c0.2456-0.47109 1.6077-0.082234 0 0zm2.633-0.501c-0.0704 0.25264-0.58047-0.22117 0 0zm-3.19 0.093c1.144-0.33911 4.6553-0.54933 1.568 0.073 0.88978-0.62111-1.9943 0.58457-1.568-0.073zm0.205 0.181-0.10224 0.041325zm-0.414-0.039-0.069961 0.011242zm-6e-3 -0.061c0.26535 0.016003-0.25808 0.021784 0 0zm-3.412 2.605c-2.2833-0.39876 3.0589-2.7207 3.523-1.27-1.1085 0.53375-2.4629 0.53264-3.523 1.27zm0.671 1.845-0.0013-0.024608zm0.728 0.826c-0.42354 0.13871 0.19613-0.16427 0 0zm0.259-0.378c-0.21104 0.029593 0.11133-0.13163 0 0zm0.884 0.4c-0.0024 0.19689-0.3036-0.098191 0 0zm3.626-0.221c-0.50886 0.16316 0.28206-0.51096 0 0zm-0.119-0.554c0.34792-0.11881-0.08537 0.31477 0 0zm0.382-0.255c-1.7986-0.15736-0.4299 1.3204-2.6641 0.10898-2.5591 1.8753-5.3279-1.7036-1.2546-0.78543-1.0345-0.56662-2.8182-0.57641-0.4493-0.94155-2.8742-0.43039 3.2168-1.6122 1.8779-0.4479 1.8022-0.75729 0.30097 1.8006 1.9942-0.44083 1.3005 0.4471-0.96439 1.7185 0.4959 2.5067zm1.83 1.089c-2.9046 0.72042-0.64885-2.0861 0 0zm-0.18-0.492c0.02673-0.42622 0.21348 0.26178 0 0zm0.259-0.094c0.52324 0.24059-0.48135 0.2362 0 0zm1.316-1.891c-2.1022 1.2176-2.1934-0.87346-1.0587-0.9109 2.4227-0.57008 0.12908 0.51399 1.188 0.74131zm0.094-0.377c-0.27451-0.2147 0.43748-0.070784 0 0zm0.069 0.023-0.1724 0.061725zm-0.023-0.195 0.06733-0.014458zm0.558 2.984c-0.13636-0.17708 0.22605-0.074968 0 0zm0.67-2.414c-3.3545 0.67972 2.714-1.9607 0.558-0.111l-0.27199 0.15238zm0.398 3.513c-0.4539 0.95848-0.14421-0.73108 0 0zm0.786-1.302c-0.84563 0.00115-0.0549-0.42775 0 0zm1.014 0.35c-0.29044-0.12519 0.21842-0.069851 0 0zm0.186 0.043c-0.10314-0.12143 0.23345 0.022238 0 0zm0.252 0.044c-0.4365-0.13089 0.23588-0.046151 0 0zm0.171 0.278c0.15307-0.14837 0.22328 0.23952 0 0zm0.56 4.59c-0.46968 0.25018-0.34128-0.78689 0 0zm0.819 0.78c-0.66199-0.3768 0.6446 0.16803 0 0zm1.771 0.321c-0.82753-0.43222 0.32382-0.20865 0 0zm2.273 1.383c-0.79029-0.24595 0.4004-0.47666 0 0zm-0.1-0.47c0.26298-0.27153 0.21106 0.76284 0 0zm0.454-0.368-0.17101 0.0088zm0.028-1.03c0.21547-0.29598 0.12521 0.4443 0 0zm0.199 0.311c-0.0401 0.5292-0.06726-0.46975 0 0zm1.112-1.329c-0.30851-0.05751 0.13218-0.17968 0 0zm0.527-0.562c-1.5256 1.5853-1.4483-0.61857-2.7807-0.26945 0.28337 0.64192 1.7523 3.9356-0.40034 1.7135-0.586 0.08447 1.5446 2.3248-0.87048 0.69138-0.95572-1.9163-2.146-1.6345-3.2974-2.297 1.4254 0.11311 1.9032-0.42839 2.6811-0.78231 1.4799 1.1105 1.1511-0.37375 0.17166-0.31064 0.90365-1.0646-1.7248-2.223-1.8239-2.8448-1.576 0.59072-4.0605-0.81506-3.4725-1.3774-0.06177-1.6181 3.8475-1.511 1.5695-0.34417-0.3018 1.9036 0.42114-1.1653 1.6708-0.58461 0.60288 1.3944 0.77009 1.0917 2.3416 1.4283-1.1054 0.67179 1.77 0.58306 0.66929 1.1695 0.33421 0.27994 2.0961 0.34477 0.55825 0.77374 0.9127-0.24015 1.3019 0.99532 0.59822 0.60562-0.076131 1.0043 1.5506 1.6374 2.3848 2.4284zm-1.8 1.23c0.0058 0.1609-0.13108-0.10885 0 0zm-0.096-0.277c-0.16444 0.2865-0.14766-0.15815 0 0zm-3.892-3.434c1.7429 0.48139-1.7735 1.031 0 0zm-0.049-0.661c0.31291-0.56591 0.35927 0.54085 0 0zm-0.283-0.296c-0.45276-0.066741 0.55053-0.18378 0 0zm-0.058 0.096c-0.81577 0.72287-0.69322-0.11356 0 0zm-0.64-0.335c-0.69342-0.1177 0.63923-0.040887 0 0zm1.968 1.515c0.64528 0.70989-0.96466-0.27747 0 0zm-0.03-0.217c0.16335-0.069032-0.01326 0.20154 0 0zm-0.259-7e-3c-0.57642-0.55488 0.43956-0.22651 0 0zm2.062-1.457c-0.33051 0.27033-0.37729-0.3503 0 0zm1.241 1.251-0.09823-0.00633zm-0.144-0.077c-0.10274 0.20161-0.32407-0.21322 0 0zm0.278 1.086-0.08758 0.01095zm-7.998 19.929c0.88446-0.46992 1.7072 0.11684 0 0zm-4.222 12.759 0.51193 0.41745zm-0.907-1.84-0.04268 0.07363zm-0.11 0.117-0.07142 0.05551zm2.178 4.707c-2.3566 0.25619-0.37542-1.0881 0 0zm0.939-1.437c-1.8465 0.26909-4.1968-2.3431-5.6907-1.4125 1.44-1.6364 5.1156 0.71586 5.6907 1.4125zm3.788 1.014c-1.6884 0.41892-4.2437 0.35858-2.7125-0.49066-0.28248-1.1321 2.3785-0.0599 2.7125 0.49066zm-2.932-0.278c0.28445-0.29989 0.34446 0.63471 0 0zm4.364 0.527c-1.3748 0.63214-0.59771-0.99762 0 0zm3.743-19.276c-1.6789 0.13543-0.29604-0.81006 0 0zm0.248-2.042c-2.725-1.1359 1.2899-0.33142 0 0zm1.122 2.434c-1.4616 0.89634-0.11986-1.6649-0.29684-0.28257zm3.507-19.674 0.32324 0.13797zm-0.436 48.228c0.31546-0.16501-0.16171 0.31096 0 0zm-0.445 0.717c-0.30845 0.16037 0.15564-0.19867 0 0zm-0.041-0.118c-0.51186 0.43233 0.56078-0.54449 0 0zm0.235-0.211c-0.17324-0.1449 0.21424-0.08144 0 0zm0.066-0.16c-0.0094-0.36955 0.20689-2e-3 0 0zm0.171 0.115c-0.36671-0.27534 0.63701-0.01361 0 0zm0.4 0.086c-0.52842 0.25872 0.10588-0.38629 0 0zm0.108-29.513c-1.2102-0.22656-1.3666-0.35705-3.067-1.0924 1.1467-1.6335 2.1318-2.6929 1.693-1.2846 1.0379 1.2877 1.1172 1.1973 1.374 2.377zm0.597-17.581c0.25376 0.053644-0.38268 0.024587 0 0zm-0.071-0.164 0.05177-0.020129zm0.084-0.302c0.2212 0.08564-0.17022 0.050441 0 0zm9e-3 0.134c0.3581 0.1145-0.42574 0.15874 0 0zm-0.265-0.55c-0.36225-0.047556 0.06588-0.17385 0 0zm0.189 0.395-0.10123-0.032439zm-0.083 0.666 0.13035 0.042381zm0.523 3.423 0.08154 0.04732zm0.05 0.099-0.0985-0.0075zm-0.1-0.199-0.08018-0.02141zm0.035-0.478c-0.27047 0.06464 0.08823-0.20533 0 0zm0.232-0.376c-0.27599-0.10405 0.30582-0.02703 0 0zm0.056-0.089c-0.32498-0.06318 0.23526-0.10812 0 0zm0.227 0.011-0.08683-0.03233zm-0.072-0.071c-0.46186-0.13348 0.39966-0.01231 0 0zm0.215 0.094c-0.29864 0.0048 0.17961-0.11295 0 0zm-0.99-1.537 0.1162 0.12374zm0.106 0.689c-0.01162-1.3779 1.4565 1.0375 0 0zm0.082 1.87c-0.07396-0.18824 0.28406 0.03433 0 0zm0.195 0.635c-0.25756-0.07048 0.19703-0.12408 0 0zm0.06 0.247c-0.1372-0.126 0.16948-0.03974 0 0zm0.752 1.911 0.0464-0.05004zm0.562 1.353 0.09301-0.02833zm0.149 0.051-0.01978-0.04929zm0.322 0.525c-0.41245-0.10176 0.13067-0.21452 0 0zm0.446-0.02c-0.21319 0.02143 0.08567-0.18093 0 0zm0.244-7e-3 -0.08755-0.0054zm0.343 0.588c-0.51447 0.22021 0.46182-0.48641 0 0zm0.429 0.235c-0.10118-0.35281 0.23533 0.20939 0 0zm0.194 0.18c-0.35483 0.08613 0.06079-0.29116 0 0zm0.065-0.15c-0.37588-0.03025 0.08068-0.18205 0 0zm0.308-0.491c-0.15516-0.14247 0.18265-0.02271 0 0zm0.288-1.158c-0.62361-0.20396 0.15924-0.147 0 0zm0.282-0.397-0.18916-0.17317zm0.268-0.672c-0.41852-0.45613 0.03346-0.37363 0 0zm-16.086 61.335 0.06395 0.05415zm-0.401 0.126-0.48691 0.04613zm0.196 0.035 0.04056-0.0151zm-2e-3 -0.015 0.07456-0.0098zm0.266-0.016 0.11438-0.01291zm0.223-0.044-0.07298 0.01072zm0.788-0.117c-1.4374 0.30507 0.76142-0.20336 0 0zm0.191-8e-3 -0.04457 2.33e-4zm0.585-0.162c-2.3069 0.39337-1.9906 0.35802-1.549 0.15-0.64635-0.12349 1.3863-0.12732 1.549-0.15zm0.483-0.097 0.0099-0.0027zm14.683-61.461c-0.4029-0.1567-0.02387-0.29492 0 0zm0.171 0.061c-0.26837-0.2152 0.1667-0.05042 0 0zm6.462 3.005c-1.9857 0.84624-2.0782-1.3281-2.5294-1.671 0.20386 0.23758 2.111 0.36608 2.5294 1.671z"/><path d="m67.837 4.338c-0.03045 0.047708 0.20689 0.025108 0 0z"/><path d="m63.357 2.933c-0.36472-0.1002-0.08315-0.00642 0 0z"/></g><text x="543.01141" y="417.11597" fill="#08376b" font-family="'Tenor Sans'" font-size="1.7914px" letter-spacing=".0055042px" stroke-width=".12214" word-spacing="0px" style="font-variant-caps:normal;font-variant-east-asian:normal;font-variant-ligatures:normal;font-variant-numeric:normal;line-height:1.25" xml:space="preserve"><tspan x="543.01141" y="417.11597" fill="#08376b" font-family="'Tenor Sans'" font-size="1.7914px" stroke-width=".12214" style="font-variant-caps:normal;font-variant-east-asian:normal;font-variant-ligatures:normal;font-variant-numeric:normal">Geoluminate</tspan></text></svg>
