<?xml version="1.0" encoding="UTF-8" standalone="no"?>
<svg
   width="16"
   height="16"
   preserveAspectRatio="none"
   version="1.1"
   viewBox="543 407 1.23 1.23"
   id="svg1991"
   sodipodi:docname="icon.svg"
   inkscape:version="1.2.1 (9c6d41e410, 2022-07-14)"
   xmlns:inkscape="http://www.inkscape.org/namespaces/inkscape"
   xmlns:sodipodi="http://sodipodi.sourceforge.net/DTD/sodipodi-0.dtd"
   xmlns="http://www.w3.org/2000/svg"
   xmlns:svg="http://www.w3.org/2000/svg">
  <defs
     id="defs1995" />
  <sodipodi:namedview
     id="namedview1993"
     pagecolor="#ffffff"
     bordercolor="#000000"
     borderopacity="0.25"
     inkscape:showpageshadow="2"
     inkscape:pageopacity="0.0"
     inkscape:pagecheckerboard="0"
     inkscape:deskcolor="#d1d1d1"
     showgrid="false"
     inkscape:zoom="17.412505"
     inkscape:cx="3.9339544"
     inkscape:cy="6.8341689"
     inkscape:window-width="1920"
     inkscape:window-height="986"
     inkscape:window-x="-11"
     inkscape:window-y="-11"
     inkscape:window-maximized="1"
     inkscape:current-layer="svg1991" />
  <style
     id="style1961">.companyName {fill:#08376B;fill-opacity:1;}.icon1 {fill:#35C0ED;fill-opacity:1;}.icon2 {fill:#9AEBA6;fill-opacity:1;}.icon3 {fill:#2F90B0;fill-opacity:1;}.icon3-str {stroke:#2F90B0;stroke-opacity:1;}.shapeStroke-str {stroke:#08376B;stroke-opacity:1;}.text {fill:#08376B;fill-opacity:1;}</style>
  <g
     transform="matrix(0.148,0,0,0.148,462.46118,346.73884)"
     id="g1989">
    <g
       transform="matrix(0.0866,0,0,0.0866,544,407)"
       fill="#b7bec8"
       id="g1987">
      <path
         d="m 72.4,73.5 c -2.63,1.42 -5.44,2.55 -8.4,3.34 -1.25,1.4 -2.42,2.77 -3.11,3.75 h 5.18 z"
         id="path1963" />
      <path
         d="m 90.1,73.6 c 0,-1.9 -1.53,-3.45 -3.42,-3.45 -0.971,0 -1.84,0.41 -2.47,1.07 h -0.002 l -0.078,0.078 c -0.569,0.391 -0.916,0.809 -0.916,0.809 l -5.64,5.73 -3.94,3.93 -32.1,0.024 c -4.58,0 -2.34,-1.57 -2.34,-1.57 h 16.2 c 0.369,0 0.691,-0.09 0.979,-0.242 1.56,-0.564 2.68,-2.07 2.68,-3.84 0,-2.25 -1.81,-4.03 -4.04,-4.03 -0.201,0 -0.396,-0.027 -0.594,0.002 h -17.8 c -14.9,0 -17.9,10.2 -17.9,10.2 l -10.7,15.8 h 26 c 1.94,-5.8 6.86,-6.33 6.86,-6.33 h 26.9 c 5.23,0 8.54,-2.63 8.54,-2.63 l 1.08,-1.12 11.6,-12 -0.006,-0.008 c 0.268,-0.26 0.49,-0.564 0.662,-0.9 0.312,-0.541 0.402,-1 0.371,-1.4 0.005,-0.06 0.01,-0.121 0.01,-0.183 z"
         id="path1965" />
      <path
         d="m 72.9,80.6 7.35,-7.55 -0.004,-0.004 c 0.366,-0.359 0.597,-0.861 0.597,-1.42 10e-4,-1.09 -0.874,-1.98 -1.95,-1.98 -0.557,0 -1.06,0.23 -1.41,0.607 l -0.002,-0.002 c 0,0 -8,7.56 -9.94,10.3 z"
         id="path1967" />
      <path
         d="m 59.6,77 c 0.747,-0.213 -0.497,0.0942 0,0 z"
         id="path1969" />
      <path
         d="m 32.1,19.5 c 0.527,-0.281 -0.157,-0.256 0,0 z"
         id="path1971" />
      <path
         d="m 58.3,4.89 c -0.0123,0.013 -0.0123,0.013 0,0 z"
         id="path1973" />
      <path
         d="m 59.5,77 c 0.477,-0.0078 0.0632,-0.106 0,0 z"
         id="path1975" />
      <path
         d="m 60.8,8.12 c -0.724,-0.42 0.356,0.248 0,0 z"
         id="path1977" />
      <path
         d="m 67.8,4.31 c 0.017,0.00633 0.017,0.00633 0,0 z"
         id="path1979" />
      <path
         d="m 89.4,53.9 c 0.665,-1.52 1.44,-5.46 -1.1,-3.05 -3.44,1.42 -3.38,-4.68 -3.01,-6.89 0.73,-2.57 2.32,-6.16 3.68,-7.78 1.38,-0.353 2.87,-1.04 2.61,1.48 1.17,2.76 0.168,-3.71 -0.134,-4.76 -1.25,-3.9 1.36,5.8 -0.16,0.702 -1.52,-4.82 -1.14,4.53 -3.54,1.23 -0.25,-1.87 -0.787,-3.93 1.38,-3.49 -0.697,-2.26 -1.09,-2.28 0.0703,-3.63 0.715,-0.588 -0.739,-3.98 0.287,-1.17 1.26,2.43 -1.05,-3.85 -0.93,-2.06 -0.524,-1.33 -0.751,-1.73 -0.885,-2.42 -1.11,-2.58 -3.23,-5.37 -5.23,-7.64 -0.711,-0.977 -4.85,-4.69 -2.74,-2.61 -1.05,-0.871 1.15,1.31 -0.169,0.409 -1.96,-1.22 1.11,1.34 0.981,1.73 -0.277,-0.0992 -2.38,-2.15 -0.876,-0.624 -1.46,-0.202 2.71,1.7 -0.716,1.17 -0.637,-0.162 -1.74,0.767 -2.68,0.643 -0.51,0.823 -0.771,1.4 -1.06,2.47 -0.211,1.51 -0.924,-0.496 -1.5,-0.152 -1.08,-0.327 -1.64,-2.6 -1.43,-2.72 0.955,-0.602 -1.51,-0.195 0.0082,-0.895 -1.64,-0.343 0.733,-0.635 -0.869,-0.866 0.759,-0.25 -0.656,-0.729 1.11,-0.349 -1.85,-0.899 -0.483,-0.0712 -0.28,-0.659 -0.151,-0.0545 0.919,-0.936 -0.999,-1.73 2.54,1.05 -0.435,-0.898 -0.189,-0.89 0.299,-1.1 -1.17,-3.07 -3.05,-3.29 -1.86,-0.637 -0.733,-0.84 -0.043,-0.64 -2.42,-0.91 -0.59,-0.731 1.03,-0.426 -1.69,-0.717 1.72,0.403 -0.841,-0.471 -1.99,-0.371 -2.38,-0.475 -2.64,-0.467 1.55,0.985 -3.66,-0.352 -1.04,0.788 -1.09,-0.138 -4.75,-0.925 -2.42,-0.974 0.421,-0.404 2.15,0.739 0.965,-0.09 -1.84,-0.631 2.31,0.233 0.524,-0.318 0.294,-0.398 4.45,0.929 1.02,-0.112 -1.34,-0.402 1.26,0.259 -1.15,-0.327 1.58,0.349 -2.06,-0.67 -0.279,0.107 0.468,0.783 -4.08,-0.301 -1.12,0.0036 -2.79,-0.784 2.12,-0.206 -1.48,-0.775 -16.1,-2.99 -33.4,5.96 -40.4,20.7 -6.8,13.7 -4.29,31.5 6.44,42.6 2.17,2.31 4.62,4.35 7.28,6.05 7.35,-0.348 14.7,-0.256 22.1,-0.0842 3.64,2.2 3.17,-4.06 2.28,-5.87 -2.93,-1.01 -4.52,-4.17 -5.84,-6.59 1.24,-1 -0.509,-2.89 1.86,-3.72 1.2,-1.4 -0.105,-5.12 -1.78,-2.9 -2.64,-1.06 -3.85,-3.78 -6.83,-4.5 -2.44,-0.897 -7.4,-1.19 -7.18,-5.28 -1.74,-1.17 -2.54,-6.08 -3.83,-5.63 -0.182,1.5 2.78,5.24 1.49,5.2 -2.13,-2.23 -1.41,-5.91 -4,-8.12 -0.848,-2.87 -0.716,-6.22 1.23,-8.7 -0.272,-1.83 2.2,-1.67 0.384,-3.57 -1.48,-0.434 1.07,-1.96 -0.424,-1.58 -0.0054,-1.08 0.8,-3.19 0.0508,-2.1 -0.162,-0.181 0.799,-4.39 -0.161,-2.59 -0.732,-0.591 -0.356,-1.23 -2.3,-1.82 0.646,-1.16 -4.07,3.05 -1.26,0.162 1.88,-1.69 -2.27,1.59 -2.53,2.28 -1.28,1.24 -5.01,4.45 -1.85,1.39 1.42,-1.22 2.15,-2.37 0.79,-1.71 0.399,-0.944 0.767,-2.22 2.82,-3.56 1.02,-0.745 1.75,-1.52 0.154,-0.664 1.61,-1.66 2.36,-1.38 3.83,-3.23 1.97,-0.985 3.85,-2.71 4.5,-1.94 2.81,0.37 3.4,0.481 5.69,-0.307 -1.41,0.531 -3.03,1.11 -0.73,0.395 2.32,-0.827 1.49,-0.00522 4.11,0.535 1.84,-0.00935 -1,1.61 1.89,0.978 0.671,1.85 0.892,-0.0647 2.33,-0.428 -2.52,0.38 0.524,-0.592 1.02,0.93 2.13,0.124 2.64,-0.451 2.49,0.714 1.22,-0.871 2.13,-1.44 1.3,-2.52 2.86,-2.26 0.0368,2.76 2.32,1.5 -0.963,3.57 2.86,-2.33 2.81,0.873 -0.402,0.342 -1.23,1.9 -1.9,1.01 -0.212,0.568 -2.75,0.862 -2.91,0.44 3.6,1.41 -3.12,1.44 -1.41,1.55 -0.0437,0.875 -2.58,1.36 -3.13,3.71 1.06,0.754 -0.0676,2.02 2.18,1.74 1.14,1.99 4.1,0.998 2.67,3.93 1.89,2.97 0.86,-1.7 2.77,-2.28 1.68,-0.698 0.003,-3.04 1.13,-4.07 -0.507,-3.01 5.13,0.205 3.21,0.939 0.0826,2.23 2.13,1.34 2.98,0.497 0.555,1.54 0.554,3.68 1.77,4.18 1.93,0.32 -2.51,1.68 0.486,0.628 2.79,1.61 -2.09,3.39 -3.89,2.33 -1.38,-0.121 -5.12,3.86 -2.26,1.24 1.7,-0.556 2.68,-0.0421 1.81,0.733 0.226,1.96 3.21,1.62 0.206,2.5 -2.61,1.03 1.96,-1.88 -1.04,-0.689 -1.94,0.0766 -2.37,2.13 -3.46,2.66 -1.97,-0.446 -2.16,3.56 -2.88,2.04 -0.597,-1 0.704,3.19 -1.44,3.25 -3.62,0.752 -0.835,4.6 -2.5,5.93 -0.327,-2.66 -2.12,-4.35 -4.81,-3.25 0.199,1.24 -4.61,-0.857 -4.53,2.13 -1.87,2.54 1.15,8.16 3.49,4.36 2.31,-2.3 2.33,0.768 1.23,1.64 -0.707,2.57 4.96,0.103 2.57,3.44 -0.207,2.4 3.68,2.06 4.52,1.59 1.99,-3.17 3.03,-0.0206 2.71,-0.455 1.13,-2.4 3.01,1.12 5.22,-0.362 1.09,2.96 5.85,1.63 6.67,4.85 -1.73,2.18 -0.454,0.515 0.612,1.25 -2.46,2.18 1.71,-1.65 1.92,0.737 2.97,-1.25 5.94,1.9 2.61,4.08 -1.04,2.7 -2.54,5.13 -5.51,6.33 -0.262,1.53 -2.25,2.98 -1.73,2.27 -0.202,2.45 -4.21,0.925 -2.56,2.47 -2.42,1.37 -3.27,1.63 -4.18,2.92 0.423,0.409 -0.522,1.16 -1.62,1.68 13.2,-1.54 25,-11 29.8,-23.3 z m 0.723,-3.3 c 0.171,-0.482 -0.133,0.419 0,0 z m 1.01,-18.6 0.0627,0.267 z m 0.073,0.293 0.032,0.109 z m 0.048,0.183 0.0228,0.0678 z m 0.227,2.86 c 0.555,0.178 0.0398,1.14 0,0 z m -0.516,-1.66 c 0.513,1.49 -0.363,0.957 0,0 z M 90.8,32.798 c 0.178,-0.32 -8.05e-4,1.8 0,0 z m -1.73,-7.28 0.0219,0.032 z m 0.795,1.39 0.0405,0.111 z m -0.293,-0.214 -0.0296,-0.069 z m 0.157,0.224 -0.113,-0.201 z M 89.488,26.24 c 0.211,0.192 0.239,1.04 0,0 z m -0.08,0.072 0.185,0.366 z m -1.34,-2.86 0.0034,0.0348 z m -0.136,-0.352 0.0424,0.0915 z m -0.22,-0.436 0.0157,0.0712 z m -0.125,-0.488 -0.0392,-0.0635 z m -0.08,-0.426 0.0571,0.0961 z m 0.096,0.206 c -0.151,0.0444 0.0691,-0.231 0,0 z m 0.032,0.027 -0.0328,-0.0698 z m -0.046,-0.15 0.0133,0.0369 z m -0.048,-0.102 -0.023,-0.028 z m -0.013,0.392 0.0058,0.0359 z m -0.564,0.884 0.0303,0.101 z m -0.207,0.433 c 0.298,-0.148 3.31,5.52 1.03,4.21 0.504,-1.07 -0.829,-2.7 -1.03,-4.21 z m 0.792,2.74 c 0.0528,-0.299 0.124,0.297 0,0 z m -0.376,-1.21 -0.0702,-0.163 z m -0.13,-0.218 0.0336,0.21 z M 86.88,24.27 c 0.111,0.212 -0.183,-0.0813 0,0 z m -0.071,-0.045 -0.0265,-0.0702 z m 0.087,0.356 c 0.298,0.317 -0.194,0.0251 0,0 z m 0.05,0.055 -0.0017,-0.123 z m -0.371,-1.1 0.147,0.27 z m -0.213,-0.419 c 0.402,-0.33 -0.041,0.693 0,0 z m 0.083,0.446 0.0389,0.185 z m -0.067,-0.169 0.0663,0.0782 z m -0.139,1.69 c 1.66,-0.941 0.645,3.67 0.106,0.527 L 86.3363,25.46 Z m -7.21,-13.9 -0.0566,-0.0505 z m 0.081,0.082 0.0881,0.0636 z m 0.169,0.149 -0.0554,-0.0507 z m -0.05,-0.055 0.0574,0.0454 z m 0.74,1.03 -0.274,-0.24 z m -0.15,-0.279 -0.0569,-0.0848 z m 0.309,0.277 -0.0441,-0.0562 z m -0.722,0.117 -0.0076,-0.0417 z m 0.099,0.002 c -0.661,-0.728 1.04,0.729 0,0 z m 0.673,0.693 c -1.34,-0.982 -0.148,-0.395 0,0 z m 0.068,-0.826 c -0.963,-0.552 0.186,-0.232 0,0 z m -0.446,1.11 -0.0689,-0.0752 z m -0.153,0.211 0.0866,0.0595 z m 0.203,0.052 c -0.893,0.0194 -0.422,-0.897 0,0 z m -7.39,2.13 c 0.134,0.118 -0.181,0.0528 0,0 z m -0.251,-1.15 -0.127,0.0616 z m -0.115,-0.05 c 0.237,0.0407 -0.346,0.147 0,0 z m 0.176,-3.52 0.0407,0.145 z m -0.088,-0.502 c 0.0246,0.195 -0.243,-0.243 0,0 z m -0.216,-0.238 c 0.324,0.04 0.0265,0.297 0,0 z m -0.209,-0.324 c 0.45,0.114 -0.246,0.262 0,0 z m -0.108,-0.22 c 0.422,-0.00237 -0.228,0.208 0,0 z m -0.138,0.166 c 0.379,0.28 -0.385,0.115 0,0 z m -3.17,-5.36 0.126,0.0582 z m -5.44,-1.23 c 1.15,0.0435 -0.232,0.127 0,0 z m -1.33,-0.759 0.0337,0.0145 z m -7.88,49.4 c 0.234,0.0064 -0.15,0.262 0,0 z m -1.67,0.531 c 0.247,0.253 -0.23,0.203 0,0 z m -16.9,-14 c -0.586,-0.688 0.32,-0.175 0,0 z m 0.531,0.217 c -0.413,-0.0808 0.328,-0.422 0,0 z m -3.08,-3.84 c 0.432,0.119 -0.443,0.0779 0,0 z m -0.275,0.009 c 0.358,0.134 -0.182,0.195 0,0 z m 2,-11 c -0.137,0.425 0.0264,-0.66 0,0 z M 34.237,23.6 c 0.256,-0.0602 -0.191,0.174 0,0 z m -0.06,0.15 c 0.152,-0.109 -0.0713,0.182 0,0 z m -0.613,-7.79 c 0.238,-0.215 -0.0949,0.243 0,0 z m 0.505,7.73 c 0.0601,-0.17 0.111,0.252 0,0 z m -0.004,-0.266 0.014,0.0842 z m -0.063,-0.596 c -0.278,0.257 -0.116,-0.754 0,0 z m -0.134,-0.426 c -0.176,10e-4 0.207,-0.163 0,0 z m -0.011,-0.185 -0.0906,-0.0044 z m -0.101,0.09 c 0.223,0.102 -0.277,0.174 0,0 z m -0.085,-0.179 -0.0499,0.0585 z m -0.273,-0.233 c 0.284,-0.0651 -0.253,0.141 0,0 z m -0.067,0.159 c 0.282,-0.0511 -0.27,0.0913 0,0 z m -0.17,0 c 2.14,2.1 -0.729,1.59 -0.484,-0.223 0.217,-0.215 0.271,0.252 0.484,0.223 z m -0.108,-2.1 -0.0136,-0.126 z m 0.005,0.475 c 0.167,0.0254 -0.181,0.106 0,0 z m -0.031,-0.341 -0.0335,0.253 z m 0.045,1 c -0.0713,0.651 -0.075,-0.235 0,0 z m 0.303,-0.412 c 0.722,-0.612 -0.301,0.492 0,0 z m -0.094,0.028 c -0.0584,0.164 -0.0702,-0.159 0,0 z m -0.088,0.188 c -0.332,0.31 0.0779,-0.352 0,0 z m -0.036,-0.223 0.0024,0.0742 z m -0.018,-0.287 c -0.276,-0.104 0.333,-0.175 0,0 z m 0.252,-0.953 c 0.341,0.0688 -0.565,0.366 0,0 z m -0.172,0.438 c 0.354,0.363 -0.344,0.243 0,0 z m -0.056,-0.133 -0.0245,0.0986 z M 33.118,19.49 c -0.11,0.633 -0.232,-0.695 0,0 z m -0.072,-0.73 c -0.0802,-0.223 0.321,-0.0481 0,0 z m -0.005,-0.344 c 0.144,-0.247 0.0818,0.189 0,0 z m 0.192,-0.539 c 0.686,-0.736 -0.193,0.786 0,0 z m -0.067,0.279 -0.123,0.175 z m -0.07,-0.158 c 0.205,0.146 -0.2,0.197 0,0 z m -0.039,-0.705 c 0.247,-0.507 0.26,0.227 0,0 z m 0.072,0.12 c 0.336,-0.51 0.0281,0.29 0,0 z m 0.067,0.162 c -0.266,-0.143 0.442,-0.174 0,0 z m 0.242,-0.278 -0.0979,-0.258 z m -0.036,-0.404 c 0.0861,0.569 -0.563,0.017 0,0 z m -0.123,-0.181 c -0.263,1.1 -0.562,-0.181 0,0 z m -0.095,-0.716 c 0.857,-0.616 -1.06,1.73 0,0 z m -2.51,-1.94 c 0.265,0.118 -0.322,0.242 0,0 z m -0.241,-0.21 c 0.191,-0.266 0.0327,0.216 0,0 z m -0.141,0.364 c 0.534,-0.552 -0.4,0.477 0,0 z m -0.26,0.235 c 0.178,0.0908 -0.415,0.174 0,0 z m -0.055,0.195 c 0.967,-1.19 0.41,-0.105 0,0 z m -0.812,-0.376 c 0.285,-0.0466 -0.527,0.375 0,0 z m -0.959,0.866 0.047,-0.0021 z m -1.17,1.87 -0.0556,0.0236 z m 0.941,-1.3 c 0.259,0.0138 -0.289,0.191 0,0 z m -0.373,0.385 c 0.841,-0.539 -0.0617,0.376 0,0 z m -0.069,0.08 c 0.179,0.107 -0.162,0.146 0,0 z m -0.972,1.19 c 0.475,-1.13 1.76,-1.31 0,0 z m -0.048,0.142 c 0.16,-0.0422 -0.193,0.168 0,0 z m -0.74,0.147 -0.0453,0.0564 z m -1.44,1.59 0.0357,-0.0593 z m 0.133,-0.172 6.08e-4,-0.042 z m 0.057,-0.181 c 0.103,0.164 -0.354,0.148 0,0 z m -0.163,-0.026 -0.0226,0.0646 z m -0.127,0.089 c 0.201,-0.332 -0.0401,0.249 0,0 z m 0.027,0.152 c 0.732,-1.04 -0.255,0.487 0,0 z m -0.477,0.208 c 0.17,-0.214 -0.101,0.212 0,0 z m -0.186,0.052 c -0.823,1.04 -0.0934,-0.248 0,0 z m 2.4,-4.04 -0.403,0.314 z m 1.57,-2.29 c -0.373,0.703 -0.472,-0.105 0,0 z m 0.347,0.189 c -0.412,0.0421 0.885,-0.74 0,0 z m 0.26,-0.27 c -0.0225,-0.249 0.659,-0.376 0,0 z m 0.725,-0.647 c 0.261,-0.162 -0.2,0.247 0,0 z m -0.045,-0.495 0.0482,-0.0538 z m 2.79,-1.88 c 0.167,-0.00367 -0.246,0.115 0,0 z m 17.9,-1.81 -0.0448,0.0496 z M 56.956,7.762 56.9125,7.7092 Z M 57.14,8.22 c -0.206,-0.0856 0.164,-0.142 0,0 z m 1.41,2.57 c 0.778,0.378 0.241,0.648 0,0 z m -0.325,-0.006 c 0.361,0.292 -0.406,0.641 0,0 z m -1.41,10.6 c -1.22,0.118 -0.244,-0.845 0,0 z m 1.73,-7.78 c -1.31,0.975 -0.791,-0.69 0,0 z m 0.098,-0.767 c -0.138,-0.868 -2.81,1.02 -1.37,-1.1 0.181,-2.29 3.62,2.5 1.37,1.1 z m 0.945,1.22 c -0.764,1.67 -0.398,-1 0,0 z m 1.04,-0.506 c -1.31,-0.395 0.622,-0.549 0,0 z m 7.24,-1.81 c 0.317,0.0134 -0.249,0.195 0,0 z M 67.42,11.304 c 0.166,0.247 -0.312,0.0434 0,0 z M 66.816,5.144 66.98,5.2208 Z M 66.422,5.04 66.697,5.171 Z m -0.22,-0.617 0.0958,0.0487 z m -1.35,3.5 c 0.163,0.117 -0.171,0.0877 0,0 z m -0.138,0.095 c 0.414,0.137 -0.312,0.122 0,0 z m -0.652,-3 c 0.396,0.246 -0.896,0.0501 0,0 z m -0.431,1.41 c 1.01,1.82 -2.64,-1.14 0,0 z M 62.845,6.97 c -0.201,0.073 -0.0108,-0.268 0,0 z M 62.404,6.783 c 0.226,0.0333 -0.106,0.221 0,0 z m 0.953,-1.92 0.0546,0.0353 z m -2.49,-1.21 c 0.593,-0.265 0.238,0.488 0,0 z m -0.086,0.06 c 0.257,0.061 -0.151,0.0748 0,0 z m -0.07,0.179 c 0.673,0.2 -0.303,0.229 0,0 z m -0.126,0.084 c -1.59,0.515 2.79,0.664 2.85,1.58 -1.26,-0.129 -3.54,-0.207 -3.96,-1.2 0.353,-0.51 -1.3,-1.26 0.401,-0.556 0.212,0.17 0.524,-0.0474 0.709,0.172 z m -1.88,0.677 c -2.06,-0.23 0.623,-0.973 0,0 z M 58.056,4.051 c -0.0668,0.253 -0.321,-0.18 0,0 z M 57.951,3.997 58.0218,3.98999 Z m 0.179,0.037 c 0.499,0.00596 -0.249,0.147 0,0 z M 58.102,3.959 58.248,3.9445 Z m 0.762,0.014 c 0.0179,0.351 -0.313,-0.086 0,0 z M 58.785,3.402 58.682,3.398 Z m -0.054,0.17 -0.107,0.0117 z m 1.6,-0.082 c -2.97,-0.293 0.555,-0.24 0,0 z m 0.053,-0.308 0.0497,0.0305 z m -0.35,-0.657 c 0.296,-0.131 0.974,0.381 0,0 z m -0.677,0.494 c 0.774,-0.709 1.48,0.832 0,0 z m -1.78,-0.444 c 0.878,-0.543 2.44,0.756 0.0907,0.0765 z m 0.337,0.383 c -0.512,-0.352 0.809,0.148 0,0 z m 0.036,0.403 c -0.0412,0.16 -0.231,-0.228 0,0 z M 57.862,2.74 58.013,2.7065 Z m -0.644,0.562 c 1.27,-0.00316 -0.365,0.0344 0,0 z m -0.155,0.12 c 1.25,-0.257 1.3,0.912 -0.398,0.542 1.5,-0.344 -1.37,0.0552 0.398,-0.542 z M 56.698,3.427 56.216,3.43274 Z M 56.687,3.03 56.849,3.02488 Z m -0.578,0.463 0.482,0.0413 z m -0.004,0.105 0.489,-0.00677 z m 0.084,1.11 c 1.05,-0.109 0.893,0.224 0,0 z m 0.266,-0.907 0.0708,-8.66e-4 z M 56.67,3.819 56.864,3.81594 Z M 56.621,2.851 c 0.538,-0.564 0.168,0.549 0,0 z M 56.563,3.238 56.29,3.269 Z M 55.193,2.29 c 1.57,-0.147 1.38,0.433 0,0 z m -0.602,0.163 c 2.04,-0.305 0.141,0.647 0,0 z m 1.03,1.38 c -0.695,0.39 -0.224,-0.434 0,0 z m -1.37,-1.42 c 0.327,-0.265 0.351,0.245 0,0 z m -0.181,1.04 c 1.15,-1.18 0.126,0.296 1.33,0.0339 -0.635,0.615 -5.4,0.34 -2.32,0.093 -3.02,0.211 -0.803,-1.12 0.994,-0.127 z m -0.691,1.31 c 1.16,-1.57 0.882,1.54 0,0 z M 53.159,4.515 52.964,4.5002 Z m -2.1,-1.27 c 0.246,-0.471 1.61,-0.0822 0,0 z m 2.63,-0.501 c -0.0704,0.253 -0.58,-0.221 0,0 z m -3.19,0.093 c 1.14,-0.339 4.66,-0.549 1.57,0.073 0.89,-0.621 -1.99,0.585 -1.57,-0.073 z m 0.205,0.181 -0.102,0.0413 z M 50.29,2.979 50.22,2.9902 Z M 50.284,2.918 c 0.265,0.016 -0.258,0.0218 0,0 z m -3.41,2.6 c -2.28,-0.399 3.06,-2.72 3.52,-1.27 -1.11,0.534 -2.46,0.533 -3.52,1.27 z m 0.671,1.84 -0.0013,-0.0246 z m 0.728,0.826 c -0.424,0.139 0.196,-0.164 0,0 z m 0.259,-0.378 c -0.211,0.0296 0.111,-0.132 0,0 z m 0.884,0.4 c -0.0024,0.197 -0.304,-0.0982 0,0 z m 3.63,-0.221 c -0.509,0.163 0.282,-0.511 0,0 z M 52.927,7.431 c 0.348,-0.119 -0.0854,0.315 0,0 z m 0.382,-0.255 c -1.8,-0.157 -0.43,1.32 -2.66,0.109 -2.56,1.88 -5.33,-1.7 -1.25,-0.785 -1.03,-0.567 -2.82,-0.576 -0.449,-0.942 -2.87,-0.43 3.22,-1.61 1.88,-0.448 1.8,-0.757 0.301,1.8 1.99,-0.441 1.3,0.447 -0.964,1.72 0.496,2.51 z m 1.83,1.09 c -2.9,0.72 -0.649,-2.09 0,0 z m -0.18,-0.492 c 0.0267,-0.426 0.213,0.262 0,0 z M 55.218,7.68 c 0.523,0.241 -0.481,0.236 0,0 z m 1.32,-1.89 c -2.1,1.22 -2.19,-0.873 -1.06,-0.911 2.42,-0.57 0.129,0.514 1.19,0.741 z m 0.094,-0.377 c -0.275,-0.215 0.437,-0.0708 0,0 z m 0.069,0.023 -0.172,0.0617 z M 56.678,5.241 56.7453,5.2265 Z m 0.558,2.98 c -0.136,-0.177 0.226,-0.075 0,0 z m 0.67,-2.41 c -3.35,0.68 2.71,-1.96 0.558,-0.111 l -0.272,0.152 z m 0.398,3.51 c -0.454,0.958 -0.144,-0.731 0,0 z m 0.786,-1.3 c -0.846,0.00115 -0.0549,-0.428 0,0 z m 1.01,0.35 c -0.29,-0.125 0.218,-0.0699 0,0 z m 0.186,0.043 c -0.103,-0.121 0.233,0.0222 0,0 z m 0.252,0.044 c -0.436,-0.131 0.236,-0.0462 0,0 z m 0.171,0.278 c 0.153,-0.148 0.223,0.24 0,0 z m 0.56,4.59 c -0.47,0.25 -0.341,-0.787 0,0 z m 0.819,0.78 c -0.662,-0.377 0.645,0.168 0,0 z m 1.77,0.321 c -0.828,-0.432 0.324,-0.209 0,0 z m 2.27,1.38 c -0.79,-0.246 0.4,-0.477 0,0 z m -0.1,-0.47 c 0.263,-0.272 0.211,0.763 0,0 z m 0.454,-0.368 -0.171,0.0088 z m 0.028,-1.03 c 0.215,-0.296 0.125,0.444 0,0 z m 0.199,0.311 c -0.0401,0.529 -0.0673,-0.47 0,0 z m 1.11,-1.33 c -0.309,-0.0575 0.132,-0.18 0,0 z m 0.527,-0.562 c -1.53,1.59 -1.45,-0.619 -2.78,-0.269 0.283,0.642 1.75,3.94 -0.4,1.71 -0.586,0.0845 1.54,2.32 -0.87,0.691 -0.956,-1.92 -2.15,-1.63 -3.3,-2.3 1.43,0.113 1.9,-0.428 2.68,-0.782 1.48,1.11 1.15,-0.374 0.172,-0.311 0.904,-1.06 -1.72,-2.22 -1.82,-2.84 -1.58,0.591 -4.06,-0.815 -3.47,-1.38 -0.0618,-1.62 3.85,-1.51 1.57,-0.344 -0.302,1.9 0.421,-1.17 1.67,-0.585 0.603,1.39 0.77,1.09 2.34,1.43 -1.11,0.672 1.77,0.583 0.669,1.17 0.334,0.28 2.1,0.345 0.558,0.774 0.913,-0.24 1.3,0.995 0.598,0.606 -0.0761,1 1.55,1.64 2.38,2.43 z m -1.8,1.23 c 0.0058,0.161 -0.131,-0.109 0,0 z M 66.45,13.311 c -0.164,0.287 -0.148,-0.158 0,0 z m -3.89,-3.43 c 1.74,0.481 -1.77,1.03 0,0 z M 62.511,9.22 c 0.313,-0.566 0.359,0.541 0,0 z M 62.228,8.924 c -0.453,-0.0667 0.551,-0.184 0,0 z M 62.17,9.02 c -0.816,0.723 -0.693,-0.114 0,0 z M 61.53,8.685 c -0.693,-0.118 0.639,-0.0409 0,0 z m 1.97,1.52 c 0.645,0.71 -0.965,-0.277 0,0 z M 63.47,9.988 c 0.163,-0.069 -0.0133,0.202 0,0 z M 63.211,9.981 c -0.576,-0.555 0.44,-0.227 0,0 z m 2.06,-1.46 c -0.331,0.27 -0.377,-0.35 0,0 z m 1.24,1.25 -0.0982,-0.00633 z M 66.367,9.694 c -0.103,0.202 -0.324,-0.213 0,0 z m 0.278,1.09 -0.0876,0.011 z m -8,19.9 c 0.884,-0.47 1.71,0.117 0,0 z m -4.22,12.8 0.512,0.417 z m -0.907,-1.84 -0.0427,0.0736 z m -0.11,0.117 -0.0714,0.0555 z m 2.18,4.71 c -2.36,0.256 -0.375,-1.09 0,0 z m 0.939,-1.44 c -1.85,0.269 -4.2,-2.34 -5.69,-1.41 1.44,-1.64 5.12,0.716 5.69,1.41 z m 3.79,1.01 c -1.69,0.419 -4.24,0.359 -2.71,-0.491 -0.282,-1.13 2.38,-0.0599 2.71,0.491 z m -2.93,-0.278 c 0.284,-0.3 0.344,0.635 0,0 z m 4.36,0.527 c -1.37,0.632 -0.598,-0.998 0,0 z m 3.74,-19.3 c -1.68,0.135 -0.296,-0.81 0,0 z m 0.248,-2.04 c -2.72,-1.14 1.29,-0.331 0,0 z m 1.12,2.43 c -1.46,0.896 -0.12,-1.66 -0.297,-0.283 z m 3.51,-19.7 0.323,0.138 z m -0.436,48.2 c 0.315,-0.165 -0.162,0.311 0,0 z m -0.445,0.717 c -0.308,0.16 0.156,-0.199 0,0 z m -0.041,-0.118 c -0.512,0.432 0.561,-0.544 0,0 z m 0.235,-0.211 c -0.173,-0.145 0.214,-0.0814 0,0 z m 0.066,-0.16 c -0.0094,-0.37 0.207,-0.002 0,0 z m 0.171,0.115 c -0.367,-0.275 0.637,-0.0136 0,0 z m 0.4,0.086 c -0.528,0.259 0.106,-0.386 0,0 z m 0.108,-29.5 c -1.21,-0.227 -1.37,-0.357 -3.07,-1.09 1.15,-1.63 2.13,-2.69 1.69,-1.28 1.04,1.29 1.12,1.2 1.37,2.38 z m 0.597,-17.6 c 0.254,0.0536 -0.383,0.0246 0,0 z M 70.949,9.045 71.0008,9.0249 Z m 0.084,-0.302 c 0.221,0.0856 -0.17,0.0504 0,0 z m 0.009,0.134 c 0.358,0.114 -0.426,0.159 0,0 z m -0.265,-0.55 c -0.362,-0.0476 0.0659,-0.174 0,0 z m 0.189,0.395 -0.101,-0.0324 z m -0.083,0.666 0.13,0.0424 z m 0.523,3.42 0.0815,0.0473 z m 0.05,0.099 -0.0985,-0.0075 z m -0.1,-0.199 -0.0802,-0.0214 z m 0.035,-0.478 c -0.27,0.0646 0.0882,-0.205 0,0 z m 0.232,-0.376 c -0.276,-0.104 0.306,-0.027 0,0 z m 0.056,-0.089 c -0.325,-0.0632 0.235,-0.108 0,0 z m 0.227,0.011 -0.0868,-0.0323 z m -0.072,-0.071 c -0.462,-0.133 0.4,-0.0123 0,0 z m 0.215,0.094 c -0.299,0.0048 0.18,-0.113 0,0 z m -0.99,-1.54 0.116,0.124 z m 0.106,0.689 c -0.0116,-1.38 1.46,1.04 0,0 z m 0.082,1.87 c -0.074,-0.188 0.284,0.0343 0,0 z m 0.195,0.635 c -0.258,-0.0705 0.197,-0.124 0,0 z m 0.06,0.247 c -0.137,-0.126 0.169,-0.0397 0,0 z m 0.752,1.91 0.0464,-0.05 z m 0.562,1.35 0.093,-0.0283 z m 0.149,0.051 -0.0198,-0.0493 z m 0.322,0.525 c -0.412,-0.102 0.131,-0.215 0,0 z m 0.446,-0.02 c -0.213,0.0214 0.0857,-0.181 0,0 z m 0.244,-0.007 -0.0876,-0.0054 z m 0.343,0.588 c -0.514,0.22 0.462,-0.486 0,0 z m 0.429,0.235 c -0.101,-0.353 0.235,0.209 0,0 z m 0.194,0.18 c -0.355,0.0861 0.0608,-0.291 0,0 z m 0.065,-0.15 c -0.376,-0.0302 0.0807,-0.182 0,0 z m 0.308,-0.491 c -0.155,-0.142 0.183,-0.0227 0,0 z m 0.288,-1.16 c -0.624,-0.204 0.159,-0.147 0,0 z m 0.282,-0.397 -0.189,-0.173 z m 0.268,-0.672 c -0.419,-0.456 0.0335,-0.374 0,0 z m -16.1,61.3 0.064,0.0542 z m -0.401,0.126 -0.487,0.0461 z m 0.196,0.035 0.0406,-0.0151 z m -0.002,-0.015 0.0746,-0.0098 z m 0.266,-0.016 0.114,-0.0129 z m 0.223,-0.044 -0.073,0.0107 z m 0.788,-0.117 c -1.44,0.305 0.761,-0.203 0,0 z m 0.191,-0.008 -0.0446,2.33e-4 z M 61.9,76.741 c -2.31,0.393 -1.99,0.358 -1.55,0.15 -0.646,-0.123 1.39,-0.127 1.55,-0.15 z m 0.483,-0.097 0.0099,-0.0027 z m 14.7,-61.5 c -0.403,-0.157 -0.0239,-0.295 0,0 z m 0.171,0.061 c -0.268,-0.215 0.167,-0.0504 0,0 z m 6.46,3 c -1.99,0.846 -2.08,-1.33 -2.53,-1.67 0.204,0.238 2.11,0.366 2.53,1.67 z"
         id="path1981" />
      <path
         d="m 67.8,4.34 c -0.0304,0.0477 0.207,0.0251 0,0 z"
         id="path1983" />
      <path
         d="m 63.4,2.93 c -0.365,-0.1 -0.0832,-0.00642 0,0 z"
         id="path1985" />
    </g>
  </g>
</svg>
